<svg width="285" height="210" viewBox="0 0 285 210" fill="none" xmlns="http://www.w3.org/2000/svg">
<g clip-path="url(#clip0_677_7019)">
<path d="M272.082 188.795L271.635 188.578C278.262 170.744 280.846 153.559 279.314 137.5C277.556 119.065 270.04 102.596 258.693 92.3154C246.339 81.1219 229.05 77.978 215.675 84.491C205.32 89.5324 197.605 99.5241 190.144 109.186C183.039 118.387 175.693 127.901 166.028 133.27L165.815 132.77C175.392 127.45 182.706 117.978 189.779 108.819C197.276 99.1098 205.028 89.0704 215.484 83.9796C229.232 77.2861 246.311 80.387 258.996 91.8799C270.443 102.252 278.025 118.858 279.798 137.44C281.339 153.594 278.743 170.872 272.082 188.795Z" fill="#F6F5F5"/>
<path d="M96.3141 24.9361C90.7078 30.3262 88.648 38.211 94.5815 47.0998C99.0944 53.8604 107.855 57.2981 115.893 56.0337C123.932 54.7694 130.998 49.1357 134.618 41.8591C137.295 36.4768 137.544 30.2712 133.715 25.3352C130.961 21.7857 126.793 19.5278 122.45 18.3602C113.481 15.9484 102.64 18.8542 96.3141 24.9361Z" fill="#F6F5F5"/>
<path d="M276.524 203.005C281.922 184.197 284.382 163.873 280.761 144.517C277.14 125.161 266.869 106.908 251.511 97.7458C230.023 84.9263 203.883 91.6937 180.778 100.071C157.672 108.448 133.091 118.256 109.783 110.645C91.9611 104.825 76.4971 89.1439 57.9625 88.8969C46.3826 88.7425 35.2581 94.8962 26.4778 103.522C10.5659 119.155 1.45439 143.416 2.50245 167.362C3.17206 182.661 7.98505 197.611 15.855 210H274.373C275.13 207.686 275.849 205.356 276.524 203.005Z" fill="#F6F5F5"/>
<path d="M188.799 133.018H88.4219V210H188.799V133.018Z" fill="#E2EAFF"/>
<path opacity="0.2" d="M188.799 133.018H147.916V210H188.799V133.018Z" fill="#1F3C88"/>
<path opacity="0.2" d="M124.652 162.889L122.81 161.025L119.788 162.889L116.324 159.48L112.713 162.889V133.018H124.652V162.889Z" fill="#1F3C88"/>
<path d="M235.827 56.0332H135.45V133.015H235.827V56.0332Z" fill="#86A7FF"/>
<path d="M160.051 56.0332H135.45V75.7912H160.051V56.0332Z" fill="#E2EAFF"/>
<path d="M156.176 71.5328H139.323V72.1215H156.176V71.5328Z" fill="#3A6BEA"/>
<path d="M156.176 66.5786H139.323V67.1671H156.176V66.5786Z" fill="#3A6BEA"/>
<path opacity="0.2" d="M235.826 56.0332H211.57V133.015H235.826V56.0332Z" fill="#1F3C88"/>
<path d="M192.456 85.9045L190.614 84.0401L187.592 85.9045L184.128 82.495L180.517 85.9045V56.0332H192.456V85.9045Z" fill="#E2EAFF"/>
<path d="M176.954 114.206H166.857V124.285H176.954V114.206Z" fill="#E2EAFF"/>
<path d="M191.769 114.206H181.672V124.285H191.769V114.206Z" fill="#E2EAFF"/>
<path d="M206.582 114.206H196.485V124.285H206.582V114.206Z" fill="#E2EAFF"/>
<path d="M270.061 133.018H169.685V210H270.061V133.018Z" fill="#E2EAFF"/>
<path opacity="0.2" d="M270.061 133.018H245.806V210H270.061V133.018Z" fill="#1F3C88"/>
<path opacity="0.2" d="M216.041 162.889L214.199 161.025L211.177 162.889L207.713 159.48L204.102 162.889V133.018H216.041V162.889Z" fill="#1F3C88"/>
<path d="M84.8542 67.2653L84.3826 73.1395L83.8991 79.1078L75.9395 78.5958L78.6634 66.3118L81.7706 66.7885L84.8542 67.2653Z" fill="#F9B384"/>
<path d="M84.8538 67.2655L84.3822 73.1397C82.1638 73.1883 77.877 71.2875 77.877 71.2875L79.1406 67.5244L81.7703 66.7887L84.8538 67.2655Z" fill="#E28B6D"/>
<path d="M87.0951 68.1954C86.1754 69.2608 82.3489 71.1678 78.3749 70.8853L75.2559 64.1636L79.9372 57.3653L85.5385 57.0121C85.5385 57.0121 86.2696 59.7433 86.8061 62.5213C87.0242 63.675 87.2129 64.8346 87.3014 65.8057C87.4135 66.9712 87.3781 67.8717 87.0951 68.1954Z" fill="#F9B384"/>
<path d="M68.4897 68.942C68.482 68.9427 68.475 68.9453 68.4688 68.9509C68.4825 68.9507 68.4884 68.9473 68.4897 68.942Z" fill="#102048"/>
<path d="M73.5213 71.514L73.4561 71.4994C73.4971 71.5138 73.5138 71.5164 73.5213 71.514Z" fill="#102048"/>
<path d="M68.6167 66.5868C68.6243 66.5812 68.6252 66.5807 68.6309 66.5765C68.597 66.5889 68.5511 66.6058 68.4766 66.6331L68.6167 66.5868Z" fill="#102048"/>
<path d="M81.4376 67.4105L81.4307 67.486C81.4342 67.452 81.4384 67.4302 81.4376 67.4105Z" fill="#102048"/>
<path d="M78.2129 72.9514C78.2364 72.9487 78.2738 72.9544 78.31 72.9602C78.2651 72.9483 78.2287 72.9415 78.2129 72.9514Z" fill="#102048"/>
<path d="M63.8003 63.9951C63.7417 64.0884 63.7002 64.1761 63.6768 64.2721C63.7052 64.1764 63.7584 64.0884 63.8003 63.9951Z" fill="#102048"/>
<path d="M86.6361 59.5538L86.6289 59.5774C86.6408 59.5598 86.6404 59.5547 86.6361 59.5538Z" fill="#102048"/>
<path d="M63.9856 64.1709C63.9774 64.174 63.9688 64.1797 63.9601 64.1848C63.9536 64.2025 63.9451 64.2204 63.9346 64.2379L63.9856 64.1709Z" fill="#102048"/>
<path d="M81.4092 53.8566C81.4106 53.8568 81.4113 53.8569 81.4129 53.8573C81.4211 53.857 81.4273 53.8568 81.4359 53.8566H81.4092Z" fill="#102048"/>
<path d="M80.7969 53.7182C80.8412 53.7213 80.884 53.7243 80.9316 53.7276C80.8612 53.715 80.8237 53.7134 80.7969 53.7182Z" fill="#102048"/>
<path d="M63.6776 64.2723L63.6211 64.4338C63.6454 64.3779 63.6622 64.3249 63.6776 64.2723Z" fill="#102048"/>
<path d="M74.3818 55.6116C74.3966 55.5945 74.4116 55.5795 74.4264 55.5649C74.4047 55.5826 74.3906 55.5985 74.3818 55.6116Z" fill="#102048"/>
<path d="M77.7737 72.8277C77.7599 72.8216 77.7403 72.8151 77.7237 72.8088C77.7164 72.8137 77.7187 72.8189 77.7737 72.8277Z" fill="#102048"/>
<path d="M88.1226 56.1575C88.1019 56.1208 88.0869 56.0557 88.082 55.9795C88.0779 55.9033 88.0767 55.8142 88.0686 55.7262C88.0631 55.5516 88.0269 55.383 87.9851 55.3651C87.982 55.2862 87.9684 55.2065 87.9587 55.1256C87.937 55.1252 87.8791 55.0957 87.7918 54.9244C87.7312 54.7514 87.7785 54.7725 87.7711 54.7115C87.7264 54.6881 87.6857 54.6646 87.6381 54.6459C87.5114 54.4107 87.3079 54.1815 87.0512 54.0076C86.795 53.8323 86.4887 53.716 86.179 53.6655C85.5526 53.5599 84.9437 53.7052 84.4399 53.8904C84.2567 53.9826 84.0599 54.0953 83.8742 54.2329C83.8271 54.2664 83.7785 54.2991 83.7337 54.3364L83.665 54.3909C83.6441 54.4079 83.6088 54.4344 83.6227 54.4258C83.6113 54.4381 83.5988 54.4529 83.5852 54.4633C83.5739 54.4585 83.563 54.4535 83.5517 54.4472C83.5557 54.4451 83.5581 54.4425 83.561 54.4399L83.5438 54.4274L83.5354 54.4212C83.5377 54.4216 83.5245 54.4162 83.5152 54.4124L83.4861 54.4003C83.4084 54.3679 83.3307 54.3357 83.2526 54.3057L83.4188 54.3835C83.4698 54.4087 83.5484 54.4437 83.5368 54.4462L83.5285 54.4469L83.5243 54.4474L83.5077 54.4435C83.4831 54.4373 83.4595 54.4314 83.4359 54.4256C83.3888 54.4138 83.3428 54.3998 83.2929 54.3826C82.7877 54.1687 82.0894 53.9335 81.4139 53.8573C81.1911 53.8626 81.1228 53.8344 81.0562 53.8014C80.9897 53.77 80.9259 53.7292 80.7123 53.7395C80.7492 53.7349 80.764 53.7235 80.7974 53.7181C80.5691 53.7097 80.3944 53.6994 80.2178 53.7053C80.1298 53.707 80.0419 53.7084 79.9475 53.7129C79.8532 53.721 79.7522 53.7299 79.638 53.7397C79.6648 53.6953 79.5906 53.694 79.515 53.6986C79.4391 53.7063 79.3622 53.7193 79.3823 53.6951L79.3449 53.7327C79.2433 53.7129 79.0035 53.7106 79.0365 53.6852L78.8375 53.746L78.8173 53.71C78.5475 53.7169 77.9805 53.8395 77.8261 53.7975C77.4996 53.8859 77.0828 54.0139 76.6531 54.1721C76.4424 54.2627 76.2208 54.3418 76.0166 54.4511C75.9135 54.5033 75.809 54.5508 75.7106 54.6051C75.6136 54.6622 75.5188 54.7184 75.4268 54.7727C75.3372 54.8561 75.1391 55.0054 74.9851 55.1234C74.9213 55.1533 74.8537 55.1794 74.792 55.2132C74.6515 55.3549 74.5277 55.5297 74.3762 55.6345C74.3734 55.6299 74.376 55.6219 74.3833 55.6108C74.2505 55.7597 74.0992 55.8791 74.0014 56.0414C73.8771 56.1874 73.7432 56.3195 73.7211 56.2938C73.7176 56.3335 73.6528 56.4069 73.5831 56.4752C73.5077 56.5588 73.4278 56.6367 73.4278 56.6367C73.4278 56.6367 73.4021 56.6721 73.3535 56.7389C73.3063 56.8065 73.231 56.9027 73.1458 57.0324C73.0651 57.1644 72.9667 57.3255 72.853 57.5112C72.7435 57.6991 72.6386 57.9204 72.5139 58.1598C72.4584 58.2701 72.4006 58.3854 72.3404 58.5051C72.2799 58.6213 72.2251 58.7476 72.1545 58.8675C72.0858 58.9888 72.0149 59.1138 71.9423 59.2421C71.8687 59.3695 71.7829 59.4917 71.7016 59.6216C71.3639 60.1296 70.9479 60.6365 70.4483 61.0561C70.1919 61.2556 69.9275 61.4518 69.6349 61.602C69.3438 61.7543 69.0408 61.8879 68.7208 61.9851C68.084 62.1877 67.4051 62.2827 66.7372 62.3882C66.0743 62.4939 65.3991 62.6265 64.8489 62.9301C64.7798 62.9637 64.7148 63.005 64.6523 63.0479C64.5902 63.0908 64.5273 63.1278 64.4715 63.1741C64.3615 63.2687 64.2534 63.3523 64.1713 63.4528C64.129 63.5008 64.088 63.5474 64.0483 63.5925C64.0118 63.6396 63.9814 63.6885 63.9503 63.734C63.9206 63.7801 63.8919 63.8243 63.8644 63.8667C63.8385 63.9097 63.8203 63.9543 63.8005 63.995C63.7894 64.0457 63.7534 64.1297 63.7324 64.1925C63.7136 64.2562 63.7137 64.3002 63.7539 64.2668C63.6783 64.4479 63.5791 64.5022 63.5955 64.5518C63.7361 64.3239 63.6466 64.6626 63.8015 64.4543L63.7376 64.6025C63.7465 64.6431 63.8086 64.3933 63.8337 64.4497L63.793 64.3775C63.8578 64.2619 63.9173 64.2115 63.9602 64.1843C63.9825 64.1252 63.9846 64.0653 64.0081 63.9912C64.0382 63.9219 64.0887 63.835 64.2048 63.7335C64.1847 63.7536 64.1699 63.778 64.1524 63.8C64.3197 63.6153 64.2911 63.723 64.3337 63.6932L64.2941 63.7301L64.466 63.6148C64.4025 63.6588 64.3334 63.7358 64.2935 63.7884C64.2529 63.8408 64.2475 63.8755 64.2877 63.8236C64.507 63.6413 64.2221 63.863 64.3713 63.7094C64.466 63.6146 64.4625 63.6684 64.4725 63.6882C64.5275 63.6326 64.5947 63.5911 64.6554 63.5419C64.6676 63.5725 64.5303 63.6327 64.6259 63.6028L64.7338 63.5019L64.8521 63.4132C64.9337 63.4519 65.1201 63.2288 65.2767 63.2542C65.2346 63.2746 65.2133 63.2865 65.2045 63.2935C64.6323 63.5264 64.1603 63.9198 63.8371 64.6573C64.4208 65.3349 65.0333 65.9582 65.6711 66.533C65.6372 66.5227 65.6082 66.5159 65.5755 66.5024L65.7689 66.6197C65.7888 66.6375 65.8089 66.6553 65.8289 66.673C65.8479 66.7158 65.9544 66.8306 65.8144 66.7284C65.9282 66.8233 66.0337 66.9114 66.157 67.0082C66.1573 67.02 66.1585 67.0323 66.1592 67.0444C66.1912 67.0687 66.2371 67.1245 66.314 67.1292C66.3888 67.1347 66.4715 67.1168 66.5426 67.1019C66.6852 67.0683 66.7848 67.0407 66.7599 67.1019C67.086 66.9772 67.209 66.9554 67.5933 66.8017C67.4492 66.8754 67.5483 66.8595 67.625 66.8468C67.7026 66.8338 67.768 66.8212 67.6381 66.8771C67.7916 66.85 67.8223 66.7776 67.9602 66.7195C68.0734 66.7031 67.9824 66.7913 67.8711 66.8515L68.0131 66.7752L68.0048 66.7893L68.1433 66.7072C68.2454 66.6997 68.1248 66.7705 68.2366 66.7366L68.3173 66.657C68.3358 66.6596 68.3525 66.663 68.3677 66.6668C68.3646 66.6454 68.4523 66.6025 68.5545 66.5592L68.5353 66.5776L68.6651 66.518C68.5012 66.6113 68.7483 66.4959 68.6307 66.5764C68.6663 66.5628 68.6877 66.5546 68.7133 66.5448C68.7273 66.5389 68.7425 66.5324 68.7614 66.5244C68.7662 66.5223 68.7714 66.5201 68.7767 66.5178C68.7814 66.516 68.7914 66.51 68.7848 66.5174C68.7792 66.5264 68.773 66.5362 68.766 66.5473C68.766 66.5473 68.7552 66.5666 68.7408 66.5906L68.8302 66.5071C68.7544 66.6646 68.7191 66.5983 68.6133 66.7546L68.694 66.6913C68.5566 66.8512 68.5194 66.9263 68.4808 67.0104C68.4445 67.0909 68.4096 67.1777 68.3335 67.2721C68.3806 67.1724 68.3066 67.217 68.3206 67.2136C68.2893 67.2807 68.238 67.3741 68.1931 67.4718L68.1605 67.5464C68.1468 67.5805 68.1334 67.6139 68.1203 67.6467C68.0932 67.7188 68.0734 67.7848 68.0584 67.8523C68.0144 67.8937 67.9837 67.9224 67.9513 67.9791C67.9225 68.036 67.8756 68.122 67.8572 68.2882C67.8581 68.406 67.881 68.4735 67.9107 68.5123C67.9396 68.5511 67.9667 68.566 68.0074 68.5811C68.0412 68.6128 68.0848 68.6492 68.1324 68.6872C68.3439 68.8263 68.4958 68.9087 68.4905 68.942C68.5418 68.9372 68.6201 69.0334 68.7165 69.0616L68.7257 69.0857L68.7322 69.0461C68.9577 69.2756 69.2069 69.2767 69.4438 69.4945L69.3913 69.477L69.5146 69.5282C69.5248 69.5526 69.4728 69.5354 69.4567 69.551L69.9931 69.8544L69.9003 69.7712C70.015 69.8316 70.11 69.8382 70.231 69.926C69.9859 69.8634 70.412 70.021 70.4276 70.0775L70.3031 70.0304C70.4654 70.1095 70.4654 70.1095 70.4694 70.0693C70.6842 70.1628 70.579 70.2092 70.7922 70.2657C70.7463 70.2428 70.6997 70.2215 70.6546 70.197C70.6237 70.1571 70.7358 70.18 70.8283 70.224C70.8478 70.2396 70.9061 70.2859 70.8334 70.2564C71.006 70.3227 71.2475 70.4587 71.3272 70.48C71.4125 70.5335 71.3717 70.5435 71.3187 70.5294C71.6915 70.6625 71.4784 70.609 71.8529 70.7395L71.8383 70.7564L71.9725 70.7879C72.0257 70.8273 72.0782 70.8686 72.1323 70.9062L72.079 70.8541C72.1999 70.9007 72.2809 70.9169 72.4158 70.9858L72.3475 70.9916C72.6923 71.1134 72.718 71.2045 73.0593 71.2856C73.0794 71.2995 73.0253 71.2895 72.9977 71.2842C73.3165 71.3527 73.2051 71.4237 73.5297 71.4824C73.5073 71.4857 73.536 71.5099 73.521 71.514L73.6671 71.5442L73.6418 71.5804L73.7766 71.5617L73.8472 71.6333L73.9082 71.6332C74.0294 71.7626 74.2596 71.7809 74.445 71.9045L74.4272 71.842C74.9771 71.9088 75.5908 72.2856 76.2383 72.4127L76.2154 72.4502L76.4895 72.4768C76.6204 72.5473 76.3955 72.4886 76.4335 72.5212C76.7193 72.5753 76.5668 72.4924 76.8949 72.5681C77.0539 72.6404 76.829 72.5828 76.7466 72.5765C77.0563 72.6403 77.5127 72.7335 77.7239 72.809C77.7302 72.8047 77.7454 72.8008 77.7348 72.7956C77.9432 72.8297 78.2079 72.9122 78.4341 72.962C78.4239 72.9798 78.3675 72.9697 78.3104 72.9604C78.3908 72.982 78.4984 73.0213 78.5723 73.0182L78.4791 73.0339C78.6502 73.0832 78.9917 73.1259 79.021 73.1756C79.0124 73.1653 79.012 73.1528 79.0323 73.1473C79.055 73.1423 79.079 73.1399 79.2127 73.1704C79.2758 73.2167 79.4527 73.2522 79.6459 73.2785C79.6943 73.2855 79.7444 73.2929 79.7956 73.3004L79.8338 73.3062C79.8451 73.3049 79.8636 73.319 79.8664 73.2996L79.903 73.2252C79.9524 73.1271 80.0029 73.0341 80.056 72.9531C80.0452 73.0062 79.9066 73.2729 79.9467 73.1996C80.0535 73.0333 80.1236 72.8479 80.1789 72.6804L80.1784 72.7447L80.2244 72.6334L80.2599 72.5447C80.2787 72.4974 80.2964 72.4498 80.3112 72.4021L80.404 72.1162C80.4489 72.086 80.4927 71.9522 80.5288 71.8332C80.5638 71.7142 80.586 71.6093 80.6037 71.6357C80.6673 71.4345 80.5247 71.7964 80.595 71.5394C80.6434 71.4793 80.6494 71.3053 80.6866 71.3274L80.6841 71.3561L80.7291 71.1764L80.7388 71.3001C80.7717 71.1429 80.7624 71.0197 80.7323 71.0041C80.7892 70.8637 80.8225 70.652 80.8726 70.5934L80.8708 70.65C80.9439 70.2356 81.1267 69.9885 81.1121 69.65C81.122 69.6267 81.1319 69.6314 81.1227 69.6822L81.1693 69.4268L81.1899 69.4929L81.2085 69.0618L81.2287 69.0704C81.2791 68.792 81.3271 68.3527 81.3603 67.9919L81.3642 68.0469C81.3762 67.6504 81.4261 67.6696 81.432 67.3794C81.4366 67.3902 81.4378 67.4 81.438 67.4106L81.4615 67.1517L81.4769 67.2107C81.4496 67.015 81.5843 66.6676 81.5355 66.7825C81.524 66.6722 81.515 66.4835 81.4909 66.4496C81.5089 66.1672 81.5232 66.3826 81.5538 66.209C81.5708 66.0049 81.5353 65.9665 81.5721 65.691L81.5931 65.6981C81.5964 65.5683 81.5861 65.4869 81.5926 65.3065L81.6 65.3606C81.57 65.0644 81.6813 64.9964 81.5978 64.7614C81.6208 64.6388 81.6152 64.4039 81.6578 64.4167C81.6464 64.0488 81.6374 63.7632 81.626 63.3987C81.6615 63.37 81.6608 63.3503 81.6562 63.3103C81.654 63.2903 81.6509 63.2652 81.651 63.2313C81.6512 63.2075 81.6519 63.2115 81.6538 63.2056C81.6557 63.2011 81.6589 63.1965 81.664 63.192L81.6266 63.189C81.626 63.167 81.6277 63.1446 81.6317 63.1248C81.6461 63.1197 81.6608 63.115 81.675 63.111L81.6962 63.1055L81.7306 63.0931L81.7475 63.0872L81.7851 63.0696L81.8656 63.0313C81.9192 63.0053 81.9731 62.9793 82.0273 62.9531C82.2428 62.8472 82.458 62.7339 82.6588 62.6047L82.6921 62.6285L82.7683 62.5333C83.3044 62.2283 83.9798 61.7988 84.3832 61.5116C84.5043 61.402 84.6771 61.222 84.8912 61.0778L84.8727 61.0981C85.2191 60.8111 85.5806 60.5032 85.9658 60.1897C85.9531 60.2217 85.9976 60.1977 85.9625 60.2419C86.0237 60.1336 86.1772 60.0433 86.2572 59.9717L86.1457 60.0361C86.2269 59.9163 86.3945 59.7952 86.467 59.7648L86.5966 59.5733C86.6096 59.5652 86.6298 59.5525 86.6364 59.5544L86.6498 59.5118C86.69 59.4947 86.7289 59.4746 86.7684 59.4554C86.7837 59.4307 86.8398 59.3594 86.8952 59.2817C86.9492 59.2017 87.001 59.1133 87.0128 59.0619C87.0412 59.0573 87.1831 58.8887 87.0881 59.0302C87.2656 58.8058 87.4348 58.5671 87.5803 58.2979L87.4965 58.4133C87.4759 58.4118 87.4932 58.3491 87.5253 58.2734C87.5537 58.1932 87.595 58.0974 87.6322 58.0356C87.5809 58.2201 87.6791 58.0682 87.7298 58.0088C87.7512 57.8936 87.6639 58.0904 87.666 58.0259C87.694 57.8817 87.7865 57.5939 87.8209 57.5231L87.8094 57.6106C87.8552 57.419 87.9459 57.3503 87.9882 57.1552C88.0049 56.9773 88.0462 56.848 87.9791 56.8742C88.011 56.6184 88.041 56.7836 88.0597 56.701C88.0512 56.637 88.0634 56.5154 88.0787 56.4023C88.0887 56.2871 88.1053 56.1816 88.1226 56.1575Z" fill="#102048"/>
<path d="M66.1592 67.0446C66.1599 67.0564 66.1602 67.0678 66.1614 67.0799C66.2586 67.1469 66.2622 67.1373 66.1592 67.0446Z" fill="#102048"/>
<path d="M73.7171 56.2764C73.7161 56.2845 73.7175 56.2891 73.7201 56.2921C73.7206 56.286 73.72 56.2806 73.7171 56.2764Z" fill="#102048"/>
<path d="M82.9782 62.9656C83.6449 63.9551 83.5533 65.1818 82.7734 65.7057C81.9935 66.2294 80.8207 65.8519 80.1538 64.8624C79.487 63.873 79.5787 62.6463 80.3586 62.1224C81.1387 61.5986 82.3115 61.9762 82.9782 62.9656Z" fill="#F9B384"/>
<path d="M81.6861 64.5209C81.6828 64.4795 81.6008 63.5012 80.5293 63.2498L80.6307 62.8198C81.748 63.0825 82.0983 64.0289 82.1274 64.4925L81.6861 64.5209Z" fill="#102048"/>
<path opacity="0.4" d="M87.3012 65.8054C87.1242 65.8701 86.9356 65.9054 86.7352 65.9054C85.7977 65.9054 85.0371 65.1462 85.0371 64.2103C85.0371 63.2744 85.7977 62.521 86.7352 62.521H86.806C87.0241 63.6747 87.2128 64.8342 87.3012 65.8054Z" fill="#EB5D60"/>
<path d="M136.641 65.8687L133.644 69.168L121.077 82.9715C120.635 83.4665 119.882 83.5178 119.373 83.0914C118.865 82.6651 118.785 81.9161 119.189 81.3889L130.649 66.6193L133.365 63.1234L136.641 65.8687Z" fill="#1F3C88"/>
<path d="M136.641 65.8685L133.643 69.1677C132.583 68.3973 131.578 67.5291 130.648 66.6189L133.365 63.123L136.641 65.8685Z" fill="#102048"/>
<path d="M142.933 68.6316C150.437 68.6316 156.52 62.5588 156.52 55.0677C156.52 47.5765 150.437 41.5037 142.933 41.5037C135.429 41.5037 129.346 47.5765 129.346 55.0677C129.346 62.5588 135.429 68.6316 142.933 68.6316Z" fill="#1F3C88"/>
<mask id="mask0_677_7019" style="mask-type:luminance" maskUnits="userSpaceOnUse" x="132" y="44" width="22" height="22">
<path d="M142.933 65.8683C148.908 65.8683 153.752 61.0325 153.752 55.0673C153.752 49.1021 148.908 44.2664 142.933 44.2664C136.957 44.2664 132.113 49.1021 132.113 55.0673C132.113 61.0325 136.957 65.8683 142.933 65.8683Z" fill="white"/>
</mask>
<g mask="url(#mask0_677_7019)">
<path d="M159.069 41.735H129.516V71.2384H159.069V41.735Z" fill="#E2EAFF"/>
</g>
<mask id="mask1_677_7019" style="mask-type:luminance" maskUnits="userSpaceOnUse" x="132" y="44" width="22" height="22">
<path d="M142.933 65.8683C148.908 65.8683 153.752 61.0325 153.752 55.0673C153.752 49.1021 148.908 44.2664 142.933 44.2664C136.957 44.2664 132.113 49.1021 132.113 55.0673C132.113 61.0325 136.957 65.8683 142.933 65.8683Z" fill="white"/>
</mask>
<g mask="url(#mask1_677_7019)">
<path d="M142.695 51.373H139.117V60.7083H142.695V51.373Z" fill="#3A6BEA"/>
<path d="M148.489 51.373H144.911V60.7083H148.489V51.373Z" fill="#3A6BEA"/>
<path d="M154.283 51.373H150.705V60.7083H154.283V51.373Z" fill="#3A6BEA"/>
</g>
<mask id="mask2_677_7019" style="mask-type:luminance" maskUnits="userSpaceOnUse" x="132" y="44" width="23" height="23">
<path d="M135.578 62.8262C139.607 67.2324 146.451 67.5444 150.864 63.523C155.277 59.5015 155.589 52.6696 151.56 48.2633C147.531 43.8571 140.687 43.5452 136.274 47.5666C131.861 51.588 131.55 58.42 135.578 62.8262Z" fill="white"/>
</mask>
<g mask="url(#mask2_677_7019)">
<path opacity="0.6" d="M157.81 46.4647L153.627 41.89L127.628 65.5812L131.811 70.1558L157.81 46.4647Z" fill="white"/>
</g>
<path d="M39.7284 178.695L26.4609 187.889L39.2206 202.42L39.0237 191.171L45.4453 184.454L39.7284 178.695Z" fill="#102048"/>
<path d="M85.1494 111.41C85.0373 112.287 84.9135 113.17 84.778 114.059C84.3358 117.037 83.7756 120.045 83.1153 123.059C82.8205 124.401 82.5021 125.743 82.1661 127.079C80.9515 131.952 79.4834 136.802 77.8031 141.517C76.3233 145.667 74.69 149.71 72.9212 153.565C72.9212 153.571 72.9212 153.571 72.9212 153.577C64.3012 172.401 52.6448 186.809 41.8138 187.633C41.8138 187.633 33.353 181.324 35.3282 178.51C41.519 169.681 54.1954 157.909 57.1435 148.786C59.4253 141.723 61.9546 131.634 64.826 122.093C66.4298 116.778 68.1336 111.634 69.9674 107.278C70.3093 106.466 70.6513 105.683 70.9992 104.936L76.4294 107.42L85.1494 111.41Z" fill="#ED7545"/>
<path opacity="0.6" d="M72.9199 153.565C74.5059 140.457 75.3216 128.087 75.3216 128.087L82.1649 127.079C79.8831 136.243 76.6934 145.325 72.9199 153.565Z" fill="#BA5C36"/>
<path d="M82.8655 193.774L81.0225 210H100.627L91.9136 202.64L91.0759 193.273L82.8655 193.774Z" fill="#102048"/>
<path d="M91.3399 198.523C91.3399 198.523 84.2646 199.847 81.9062 197.345C78.687 193.926 83.8224 167.768 81.3167 155.702C80.4677 151.606 79.141 146.661 77.8027 141.517C76.1872 135.284 74.554 128.762 73.7403 123.112C73.2568 119.692 73.0622 116.584 73.357 114.059H92.5191C92.9672 116.149 93.4035 118.45 93.8162 120.916C98.4564 148.462 100.538 196.362 91.3399 198.523Z" fill="#ED7545"/>
<path opacity="0.6" d="M93.8159 120.916C91.6521 121.699 88.1262 122.658 83.1146 123.058C80.4201 123.276 77.307 123.329 73.74 123.111C71.0278 122.953 68.0562 122.629 64.8252 122.093C66.4289 116.778 68.1328 111.634 69.9665 107.278L76.4286 107.42L85.1488 111.41C85.0367 112.287 84.9129 113.17 84.7774 114.059H92.5189C92.9669 116.148 93.4032 118.45 93.8159 120.916Z" fill="#BA5C36"/>
<path d="M82.2011 172.526H81.6114V159.185C81.6114 156.29 79.4217 148.951 78.48 145.93C77.8213 143.816 74.9793 132.36 74.6666 131.098L72.3848 129.247L72.7567 128.791L75.1916 130.766L75.2152 130.861C75.2466 130.988 78.3656 143.582 79.043 145.755C79.9925 148.802 82.2009 156.209 82.2009 159.185L82.2011 172.526Z" fill="#BA5C36"/>
<path d="M92.563 159.377L92.4766 158.796C96.2393 158.239 97.027 157.697 97.0587 157.675L97.4208 158.139C97.3391 158.204 96.5078 158.794 92.563 159.377Z" fill="#BA5C36"/>
<path d="M69.6873 159.497C69.5903 159.449 67.2973 158.301 65.9707 157.418L66.2977 156.929C67.594 157.792 69.9278 158.959 69.9511 158.97L69.6873 159.497Z" fill="#BA5C36"/>
<path d="M34.9853 189.279L34.7695 189.826L38.9072 191.452L39.123 190.905L34.9853 189.279Z" fill="white"/>
<path d="M91.7812 202.38L86.6387 205.031L86.9093 205.554L92.0518 202.903L91.7812 202.38Z" fill="white"/>
<path d="M43.4272 101.923C43.4272 101.923 38.6459 102.673 36.678 102.682C34.7103 102.69 32.1218 102.143 32.6444 102.704C32.948 103.03 34.2568 103.565 35.3024 103.958C33.2154 104.555 30.4082 104.544 30.0526 104.81C29.0574 105.553 31.0041 105.879 33.0913 105.956C31.9257 106.084 30.5045 106.333 29.9085 106.684C28.7117 107.39 32.3931 107.581 34.555 107.457C32.8878 107.71 31.2746 107.754 31.0109 107.951C30.2301 108.534 31.2603 108.86 32.7481 109.011C32.6344 109.037 32.5445 109.065 32.5004 109.098C31.1082 110.138 37.5485 111.44 46.8971 108.943L43.4272 101.923Z" fill="#F9B384"/>
<path d="M32.339 106.087C32.3151 106.087 32.3017 106.087 32.2998 106.087L32.3004 105.646C32.3356 105.648 35.3895 105.649 37.224 105.526L37.2539 105.966C35.5183 106.083 32.7041 106.087 32.339 106.087Z" fill="#E28B6D"/>
<path d="M32.6804 107.837C32.6565 107.837 32.6433 107.837 32.6416 107.837L32.6422 107.396C32.6709 107.396 35.7322 107.399 37.5658 107.276L37.5957 107.717C35.8596 107.833 33.0443 107.837 32.6804 107.837Z" fill="#E28B6D"/>
<path d="M32.8582 109.301C32.8343 109.301 32.8211 109.301 32.8193 109.301L32.82 108.86C32.8493 108.856 35.9096 108.863 37.7435 108.74L37.7735 109.181C36.0371 109.297 33.2221 109.301 32.8582 109.301Z" fill="#E28B6D"/>
<path d="M77.3361 88.7491C74.3173 95.3766 68.2091 100.327 62.0478 103.858C53.1624 108.961 44.1709 111.116 44.1709 111.116L40.2383 101.304C51.5174 98.3961 60.4381 91.7038 66.1867 86.2593C70.9153 81.7859 73.5037 78.1543 73.5037 78.1543L77.3361 88.7491Z" fill="#3A6BEA"/>
<path d="M77.3362 88.7491C74.3174 95.3766 68.2092 100.327 62.0479 103.858C64.6127 98.1254 65.7329 90.5678 66.1869 86.2593C70.9155 81.7859 73.5039 78.1543 73.5039 78.1543L77.3362 88.7491Z" fill="#1F3C88"/>
<path d="M96.057 117.59C96.057 117.59 68.6405 123.623 58.7646 114.647C58.7646 114.647 66.2232 107.702 67.0191 100.079C67.7561 93.0162 68.9353 77.4184 77.3372 75.5053C85.4325 73.6631 91.4876 80.2141 93.4038 91.3975C93.4157 91.474 93.4274 91.5505 93.4451 91.6328C94.3059 96.7595 95.037 104.523 95.5029 110.227C95.8565 114.482 96.057 117.59 96.057 117.59Z" fill="#3A6BEA"/>
<path d="M95.5022 110.227C85.7974 103.458 83.8223 87.1304 83.8223 87.1304L93.4446 91.6332C94.3053 96.7598 95.0364 104.523 95.5022 110.227Z" fill="#1F3C88"/>
<path d="M115.297 81.6731L119.349 78.6391C119.349 78.6391 123.217 73.0308 123.77 73.6745C124.322 74.3181 122.573 77.7197 122.573 77.7197C122.573 77.7197 127.546 75.9729 127.822 76.4326C128.098 76.8923 128.006 82.0408 128.006 82.5925C128.006 83.1441 122.573 85.0749 122.573 85.0749L116.494 89.7638L115.297 81.6731Z" fill="#F9B384"/>
<path d="M82.888 76.3885C82.888 76.3885 87.9979 75.4075 98.8073 91.1034L115.316 81.0973L119.443 90.1224C119.443 90.1224 102.981 103.874 97.235 102.483C90.7494 100.913 81.1191 86.7871 81.1191 86.7871L82.888 76.3885Z" fill="#3A6BEA"/>
<path d="M81.2408 116.065C81.2726 116.049 81.4382 116.026 81.2984 116.021C81.2675 116.037 81.2354 116.053 81.2408 116.065Z" fill="#E2EAFF"/>
<path d="M82.3906 115.979C82.3536 115.981 82.3161 115.984 82.2744 115.986C82.3265 115.991 82.3609 115.986 82.3906 115.979Z" fill="#E2EAFF"/>
<path d="M84.2532 115.987C84.2184 115.992 84.1886 115.997 84.1797 116.002C84.2004 115.996 84.2254 115.991 84.2532 115.987Z" fill="#E2EAFF"/>
<path d="M85.2455 115.832C84.9175 115.853 84.8785 115.892 84.6076 115.91C84.5219 115.866 85.0847 115.864 84.9247 115.833C84.7345 115.85 84.4506 115.88 84.3002 115.933L83.9951 115.92L84.1024 115.968C84.2257 115.976 84.3462 115.907 84.4248 115.94C84.4652 115.961 84.3425 115.975 84.2564 115.987C84.4514 115.964 84.794 115.985 85.1902 115.944C85.6087 115.901 85.5014 115.818 85.7721 115.765C85.5283 115.809 85.2841 115.853 85.0392 115.891C85.1065 115.867 85.0774 115.853 85.2455 115.832Z" fill="#E2EAFF"/>
<path d="M85.8076 115.822L85.8578 115.84L85.8205 115.813L85.8076 115.822Z" fill="#E2EAFF"/>
<path d="M87.3251 115.634L87.5438 115.587C87.3095 115.58 87.113 115.592 86.6032 115.66C86.4766 115.687 86.3501 115.716 86.2229 115.74C86.1811 115.74 86.1566 115.731 86.1283 115.723C86.1456 115.734 86.044 115.767 86.0616 115.776C86.2439 115.81 86.5296 115.708 86.7338 115.673C87.2811 115.63 86.7123 115.704 86.9307 115.725C86.7777 115.743 86.7708 115.731 86.5584 115.754C86.8983 115.769 87.3117 115.669 87.5221 115.623C87.4597 115.627 87.4426 115.613 87.3251 115.634Z" fill="#E2EAFF"/>
<path d="M86.1279 115.723C86.0892 115.713 86.04 115.708 85.9189 115.738C86.0614 115.719 86.1154 115.717 86.1279 115.723Z" fill="#E2EAFF"/>
<path d="M87.6391 115.606C87.6145 115.606 87.5746 115.613 87.5225 115.623C87.5498 115.622 87.5844 115.617 87.6391 115.606Z" fill="#E2EAFF"/>
<path d="M87.4124 115.577L87.6816 115.544L87.5731 115.535C87.5365 115.543 87.4047 115.565 87.4124 115.577Z" fill="#E2EAFF"/>
<path d="M95.7227 113.852L95.7217 113.896L95.6304 113.901C95.653 113.894 95.6754 113.888 95.6974 113.882C95.6804 113.82 95.6637 113.759 95.6472 113.7C95.6349 113.651 95.6227 113.602 95.6106 113.554C95.583 113.442 95.5555 113.331 95.5271 113.216C95.4452 113.235 95.3617 113.256 95.2754 113.276C95.2082 113.293 95.139 113.312 95.0669 113.332C94.9805 113.335 95.0291 113.313 95.1239 113.282C95.1717 113.267 95.2303 113.249 95.2895 113.231C95.3862 113.203 95.4834 113.175 95.5641 113.151C95.5789 113.196 95.5918 113.235 95.6023 113.267C95.594 113.231 95.5837 113.186 95.5722 113.137C95.4996 113.153 95.418 113.172 95.3453 113.188C95.3276 113.192 95.3103 113.195 95.2939 113.199C95.2843 113.201 95.2752 113.202 95.2667 113.203C95.2497 113.206 95.2353 113.207 95.2249 113.207C95.0657 113.271 94.7982 113.372 94.5988 113.445C94.7806 113.346 94.2928 113.476 94.1596 113.507C94.1888 113.521 94.2869 113.506 94.4881 113.45C94.4707 113.483 94.2079 113.545 94.0894 113.593C94.3604 113.541 94.0926 113.625 94.1668 113.633C94.4654 113.558 94.589 113.489 94.9099 113.413C94.8975 113.424 94.9044 113.432 94.9362 113.433C94.3876 113.58 93.8437 113.717 93.3048 113.846C93.4871 113.797 93.6573 113.751 93.7677 113.723C93.7717 113.701 93.5844 113.718 93.86 113.644C93.7473 113.669 93.7867 113.636 93.7919 113.614C93.5113 113.713 93.3498 113.727 93.182 113.795C93.0151 113.806 93.2886 113.762 93.1216 113.773L92.8955 113.85C92.7243 113.882 93.0652 113.784 92.7988 113.839C92.7719 113.861 92.5607 113.926 92.3518 113.97L92.4097 113.947C92.253 113.994 92.0259 114.032 92.112 114.057L91.9155 114.058L91.954 114.079C91.5164 114.165 91.3361 114.12 90.7784 114.268C90.916 114.25 90.795 114.29 90.7235 114.31C90.9633 114.284 91.0095 114.231 91.2322 114.184C91.2679 114.204 90.9609 114.296 91.1175 114.285C90.8381 114.314 90.6025 114.39 90.4708 114.346C90.1121 114.411 89.9827 114.476 89.6131 114.517L89.6221 114.504C89.5628 114.563 89.3206 114.531 89.0575 114.625L89.2527 114.604C89.2468 114.625 89.1533 114.641 89.0226 114.666C89.036 114.656 89.036 114.656 88.9919 114.653C88.9587 114.694 88.5554 114.766 88.4976 114.786C88.2327 114.826 87.9694 114.864 87.7075 114.9C87.7233 114.897 87.739 114.894 87.754 114.891L87.551 114.862C87.6667 114.851 87.7758 114.828 87.7688 114.849C87.9063 114.807 87.84 114.802 87.753 114.794C88.0496 114.743 88.1025 114.763 88.3262 114.69C87.8252 114.717 87.9128 114.785 87.3401 114.822L87.1938 114.917C86.9613 114.94 87.2523 114.879 87.0339 114.893C86.8019 114.948 87.3101 114.906 87.0846 114.973C86.9842 114.972 86.8452 115.003 86.7376 115.027C86.7085 115.031 86.679 115.035 86.6499 115.038C86.7051 115.008 86.6498 114.978 86.6124 114.974C86.5251 115.002 86.3214 114.996 86.1681 115.011C86.5467 115.002 85.8544 115.061 86.197 115.058C86.1844 115.075 86.0594 115.101 85.9287 115.119C85.8854 115.124 85.8417 115.129 85.7986 115.134C85.7523 115.137 85.7096 115.139 85.6776 115.138C85.686 115.117 85.8027 115.109 85.8981 115.099C85.9712 115.053 85.6573 115.103 85.6002 115.074C85.424 115.117 85.0499 115.172 84.7603 115.212C84.6458 115.227 84.545 115.241 84.4749 115.255C84.4099 115.261 84.3447 115.266 84.2799 115.271C84.2418 115.26 84.208 115.249 84.2476 115.233C84.0905 115.239 84.0524 115.267 83.9728 115.294C83.7625 115.309 83.5538 115.323 83.3459 115.336C83.3366 115.328 83.2926 115.324 83.2333 115.321C83.1081 115.311 82.9202 115.305 82.8738 115.291C82.297 115.385 82.2869 115.249 81.7315 115.303C81.387 115.334 81.7693 115.338 81.7484 115.357C81.5572 115.364 81.3648 115.388 81.2131 115.376C81.2342 115.356 81.3479 115.347 81.4634 115.351C81.3877 115.307 81.2521 115.361 81.0449 115.334C81.0629 115.339 81.1378 115.345 81.08 115.356C80.5661 115.353 80.7915 115.398 80.1233 115.381C80.0269 115.392 79.9315 115.391 79.9477 115.421C79.5686 115.379 79.7601 115.381 79.3052 115.343C79.3211 115.359 79.4512 115.397 79.4651 115.432C79.4363 115.432 79.4073 115.432 79.3786 115.431C78.8228 115.383 78.7887 115.442 78.3986 115.387C78.445 115.387 78.4999 115.38 78.611 115.389C78.5593 115.335 78.2656 115.385 78.0375 115.366L78.0616 115.322C77.8505 115.321 77.485 115.336 77.2217 115.292L77.2828 115.273C76.7433 115.27 76.1148 115.22 75.6566 115.196L75.4127 115.146C74.7794 115.121 76.0375 115.219 75.5708 115.242C75.5084 115.155 75.2427 115.239 74.886 115.173C74.7197 115.126 75.2512 115.19 75.0667 115.136C74.9836 115.17 74.8742 115.13 74.6824 115.124C74.7274 115.092 74.2836 115.076 74.4067 115.045L73.7277 115.039C73.6223 115.004 73.4271 114.985 73.283 114.973C73.4471 114.993 73.4405 115.004 73.4218 115.017C73.2425 114.994 73.0654 114.97 72.8896 114.946C72.9442 114.93 72.6204 114.832 72.6057 114.813C72.4052 114.794 72.2461 114.786 72.0985 114.779C71.9513 114.77 71.8158 114.762 71.6623 114.746L71.6737 114.705C71.6146 114.719 71.3653 114.693 71.3732 114.711C71.304 114.7 71.2357 114.688 71.1671 114.676C71.1286 114.664 71.0775 114.653 70.9909 114.645C70.9819 114.643 70.9725 114.642 70.9634 114.64C70.9994 114.604 71.1621 114.625 71.1711 114.59L70.92 114.569C71.001 114.568 70.7755 114.527 70.8539 114.524C70.3888 114.488 70.2224 114.384 69.7478 114.312C69.834 114.334 69.9207 114.354 70.0075 114.373C70.0006 114.396 69.8508 114.367 69.7369 114.348C69.6163 114.287 69.5391 114.275 69.3017 114.208C69.091 114.181 68.9648 114.204 68.6854 114.137C68.7555 114.106 68.2277 114.002 68.1852 113.951C68.1138 113.984 67.6421 113.836 67.5973 113.849C67.4465 113.82 67.2446 113.761 67.2523 113.738C67.2742 113.742 67.3193 113.751 67.366 113.759L67.2189 113.719C67.2343 113.718 67.23 113.712 67.2476 113.716C67.1164 113.68 67.1061 113.713 66.9413 113.646C66.9458 113.634 67.0386 113.658 67.1153 113.674C66.7661 113.573 66.4834 113.57 66.2037 113.448C66.139 113.455 65.7376 113.331 65.8094 113.406C65.7059 113.356 65.7592 113.331 65.4639 113.248C65.2822 113.237 65.1428 113.128 64.9127 113.082C65.2203 113.137 64.9179 113.071 65.188 113.115C64.996 113.032 64.682 112.995 64.343 112.865C64.3109 112.843 64.3165 112.832 64.2842 112.811C64.1522 112.779 63.9929 112.763 63.8824 112.683L63.8877 112.717C63.6617 112.617 63.3348 112.507 63.1009 112.378L62.7919 112.316C62.455 112.122 61.976 111.958 61.6532 111.858C61.5025 111.787 61.4185 111.744 61.4086 111.738L61.3686 111.814C61.3385 111.862 61.3142 111.899 61.3099 111.895C61.3212 111.864 61.347 111.797 61.3827 111.713C61.3506 111.77 61.3167 111.831 61.2825 111.891C61.2529 111.942 61.2232 111.993 61.1952 112.042C61.1713 112.085 61.1349 112.154 61.112 112.205C61.1005 112.231 61.0899 112.255 61.085 112.275C61.1116 112.285 61.1364 112.292 61.1586 112.297C61.2821 112.351 61.3115 112.375 61.3386 112.4C61.3654 112.425 61.3843 112.449 61.4603 112.489C61.907 112.634 62.7039 113.087 62.8751 113.041C62.7898 113.008 62.6692 112.954 62.5302 112.892C62.678 112.953 62.8372 113.017 63.0074 113.084L62.969 113.111C63.53 113.4 64.1175 113.448 64.551 113.69C64.7902 113.76 65.097 113.849 65.3141 113.892C65.3409 113.901 65.367 113.909 65.3941 113.918L65.3853 113.922C65.4106 113.928 65.4459 113.937 65.485 113.946C65.6786 114.006 65.8793 114.066 66.085 114.126C66.1268 114.139 66.1686 114.151 66.2094 114.163C66.4902 114.244 66.7818 114.325 67.0843 114.405C67.4031 114.527 67.6156 114.543 67.8183 114.594C67.8299 114.596 67.8414 114.599 67.853 114.602C67.9246 114.622 67.9959 114.647 68.0712 114.684L68.0342 114.677C68.1057 114.703 68.2411 114.72 68.3551 114.741C68.3314 114.728 68.2723 114.709 68.2143 114.69C68.4665 114.75 68.7241 114.81 68.9889 114.868C69.0047 114.877 69.0219 114.886 69.0452 114.895C69.0945 114.899 69.1121 114.899 69.1134 114.896C69.6091 115.004 70.1253 115.108 70.663 115.207C73.1409 115.662 76.285 116.031 79.9651 116.031C80.0868 116.031 80.2115 116.029 80.3344 116.028C80.2618 116.04 80.2178 116.052 80.2379 116.065C80.3708 116.06 80.5656 116.025 80.7626 116.034C80.6788 116.06 80.4674 116.059 80.3675 116.093C80.6864 116.117 80.5688 116.071 80.9185 116.077L80.9012 116.118L81.2383 116.097C81.1123 116.043 81.1759 116.033 81.0946 116.018C81.2431 116.015 81.3916 116.012 81.5415 116.007C81.687 116.01 81.5027 116.04 81.5223 116.044L81.6722 116.004C81.753 116.002 81.8355 115.998 81.9167 115.995L81.8347 116.005L81.8616 116.021L81.9374 115.994C82.0926 115.989 82.2482 115.983 82.4049 115.976C82.3995 115.977 82.3948 115.978 82.3891 115.979C82.4069 115.978 82.4229 115.976 82.4397 115.975C82.4597 115.974 82.4791 115.973 82.4991 115.972C82.5005 115.973 82.5011 115.973 82.5027 115.973C82.6255 115.985 82.5127 116.03 82.3149 116.026C82.1091 116.044 82.1255 116.003 81.948 116.036L82.1943 116.059C82.4971 116.044 82.6745 115.984 82.799 115.957C83.044 115.945 83.2898 115.931 83.5386 115.915C83.4567 115.963 83.0274 115.933 82.9755 115.977C83.2624 115.959 83.4937 115.986 83.4334 116.02L83.7497 115.981C83.8444 115.955 83.7377 115.927 83.591 115.912C87.2329 115.675 91.283 115.06 95.6444 113.852L95.4866 113.285C95.3458 113.324 95.2064 113.36 95.0662 113.398C95.195 113.359 95.3429 113.315 95.4957 113.269C95.5619 113.486 95.6113 113.65 95.6699 113.866C95.608 113.882 95.5484 113.897 95.4919 113.911C95.4416 113.922 95.3942 113.932 95.3501 113.942C94.9868 114.027 94.7244 114.116 94.3295 114.226C93.0194 114.545 91.6518 114.876 90.2194 115.109L90.0263 115.197C89.9528 115.183 89.6866 115.256 89.7213 115.215C89.7999 115.208 89.8739 115.19 89.9673 115.173C89.6539 115.181 89.1572 115.318 88.7863 115.356C88.8299 115.359 88.8974 115.395 88.7878 115.421C88.8074 115.357 88.3528 115.491 88.2344 115.438C87.8639 115.473 88.2283 115.492 87.8428 115.536C87.8072 115.576 88.2136 115.501 88.2868 115.518C88.1708 115.563 87.9371 115.555 87.9602 115.588C88.5808 115.522 89.7107 115.267 90.6409 115.069L90.5484 115.12C90.7853 115.063 91.0971 114.997 91.3985 114.942C91.699 114.882 91.9896 114.834 92.1858 114.82C92.0904 114.812 92.8915 114.683 92.8043 114.627C92.9281 114.616 92.9639 114.605 93.1362 114.571L93.1776 114.539C93.4204 114.483 93.3902 114.529 93.6669 114.457C93.4785 114.472 93.6781 114.414 93.7526 114.369C94.078 114.322 94.4569 114.263 94.7463 114.214C94.7218 114.21 94.6928 114.207 94.5932 114.219C94.7876 114.179 94.747 114.159 94.7953 114.135C94.9789 114.085 94.9704 114.128 94.9668 114.15C95.1295 114.112 95.2447 114.067 95.3488 114.025C95.4008 114.004 95.45 113.984 95.5009 113.966C95.571 113.943 95.6461 113.922 95.7335 113.902C95.7302 113.886 95.7265 113.869 95.7227 113.852ZM92.1859 114.067C92.2305 114.067 92.3311 114.056 92.1884 114.1C92.5605 114.012 92.3576 113.948 92.8601 113.86C92.4277 114.005 92.9649 113.883 92.9162 113.937C92.5696 114.017 92.2245 114.094 91.8822 114.167C91.9925 114.134 92.0969 114.101 92.1859 114.067ZM90.4452 114.399L90.3886 114.464C90.3033 114.48 90.2175 114.497 90.1325 114.512C90.1678 114.482 90.0986 114.468 90.4452 114.399ZM89.0804 114.658C89.024 114.679 89.0101 114.696 88.9782 114.71C88.8241 114.735 88.6709 114.759 88.5176 114.782C88.6882 114.757 88.8868 114.698 89.0804 114.658ZM84.8175 115.218C84.9637 115.218 85.1997 115.172 85.1934 115.192C85.0541 115.205 84.9143 115.219 84.776 115.231C84.7962 115.226 84.8122 115.221 84.8175 115.218ZM83.065 115.351C82.9831 115.355 82.9017 115.359 82.8202 115.363C82.907 115.351 82.9931 115.348 83.065 115.351ZM81.7501 115.378C81.9731 115.355 82.1879 115.34 82.4346 115.369L82.6 115.329C82.5477 115.342 82.5885 115.358 82.6047 115.374C82.0765 115.399 81.5563 115.416 81.0443 115.425L81.0188 115.415C81.296 115.42 81.5273 115.399 81.7501 115.378ZM66.4038 113.585C66.4942 113.605 66.5858 113.629 66.6838 113.664C66.5894 113.638 66.4958 113.611 66.4038 113.585ZM77.1901 115.358C77.1775 115.357 77.1652 115.356 77.1526 115.356C77.159 115.355 77.1657 115.354 77.1743 115.353C77.1796 115.355 77.1848 115.356 77.1901 115.358ZM76.6018 115.314C76.6858 115.317 76.7622 115.325 76.8232 115.336C76.7462 115.331 76.6681 115.327 76.5915 115.322C76.5835 115.319 76.5841 115.316 76.6018 115.314ZM76.5066 115.308C76.5094 115.311 76.5145 115.314 76.5193 115.317C76.5019 115.316 76.4849 115.315 76.4674 115.314C76.4813 115.312 76.4961 115.311 76.5066 115.308ZM70.4382 114.542C70.321 114.52 70.2058 114.497 70.0906 114.474C70.1762 114.475 70.2699 114.482 70.4566 114.535L70.4382 114.542ZM68.8434 114.207C68.8201 114.154 69.2393 114.217 69.5017 114.269C69.5912 114.301 69.5677 114.316 69.5637 114.328C69.2833 114.248 69.1874 114.257 69.054 114.257C68.7326 114.185 68.4205 114.113 68.1178 114.039C68.3308 114.077 68.6192 114.125 68.8434 114.207ZM67.8247 113.95C67.8221 113.957 67.8282 113.964 67.8385 113.97C67.8252 113.967 67.8125 113.964 67.7992 113.96C67.7886 113.951 67.7929 113.947 67.8247 113.95ZM64.0415 112.793C64.5615 112.982 64.469 112.91 64.9653 113.058C65.1963 113.194 64.4746 112.898 64.8922 113.083C64.6925 113.036 64.5299 112.987 64.3899 112.95C64.3193 112.926 64.2497 112.901 64.1816 112.877C64.1847 112.878 64.1879 112.879 64.191 112.88C64.1368 112.858 63.8342 112.741 64.0415 112.793ZM63.1051 112.457C63.2847 112.533 63.3685 112.571 63.4215 112.6C63.2752 112.544 63.1374 112.49 63.0063 112.439C63.021 112.437 63.0489 112.441 63.1051 112.457Z" fill="#E2EAFF"/>
<path d="M95.3709 113.151C95.2795 113.178 95.261 113.185 95.202 113.199C95.1982 113.206 95.2074 113.208 95.2239 113.207C95.2465 113.198 95.2674 113.189 95.2857 113.182C95.3199 113.169 95.349 113.159 95.3709 113.151Z" fill="#E2EAFF"/>
<path d="M94.1593 113.507C94.1576 113.506 94.1514 113.506 94.1502 113.504C94.1135 113.517 94.1262 113.515 94.1593 113.507Z" fill="#E2EAFF"/>
<path d="M95.2988 113.953C95.3139 113.95 95.3336 113.946 95.3501 113.942C95.3724 113.937 95.3913 113.932 95.4138 113.927L95.2988 113.953Z" fill="#E2EAFF"/>
<path d="M95.0497 114.168C94.9721 114.178 94.8664 114.194 94.7471 114.214C94.7828 114.219 94.813 114.223 95.0497 114.168Z" fill="#E2EAFF"/>
<path d="M92.6751 114.714C92.6029 114.737 92.6472 114.736 92.5977 114.758C92.7497 114.725 92.7984 114.703 92.6751 114.714Z" fill="#E2EAFF"/>
<path d="M94.5097 113.394L94.4043 113.43L94.7999 113.309L94.5097 113.394Z" fill="#E2EAFF"/>
<path d="M92.4092 113.947C92.4561 113.933 92.4977 113.919 92.5216 113.904L92.4092 113.947Z" fill="#E2EAFF"/>
<path d="M88.1611 114.786C88.2222 114.774 88.2827 114.759 88.3433 114.744L88.2767 114.74C88.2383 114.757 88.1997 114.772 88.1611 114.786Z" fill="#E2EAFF"/>
<path d="M85.2929 115.102L84.9941 115.143L85.1903 115.133C85.1843 115.122 85.2559 115.109 85.2929 115.102Z" fill="#E2EAFF"/>
<path d="M73.2834 114.972C73.2404 114.967 73.1896 114.96 73.1216 114.951C73.0656 114.953 73.154 114.959 73.2834 114.972Z" fill="#E2EAFF"/>
<path d="M83.4895 115.261L83.334 115.271L83.3622 115.286L83.4895 115.261Z" fill="#E2EAFF"/>
<path d="M71.677 114.685L71.6729 114.702C71.6861 114.699 71.6926 114.694 71.677 114.685Z" fill="#E2EAFF"/>
<path d="M61.6482 111.79C61.6101 111.767 61.58 111.746 61.5156 111.708C61.5262 111.724 61.5355 111.739 61.5432 111.753C61.6297 111.79 61.6965 111.82 61.7606 111.861L61.6482 111.79Z" fill="#E2EAFF"/>
<path d="M61.5508 111.764L61.5445 111.753C61.4919 111.731 61.4405 111.709 61.3928 111.689C61.3883 111.697 61.3853 111.706 61.3818 111.713C61.3859 111.706 61.3895 111.698 61.3936 111.692C61.4492 111.721 61.5013 111.745 61.5508 111.764Z" fill="#E2EAFF"/>
<path d="M65.832 114.087C65.7619 114.058 65.6168 114.009 65.5576 114.001C65.6125 114.021 65.72 114.06 65.832 114.087Z" fill="#E2EAFF"/>
<path d="M65.7129 114.027L65.8579 114.074L65.7337 114.025L65.7129 114.027Z" fill="#E2EAFF"/>
<path d="M116.17 92.4673C114.78 90.7829 112.014 83.7588 111.897 83.4608L112.446 83.2458C112.475 83.318 115.294 90.4803 116.625 92.0932L116.17 92.4673Z" fill="#1F3C88"/>
<path d="M116.152 92.4465L116.211 92.4259L116.187 92.3679L116.152 92.4465Z" fill="#1F3C88"/>
<path d="M116.505 92.4398L116.602 92.3279C116.496 92.3012 116.481 92.2735 116.454 92.2634C116.427 92.2536 116.401 92.2501 116.302 92.2502C116.278 92.3063 116.223 92.4296 116.279 92.4723C116.305 92.442 116.307 92.3536 116.365 92.3333C116.378 92.3881 116.326 92.4228 116.346 92.4926C116.452 92.4748 116.364 92.4216 116.459 92.3749L116.505 92.4398Z" fill="#1F3C88"/>
<path d="M116.487 92.2268C116.508 92.2499 116.524 92.2753 116.547 92.2889C116.532 92.2613 116.538 92.2082 116.487 92.2268Z" fill="#1F3C88"/>
<path d="M116.519 92.1793C116.576 92.1408 116.589 92.2064 116.602 92.2081C116.584 92.173 116.56 92.1432 116.53 92.1189C116.528 92.137 116.525 92.1572 116.519 92.1793Z" fill="#1F3C88"/>
<path d="M116.557 91.9911C116.548 91.9832 116.539 91.9761 116.529 91.9695C116.515 91.981 116.536 91.984 116.557 91.9911Z" fill="#1F3C88"/>
<path d="M116.468 91.8918C116.447 91.9291 116.484 91.9396 116.528 91.9691C116.53 91.9678 116.531 91.9668 116.534 91.9645C116.545 91.925 116.652 91.9341 116.675 92.0021C116.742 92.0675 116.645 92.0553 116.736 92.1119C116.765 92.0936 116.762 92.0676 116.772 92.0398C116.724 91.9827 116.657 91.9434 116.6 91.9236C116.542 91.903 116.493 91.8991 116.468 91.8918Z" fill="#1F3C88"/>
<path d="M116.558 91.991C116.567 91.999 116.576 92.0076 116.583 92.0172C116.589 92.0044 116.574 91.9962 116.558 91.991Z" fill="#1F3C88"/>
<path d="M116.616 92.0959L116.612 92.1209L116.663 92.1237C116.649 92.1136 116.633 92.1045 116.616 92.0959Z" fill="#1F3C88"/>
<path d="M116.339 91.7222C116.437 91.6752 116.418 91.8521 116.499 91.8191C116.444 91.7515 116.473 91.655 116.534 91.6356C116.506 91.6184 116.482 91.5968 116.456 91.5775C116.405 91.5743 116.356 91.652 116.339 91.7222Z" fill="#1F3C88"/>
<path d="M116.476 91.4173C116.466 91.4172 116.457 91.4147 116.45 91.4099C116.459 91.4155 116.468 91.4197 116.476 91.4173Z" fill="#1F3C88"/>
<path d="M116.074 91.117C116.141 91.1626 116.209 91.2065 116.279 91.2475C116.238 91.2488 116.212 91.2731 116.176 91.2377C116.213 91.3267 116.28 91.301 116.312 91.3733C116.237 91.4471 116.232 91.2587 116.178 91.3448C116.21 91.3908 116.258 91.4599 116.355 91.4519L116.343 91.5641L116.422 91.4782C116.43 91.4311 116.309 91.4642 116.364 91.4042C116.399 91.3694 116.425 91.3948 116.448 91.4097C116.399 91.3736 116.442 91.2332 116.37 91.1451C116.297 91.0493 116.161 91.1598 116.074 91.117Z" fill="#1F3C88"/>
<path d="M116.177 91.0487L116.209 91.0144L116.162 91.0528L116.177 91.0487Z" fill="#1F3C88"/>
<path d="M115.936 90.9136L116.052 90.9783C116.05 90.9936 116.032 91.0112 116.019 91.0282C116.038 91.0116 116.092 91.0166 116.108 91.0017C116.171 90.9068 116.013 90.8974 115.968 90.8529C115.93 90.6909 116.019 90.8328 116.073 90.7323C116.092 90.7725 116.071 90.7858 116.096 90.843C116.149 90.7027 115.997 90.6471 115.942 90.6055C115.942 90.626 115.916 90.6449 115.941 90.671L115.88 90.63C115.842 90.7267 115.851 90.7879 115.936 90.9136Z" fill="#1F3C88"/>
<path d="M116.034 91.0905C116.007 91.0572 116.006 91.0395 116.017 91.0295C115.998 91.0526 115.988 91.075 116.034 91.0905Z" fill="#1F3C88"/>
<path d="M115.922 90.5769C115.92 90.5858 115.927 90.5944 115.94 90.604C115.94 90.5955 115.936 90.5868 115.922 90.5769Z" fill="#1F3C88"/>
<path d="M115.847 90.6902L115.819 90.6155L115.791 90.6656C115.801 90.6726 115.827 90.7034 115.847 90.6902Z" fill="#1F3C88"/>
<path d="M114.664 87.8896C114.629 87.9134 114.623 87.9481 114.656 88.0008C114.602 88.0167 114.579 87.94 114.535 87.9189C114.536 88.0073 114.476 87.9439 114.436 87.9846C114.468 88.0694 114.55 88.0766 114.577 88.171C114.561 88.1731 114.539 88.1846 114.527 88.2039C114.607 88.296 114.735 88.4548 114.74 88.5781C114.767 88.6862 114.826 88.7491 114.899 88.8477C115.04 89.2202 115.272 89.5669 115.415 89.9725L115.537 89.9787C115.499 90.0207 115.584 90.0685 115.516 90.089C115.518 90.0624 115.497 90.0477 115.483 90.0235C115.441 90.1468 115.602 90.2348 115.622 90.3472C115.633 90.3273 115.707 90.2686 115.737 90.2903C115.627 90.3376 115.798 90.4037 115.692 90.4957C115.712 90.6086 115.786 90.4509 115.821 90.5607C115.889 90.5385 115.801 90.4481 115.839 90.4053C115.905 90.4103 115.865 90.5074 115.928 90.4683C115.877 90.2904 115.587 90.0615 115.43 89.8267L115.502 89.8239C115.397 89.7169 115.293 89.51 115.34 89.361C115.295 89.4125 115.278 89.1578 115.159 89.2379C115.173 89.1912 115.164 89.1835 115.153 89.1317L115.106 89.1385C115.076 89.0717 115.144 89.0525 115.104 88.9787C115.072 89.0544 115.03 89.007 114.973 89.0065C114.994 88.8903 115.001 88.7635 115.015 88.6626C115 88.6769 114.983 88.6935 114.971 88.7311C114.967 88.6692 114.917 88.7032 114.892 88.6979C114.865 88.6485 114.94 88.6204 114.977 88.6059C114.955 88.5029 114.799 88.5241 114.813 88.4328L114.767 88.4838C114.709 88.3935 114.735 88.2837 114.668 88.1857C114.723 88.0987 114.776 88.2424 114.83 88.271C114.836 88.2418 114.82 88.1941 114.839 88.1677C114.778 88.1404 114.689 88.0892 114.625 88.0495C114.741 88.0619 114.675 87.929 114.664 87.8896Z" fill="#1F3C88"/>
<path d="M114.839 88.1683C114.857 88.176 114.873 88.1823 114.884 88.1849C114.875 88.1767 114.865 88.1693 114.862 88.1519C114.851 88.155 114.844 88.1608 114.839 88.1683Z" fill="#1F3C88"/>
<path d="M114.663 87.8888C114.666 87.8873 114.668 87.8847 114.671 87.8833C114.661 87.8758 114.661 87.8799 114.663 87.8888Z" fill="#1F3C88"/>
<path d="M114.741 88.5938C114.741 88.5889 114.74 88.5833 114.74 88.5781C114.738 88.5716 114.735 88.5668 114.734 88.5601L114.741 88.5938Z" fill="#1F3C88"/>
<path d="M115.039 88.5535C115.028 88.5834 115.021 88.6214 115.015 88.6634C115.037 88.6423 115.054 88.6253 115.039 88.5535Z" fill="#1F3C88"/>
<path d="M115.277 89.2284C115.297 89.2433 115.308 89.2239 115.333 89.229C115.316 89.1874 115.292 89.1824 115.277 89.2284Z" fill="#1F3C88"/>
<path d="M114.802 88.0455L114.747 87.9718L114.718 87.9485L114.802 88.0455Z" fill="#1F3C88"/>
<path d="M113.771 86.5265C113.733 86.6284 113.821 86.7163 113.846 86.8112C113.952 86.9588 114.006 86.7664 114.081 86.9176L113.927 86.9528C114.002 87.1042 114.07 87.3361 114.253 87.4119C114.241 87.4313 114.231 87.4678 114.193 87.4368C114.245 87.5371 114.419 87.4007 114.433 87.5588C114.288 87.4696 114.367 87.6378 114.264 87.6416L114.245 87.6261C114.293 87.7092 114.391 87.8038 114.41 87.8637C114.448 87.8499 114.481 87.775 114.52 87.8496C114.513 87.8153 114.56 87.8094 114.598 87.7958C114.522 87.7345 114.528 87.6799 114.459 87.6532C114.486 87.5877 114.487 87.6764 114.515 87.6109L114.442 87.5667C114.433 87.5147 114.512 87.5939 114.489 87.5162C114.457 87.5201 114.401 87.4742 114.382 87.414L114.405 87.4234C114.367 87.3878 114.364 87.3153 114.294 87.3716L114.349 87.2853L114.299 87.3179C114.268 87.1885 114.376 87.0872 114.241 86.9612C114.241 87.0057 114.197 86.9842 114.178 86.9688C114.169 87.0499 114.254 87.0307 114.288 87.0889C114.239 87.1216 114.128 87.0455 114.128 87.1341C114.156 87.0248 114.053 86.9828 114.172 86.8898C114.138 86.7875 114.056 86.7785 114.044 86.6645L114.065 86.659C113.968 86.6788 114.07 86.56 113.946 86.525L113.949 86.5866C113.912 86.5997 113.899 86.5748 113.877 86.5415C113.893 86.5395 113.893 86.5395 113.906 86.5203C113.837 86.5373 113.777 86.4285 113.752 86.4224C113.761 86.4749 113.84 86.5102 113.881 86.5589C113.83 86.5466 113.78 86.5784 113.771 86.5265Z" fill="#1F3C88"/>
<path d="M114.452 87.4417L114.406 87.4233C114.418 87.4341 114.432 87.4418 114.452 87.4417Z" fill="#1F3C88"/>
<path d="M113.694 86.0294C113.681 85.9598 113.756 86.0228 113.76 85.9516C113.687 85.9063 113.699 86.0643 113.605 86.0297C113.628 85.9745 113.534 85.9399 113.521 85.9145C113.572 85.9269 113.651 85.874 113.663 85.8554C113.629 85.8411 113.648 85.7685 113.633 85.7257C113.623 85.8506 113.564 85.6533 113.545 85.7704C113.491 85.7849 113.413 85.704 113.435 85.6486C113.473 85.6361 113.479 85.6709 113.492 85.6963C113.57 85.688 113.502 85.6155 113.559 85.5743C113.422 85.5172 113.297 85.2014 113.179 85.3549C113.163 85.4011 113.213 85.4137 113.234 85.4475C113.223 85.3328 113.316 85.4124 113.348 85.4094C113.341 85.4631 113.421 85.5172 113.359 85.5233L113.272 85.4787C113.334 85.7121 113.473 86.0084 113.604 86.252L113.56 86.1413C113.608 86.1362 113.632 86.1868 113.669 86.2184L113.749 86.1216C113.755 86.1563 113.783 86.18 113.745 86.1928C113.805 86.2129 113.824 86.1841 113.849 86.1462C113.902 86.2199 113.867 86.2507 113.961 86.2848C113.987 86.1136 113.843 86.1998 113.85 86.0134L113.694 86.0294Z" fill="#1F3C88"/>
<path d="M113.876 86.3024L113.81 86.2919L113.857 86.3314L113.876 86.3024Z" fill="#1F3C88"/>
<path d="M113.628 86.3472C113.65 86.3359 113.669 86.3517 113.691 86.3403C113.678 86.27 113.65 86.2911 113.628 86.3472Z" fill="#1F3C88"/>
<path d="M113.529 85.4882L113.477 85.4138L113.479 85.4755C113.501 85.4645 113.519 85.4802 113.529 85.4882Z" fill="#1F3C88"/>
<path d="M113.021 85.0242C113.078 85.1342 113.147 85.1625 113.148 85.3132C113.242 85.3482 113.262 85.2313 113.335 85.233C113.323 85.163 113.212 85.2182 113.163 85.161C113.21 85.1126 113.109 85.0698 113.097 85.0009C113.076 85.0183 113.049 85.0295 113.021 85.0242Z" fill="#1F3C88"/>
<path d="M113.08 84.5405C113.059 84.488 112.992 84.454 113.003 84.4014C113.042 84.3922 113.068 84.4178 113.072 84.4532C113.146 84.399 113.035 84.401 113.068 84.322C113.06 84.3306 113.055 84.3567 113.03 84.3481C112.993 84.2001 112.93 84.2968 112.903 84.0955C112.87 84.0782 112.86 84.0521 112.807 84.0788C112.834 83.9471 112.855 83.9997 112.866 83.8507C112.835 83.8685 112.778 83.9392 112.709 83.966C112.735 83.7508 112.623 83.7915 112.65 83.65C112.659 83.6612 112.682 83.6692 112.685 83.7031C112.776 83.649 112.631 83.618 112.623 83.5435L112.707 83.5155C112.685 83.4781 112.648 83.4345 112.62 83.3875C112.592 83.3395 112.574 83.2874 112.576 83.2058C112.589 83.1984 112.602 83.1918 112.616 83.1858C112.583 83.1483 112.554 83.103 112.528 83.0576C112.435 83.1057 112.359 83.1385 112.267 83.1776C112.224 83.1961 112.168 83.2197 112.142 83.2329C112.111 83.25 112.081 83.2664 112.052 83.282C112.009 83.2794 111.956 83.2804 111.903 83.2815C111.713 83.4284 112.18 83.2062 112.087 83.3844C112.027 83.3207 111.995 83.3474 111.984 83.3794C111.967 83.4132 111.973 83.4518 111.882 83.4524C111.86 83.4526 111.851 83.4494 111.837 83.4373C111.827 83.4267 111.842 83.421 111.848 83.4115C111.865 83.3947 111.886 83.3748 111.809 83.3649C111.842 83.3969 111.834 83.4064 111.811 83.4139C111.793 83.4146 111.8 83.4273 111.804 83.44C111.808 83.4528 111.815 83.468 111.829 83.4866C111.726 83.4411 111.872 83.6268 111.753 83.5661C111.846 83.6677 111.929 83.7439 111.999 83.7878C111.969 83.8342 111.997 83.8852 112.024 83.9205C111.984 83.8203 112.144 83.9043 112.133 83.779C112.106 83.7366 112.084 83.7066 112.062 83.6687C112.038 83.6299 112.014 83.5841 111.992 83.5363L111.976 83.5003C111.97 83.4928 111.978 83.4914 111.984 83.489L112.001 83.4818C112.025 83.4723 112.049 83.4634 112.074 83.4552C112.099 83.4466 112.12 83.4409 112.141 83.4363C112.165 83.4315 112.188 83.4267 112.211 83.4221C112.204 83.3668 112.232 83.3561 112.263 83.3471C112.292 83.3385 112.321 83.333 112.349 83.2744C112.345 83.313 112.35 83.3431 112.342 83.3836C112.394 83.3507 112.399 83.3327 112.389 83.3186C112.38 83.3039 112.353 83.2941 112.376 83.2642C112.409 83.2435 112.432 83.2483 112.437 83.2682C112.433 83.3101 112.421 83.3484 112.408 83.3698C112.433 83.4487 112.429 83.3414 112.484 83.322C112.466 83.3841 112.445 83.4393 112.422 83.4885C112.437 83.5115 112.452 83.5355 112.467 83.5602C112.484 83.5862 112.501 83.6128 112.524 83.656C112.568 83.7345 112.614 83.8168 112.657 83.9015C112.742 84.0708 112.819 84.2496 112.855 84.4289L112.914 84.3755C112.937 84.5423 113.171 84.5649 113.078 84.7592L113.156 84.7802C113.112 84.7694 113.063 84.8491 113 84.8289C113.04 84.8603 113.032 84.9147 113.071 84.9483L113.073 84.8595C113.153 84.888 113.141 84.9608 113.097 84.9997C113.213 85.0833 113.188 84.8835 113.236 84.8348C113.043 84.7293 113.296 84.6243 113.18 84.4944C113.1 84.4175 113.119 84.5313 113.08 84.5405Z" fill="#1F3C88"/>
<path d="M112.972 84.814C112.981 84.821 112.99 84.8256 112.998 84.8286C112.991 84.8226 112.982 84.8177 112.972 84.814Z" fill="#1F3C88"/>
<path d="M112.024 83.9205C112.029 83.9326 112.036 83.9462 112.046 83.9639C112.07 83.972 112.048 83.9526 112.024 83.9205Z" fill="#1F3C88"/>
<path d="M113.096 85.0017L113.097 85.0005L113.095 84.9994L113.096 85.0017Z" fill="#1F3C88"/>
<path d="M113.296 85.0071L113.281 84.9636L113.252 84.9842L113.296 85.0071Z" fill="#1F3C88"/>
<path d="M112.117 84.4013L112.153 84.3873C112.14 84.3881 112.128 84.3911 112.117 84.4013Z" fill="#1F3C88"/>
<path d="M112.59 85.6145L112.582 85.5887C112.579 85.599 112.584 85.6073 112.59 85.6145Z" fill="#1F3C88"/>
<path d="M113.911 88.4518C113.968 88.5194 114.036 88.6125 114.12 88.6431L114.082 88.6539C114.118 88.6871 114.237 88.7947 114.261 88.6792L114.22 88.6726C114.123 88.5992 114.247 88.5745 114.235 88.4877C114.176 88.4035 114.017 88.4116 114.012 88.3154C113.991 88.2816 114.03 88.2708 114.062 88.2692C114.035 88.1828 113.916 88.1974 113.878 88.1466C114.139 88.0028 113.691 87.9268 113.81 87.728C113.754 87.6605 113.732 87.5471 113.634 87.4724C113.725 87.495 113.599 87.3775 113.685 87.3654C113.515 87.4065 113.633 87.0512 113.426 87.1203C113.424 86.9623 113.41 87.1206 113.39 86.9458C113.412 86.9364 113.424 86.9623 113.432 86.9708C113.447 86.8918 113.306 86.9135 113.375 86.8238C113.337 86.6937 113.312 86.8261 113.227 86.7757C113.194 86.6367 113.237 86.6613 113.29 86.5546C113.189 86.5838 113.202 86.4874 113.126 86.4452C113.128 86.4629 113.147 86.5589 113.086 86.5166C113.038 86.36 112.972 86.4232 112.887 86.2934C112.962 86.1777 112.949 86.4324 112.98 86.2736C113.067 86.3418 113.091 86.4112 113.188 86.4262C113.143 86.3045 113.064 86.1665 112.965 86.0549C112.948 85.9765 113.03 86.0709 113.016 86.0099C113.007 85.8612 112.825 85.8561 112.828 85.7333L112.891 85.7319C112.793 85.6992 112.812 85.4968 112.722 85.3934C112.7 85.4202 112.686 85.4378 112.661 85.4296C112.799 85.3748 112.521 85.292 112.568 85.1331C112.486 85.1782 112.389 85.0831 112.35 85.0135C112.363 84.978 112.401 84.9687 112.424 84.9597C112.422 85.1002 112.567 85.0364 112.646 85.1143C112.569 85.0542 112.562 84.905 112.471 84.8624L112.55 84.8614C112.516 84.7481 112.356 84.8291 112.375 84.6882L112.43 84.6792C112.329 84.4521 112.309 84.1461 112.122 84.0066C112.074 84.0072 112.014 84.1393 111.984 84.1569C112.064 84.2529 112.163 84.2871 112.233 84.3566L112.154 84.3872C112.216 84.3845 112.289 84.4726 112.308 84.3995C112.377 84.4516 112.26 84.4795 112.337 84.5397C112.252 84.5666 112.224 84.5234 112.156 84.5504L112.224 84.6026C112.183 84.5939 112.213 84.6549 112.172 84.6469C112.323 84.7334 112.206 84.8395 112.304 84.9525L112.289 84.8737C112.335 84.8556 112.347 84.8992 112.374 84.9253C112.324 84.9872 112.342 85.0049 112.341 85.0837C112.401 85.1268 112.496 85.1253 112.528 85.2038C112.434 85.2228 112.534 85.3532 112.467 85.398C112.56 85.3791 112.561 85.5366 112.616 85.5267C112.651 85.5612 112.665 85.6222 112.619 85.641C112.614 85.636 112.601 85.6272 112.591 85.6157L112.605 85.6587C112.594 85.6588 112.587 85.6635 112.583 85.6593C112.597 85.6972 112.66 85.6714 112.637 85.7373C112.614 85.7465 112.604 85.7204 112.586 85.7026C112.613 85.8081 112.789 85.8215 112.745 85.9368C112.793 85.9361 112.844 86.049 112.926 85.9859C112.906 86.0302 112.829 86.0489 112.877 86.1268C112.974 86.1422 112.888 86.2318 112.965 86.2743C112.848 86.2243 112.942 86.2834 112.833 86.2424C112.825 86.3127 112.965 86.3531 112.993 86.4578C112.979 86.4757 112.956 86.485 112.942 86.503C112.985 86.5282 113.066 86.5435 113.017 86.6065L113.069 86.5788C113.07 86.6576 113.127 86.744 113.098 86.8415L113.239 86.8809C113.178 87.0406 113.342 87.1499 113.475 87.1976C113.488 87.241 113.496 87.3108 113.473 87.3206C113.461 87.3146 113.438 87.3052 113.416 87.2923C113.438 87.3546 113.412 87.4546 113.513 87.4511C113.566 87.5017 113.474 87.5225 113.48 87.5749C113.657 87.647 113.555 87.985 113.757 87.9409C113.735 87.8895 113.729 87.7756 113.677 87.6813C113.711 87.6973 113.738 87.661 113.758 87.6955C113.81 87.7895 113.764 87.8703 113.839 87.9547L113.716 87.9956C113.671 88.2176 114.018 88.2452 113.911 88.4518Z" fill="#1F3C88"/>
<path d="M113.355 87.1934L113.326 87.2917L113.374 87.2619C113.356 87.2433 113.346 87.2208 113.355 87.1934Z" fill="#1F3C88"/>
<path d="M113.372 87.2611C113.384 87.2737 113.399 87.2838 113.415 87.2928C113.409 87.2765 113.4 87.2621 113.384 87.2534L113.372 87.2611Z" fill="#1F3C88"/>
<path d="M114.06 88.7251C114.062 88.743 114.067 88.7778 114.094 88.8027C114.098 88.776 114.084 88.7327 114.06 88.7251Z" fill="#1F3C88"/>
<path d="M114.132 88.7919L114.134 88.7476L114.118 88.7487L114.132 88.7919Z" fill="#1F3C88"/>
<path d="M115.234 90.7867L115.361 90.8605C115.336 90.8986 115.444 91.0004 115.362 90.9927C115.48 91.0126 115.48 91.1959 115.568 91.0791C115.457 90.9345 115.367 90.7361 115.261 90.5391C115.155 90.3424 115.044 90.1396 114.897 89.9763L114.975 90.0132C114.782 89.8631 114.947 89.6929 114.679 89.6259L114.787 89.6003C114.771 89.4963 114.563 89.4936 114.622 89.3492L114.586 89.3775C114.574 89.3524 114.587 89.3339 114.576 89.3081L114.562 89.3267C114.491 89.2793 114.477 89.2357 114.473 89.1574C114.502 89.1382 114.501 89.1819 114.519 89.1983C114.537 89.1532 114.445 89.1329 114.422 89.0816C114.43 89.0287 114.467 89.061 114.483 89.0603C114.366 88.9276 114.438 88.8098 114.241 88.7683C114.21 88.77 114.21 88.8313 114.171 88.781C114.172 88.9042 114.267 88.9601 114.351 89.0337L114.339 89.0081C114.516 89.0148 114.333 89.0786 114.45 89.1676C114.378 89.1637 114.355 89.1121 114.314 89.1063C114.269 89.2934 114.488 89.2617 114.392 89.4174L114.383 89.4095C114.378 89.4361 114.422 89.4598 114.45 89.4844C114.463 89.4657 114.458 89.4308 114.462 89.404C114.49 89.4287 114.56 89.4149 114.591 89.4127C114.545 89.4775 114.643 89.4444 114.638 89.5146C114.59 89.5622 114.563 89.4938 114.522 89.4878L114.593 89.5356C114.626 89.5948 114.559 89.6259 114.542 89.6712C114.61 89.7019 114.559 89.626 114.641 89.6379C114.6 89.7373 114.758 90.0058 114.879 90.1098C114.848 90.0686 114.809 90.1244 114.791 90.0647C114.788 90.0911 114.853 90.1472 114.898 90.1257C114.983 90.1972 115.01 90.3278 115.015 90.432L115.046 90.3851C115.157 90.4176 115.085 90.5915 115.193 90.6945L115.193 90.6913C115.223 90.7268 115.348 90.7048 115.364 90.7897C115.301 90.7968 115.285 90.755 115.234 90.7867Z" fill="#1F3C88"/>
<path d="M115.57 91.1665L115.487 91.16C115.499 91.2118 115.607 91.2233 115.641 91.1917C115.612 91.1693 115.617 91.1158 115.579 91.1301C115.573 91.1398 115.551 91.1514 115.57 91.1665Z" fill="#1F3C88"/>
<path d="M116.057 91.9596C116.08 91.9661 116.099 91.9476 116.119 91.9432C116.009 91.7831 115.857 91.5923 115.862 91.499C115.845 91.4337 115.751 91.4736 115.688 91.4129L115.73 91.3451C115.67 91.3276 115.667 91.1697 115.592 91.2688C115.586 91.2781 115.659 91.2765 115.66 91.3202L115.623 91.3344L115.678 91.4056L115.622 91.4052C115.623 91.5462 115.789 91.4082 115.828 91.5567L115.743 91.6068C115.791 91.6947 115.846 91.7193 115.842 91.8263C115.842 91.8263 115.885 91.8003 115.859 91.7964C115.854 91.7796 115.877 91.7403 115.908 91.7343C116.053 91.8202 115.845 91.7459 115.867 91.8569C115.931 91.8925 116.004 91.9575 116.063 92.0192C116.124 92.0797 116.165 92.1447 116.153 92.1967C116.167 92.1136 116.269 92.1462 116.305 92.2048C116.296 92.2518 116.246 92.2234 116.215 92.2321C116.226 92.2647 116.223 92.3019 116.253 92.3192C116.271 92.2508 116.346 92.2281 116.415 92.2661C116.369 92.0979 116.147 92.105 116.057 91.9596Z" fill="#1F3C88"/>
<path d="M116.155 91.9534C116.142 91.9419 116.13 91.9407 116.119 91.9433C116.133 91.9607 116.147 91.9782 116.16 91.9945L116.155 91.9534Z" fill="#1F3C88"/>
<path d="M47.952 110.045C46.6276 107.94 43.6344 100.838 43.5078 100.537L44.0514 100.308C44.0822 100.382 47.1526 107.667 48.4512 109.733L47.952 110.045Z" fill="#1F3C88"/>
<path d="M47.9355 110.022L47.9991 110.008L47.9832 109.947L47.9355 110.022Z" fill="#1F3C88"/>
<path d="M48.3072 110.048L48.4267 109.943C48.3167 109.909 48.3031 109.88 48.2755 109.868C48.25 109.855 48.2151 109.855 48.1205 109.84C48.0863 109.894 48.0114 110.013 48.0619 110.062C48.0931 110.034 48.1088 109.945 48.1719 109.93C48.1767 109.987 48.1178 110.017 48.1267 110.089C48.242 110.081 48.1503 110.023 48.2679 109.978L48.3072 110.048Z" fill="#1F3C88"/>
<path d="M48.3154 109.835C48.3347 109.86 48.3494 109.886 48.3723 109.901C48.3597 109.873 48.3714 109.821 48.3154 109.835Z" fill="#1F3C88"/>
<path d="M48.3545 109.792C48.4199 109.759 48.4264 109.824 48.4402 109.827C48.4253 109.791 48.4028 109.76 48.3729 109.734C48.3696 109.751 48.3635 109.771 48.3545 109.792Z" fill="#1F3C88"/>
<path d="M48.3721 109.591C48.3634 109.582 48.3547 109.574 48.3453 109.566C48.3317 109.578 48.3513 109.582 48.3721 109.591Z" fill="#1F3C88"/>
<path d="M48.2908 109.479C48.2692 109.519 48.304 109.532 48.3458 109.566C48.3474 109.565 48.3484 109.564 48.3511 109.561C48.364 109.519 48.4667 109.533 48.4859 109.608C48.5513 109.683 48.4474 109.664 48.5487 109.732C48.5612 109.711 48.5711 109.684 48.5782 109.654C48.5342 109.589 48.4704 109.544 48.4162 109.519C48.3614 109.494 48.3146 109.488 48.2908 109.479Z" fill="#1F3C88"/>
<path d="M48.3721 109.592C48.3812 109.601 48.3896 109.611 48.3962 109.622C48.4029 109.608 48.388 109.598 48.3721 109.592Z" fill="#1F3C88"/>
<path d="M48.4316 109.71L48.4517 109.727L48.462 109.736C48.4617 109.738 48.4609 109.74 48.4604 109.742L48.5145 109.749C48.4867 109.735 48.4585 109.722 48.4316 109.71Z" fill="#1F3C88"/>
<path d="M48.1709 109.288C48.2736 109.248 48.2422 109.433 48.3252 109.406C48.276 109.331 48.3104 109.231 48.3727 109.218C48.346 109.196 48.3211 109.172 48.2954 109.15C48.2438 109.141 48.1916 109.217 48.1709 109.288Z" fill="#1F3C88"/>
<path d="M48.3229 108.984C48.3123 108.983 48.3033 108.98 48.2969 108.974C48.3055 108.981 48.3142 108.986 48.3229 108.984Z" fill="#1F3C88"/>
<path d="M47.9229 108.639C47.9897 108.69 48.0596 108.739 48.128 108.789C48.0865 108.787 48.0602 108.811 48.0242 108.771C48.0595 108.867 48.1277 108.845 48.1577 108.924C48.0797 108.995 48.0809 108.797 48.0232 108.883C48.0539 108.934 48.1 109.009 48.1988 109.009L48.1825 109.125L48.2656 109.043C48.2761 108.994 48.1521 109.018 48.2094 108.96C48.246 108.927 48.2722 108.956 48.2949 108.974C48.2463 108.932 48.2939 108.788 48.2232 108.688C48.1517 108.581 48.0089 108.69 47.9229 108.639Z" fill="#1F3C88"/>
<path d="M48.0284 108.575L48.0616 108.541L48.0127 108.578L48.0284 108.575Z" fill="#1F3C88"/>
<path d="M47.7847 108.418L47.9017 108.493C47.8991 108.508 47.8814 108.526 47.8671 108.542C47.8874 108.526 47.9413 108.535 47.9581 108.521C48.0232 108.425 47.863 108.406 47.8179 108.357C47.7815 108.185 47.8701 108.339 47.9255 108.236C47.9446 108.28 47.9234 108.293 47.9477 108.354C48.0027 108.21 47.8499 108.142 47.7944 108.096C47.7941 108.118 47.768 108.136 47.7928 108.165L47.7315 108.118C47.6923 108.218 47.7007 108.282 47.7847 108.418Z" fill="#1F3C88"/>
<path d="M47.8821 108.608C47.8549 108.572 47.854 108.553 47.8649 108.544C47.8458 108.567 47.835 108.589 47.8821 108.608Z" fill="#1F3C88"/>
<path d="M47.7758 108.065C47.7736 108.075 47.7813 108.084 47.7947 108.096C47.7946 108.086 47.7907 108.077 47.7758 108.065Z" fill="#1F3C88"/>
<path d="M47.6988 108.181L47.6696 108.101L47.6416 108.152C47.6518 108.16 47.6774 108.194 47.6988 108.181Z" fill="#1F3C88"/>
<path d="M46.4648 105.22C46.4302 105.244 46.4244 105.28 46.4588 105.336C46.4053 105.352 46.3802 105.271 46.3351 105.248C46.3382 105.341 46.2759 105.274 46.2363 105.315C46.271 105.404 46.3541 105.413 46.3832 105.512C46.3667 105.514 46.3453 105.526 46.3336 105.546C46.4166 105.643 46.5488 105.812 46.5569 105.94C46.5871 106.054 46.6468 106.121 46.7229 106.225C46.8722 106.617 47.1118 106.986 47.259 107.414L47.3837 107.424C47.3454 107.467 47.4307 107.52 47.3626 107.539C47.3641 107.511 47.3435 107.495 47.3295 107.469C47.2873 107.596 47.4489 107.694 47.4693 107.813C47.4805 107.792 47.556 107.734 47.5861 107.758C47.4752 107.803 47.648 107.879 47.5402 107.97C47.5605 108.089 47.6354 107.928 47.6713 108.044C47.7398 108.024 47.6512 107.926 47.6891 107.883C47.7566 107.891 47.7157 107.991 47.7793 107.953C47.7263 107.765 47.4364 107.511 47.2727 107.262L47.3456 107.261C47.2381 107.146 47.1312 106.927 47.1768 106.772C47.1319 106.825 47.1117 106.558 46.9922 106.639C47.0053 106.59 46.9954 106.582 46.9838 106.528L46.9365 106.533C46.9049 106.463 46.9735 106.445 46.932 106.367C46.9006 106.445 46.8572 106.394 46.8002 106.392C46.8193 106.271 46.824 106.139 46.8365 106.034C46.8217 106.048 46.8048 106.065 46.7937 106.105C46.7876 106.04 46.7384 106.074 46.7128 106.068C46.6852 106.016 46.7598 105.988 46.7973 105.974C46.7736 105.865 46.6157 105.885 46.6275 105.79L46.5823 105.842C46.5213 105.747 46.5457 105.633 46.4752 105.529C46.5291 105.439 46.5852 105.59 46.6404 105.621C46.6466 105.591 46.6287 105.54 46.6479 105.513C46.5857 105.483 46.494 105.428 46.4289 105.386C46.5467 105.401 46.4764 105.261 46.4648 105.22Z" fill="#1F3C88"/>
<path d="M46.6484 105.513C46.6666 105.522 46.6829 105.529 46.6947 105.532C46.6847 105.523 46.6748 105.515 46.6711 105.497C46.6602 105.5 46.6532 105.506 46.6484 105.513Z" fill="#1F3C88"/>
<path d="M46.4642 105.218C46.4667 105.216 46.4681 105.214 46.4709 105.212C46.4621 105.205 46.4617 105.209 46.4642 105.218Z" fill="#1F3C88"/>
<path d="M46.5576 105.956C46.5577 105.951 46.556 105.945 46.5557 105.94C46.5541 105.933 46.551 105.928 46.5498 105.921L46.5576 105.956Z" fill="#1F3C88"/>
<path d="M46.859 105.92C46.8492 105.951 46.8424 105.991 46.8369 106.035C46.8589 106.014 46.8756 105.996 46.859 105.92Z" fill="#1F3C88"/>
<path d="M47.1123 106.631C47.1321 106.647 47.1436 106.628 47.1687 106.634C47.1509 106.59 47.1256 106.584 47.1123 106.631Z" fill="#1F3C88"/>
<path d="M46.6067 105.384L46.5493 105.307L46.5195 105.282L46.6067 105.384Z" fill="#1F3C88"/>
<path d="M45.5259 103.785C45.4907 103.891 45.5822 103.983 45.6102 104.083C45.7222 104.238 45.7705 104.037 45.8508 104.196L45.6965 104.231C45.777 104.39 45.8519 104.633 46.038 104.715C46.0261 104.735 46.0177 104.773 45.9783 104.74C46.033 104.845 46.2054 104.705 46.2233 104.871C46.0748 104.775 46.1597 104.952 46.0555 104.955L46.0356 104.938C46.0859 105.026 46.1876 105.126 46.2091 105.188C46.2465 105.174 46.2785 105.097 46.3196 105.175C46.3119 105.139 46.3589 105.134 46.3969 105.12C46.3184 105.055 46.3223 104.999 46.2518 104.969C46.278 104.901 46.2811 104.994 46.3074 104.926L46.2329 104.879C46.2222 104.824 46.3039 104.908 46.279 104.827C46.2472 104.83 46.1891 104.781 46.168 104.718L46.1922 104.729C46.1527 104.691 46.1472 104.615 46.0779 104.673L46.1319 104.583L46.0825 104.617C46.0467 104.481 46.1539 104.376 46.0137 104.243C46.015 104.289 45.9701 104.267 45.9502 104.25C45.9439 104.335 46.0288 104.316 46.065 104.377C46.0159 104.411 45.9022 104.33 45.9051 104.422C45.9303 104.308 45.824 104.264 45.9414 104.168C45.904 104.06 45.8208 104.05 45.8055 103.931L45.8266 103.925C45.7296 103.945 45.8288 103.822 45.703 103.784L45.708 103.849C45.6704 103.862 45.6572 103.836 45.634 103.801C45.6497 103.799 45.6497 103.799 45.6619 103.779C45.5927 103.796 45.5293 103.682 45.5039 103.675C45.515 103.73 45.5952 103.768 45.6376 103.819C45.5868 103.806 45.5366 103.839 45.5259 103.785Z" fill="#1F3C88"/>
<path d="M46.2379 104.748L46.1914 104.729C46.2031 104.74 46.2178 104.748 46.2379 104.748Z" fill="#1F3C88"/>
<path d="M45.4311 103.264C45.4165 103.192 45.4943 103.258 45.4954 103.183C45.4212 103.136 45.4379 103.301 45.3422 103.264C45.3631 103.207 45.2673 103.17 45.2539 103.143C45.305 103.157 45.3827 103.102 45.3949 103.082C45.3599 103.067 45.377 102.991 45.3602 102.946C45.3538 103.077 45.2885 102.87 45.2727 102.993C45.2194 103.008 45.1377 102.923 45.1585 102.865C45.1962 102.852 45.2034 102.888 45.2168 102.915C45.2956 102.907 45.2242 102.83 45.2805 102.788C45.1394 102.728 45.0035 102.397 44.8893 102.557C44.8747 102.605 44.9256 102.619 44.9484 102.654C44.9329 102.534 45.0299 102.617 45.0615 102.615C45.0563 102.671 45.1395 102.727 45.0764 102.733L44.9872 102.687C45.0584 102.93 45.2083 103.241 45.3477 103.496L45.3003 103.38C45.348 103.375 45.3745 103.428 45.413 103.461L45.4902 103.36C45.4971 103.397 45.5262 103.422 45.4886 103.435C45.5495 103.456 45.5675 103.426 45.5917 103.387C45.6473 103.464 45.6139 103.496 45.7096 103.532C45.7302 103.354 45.587 103.443 45.5887 103.248L45.4311 103.264Z" fill="#1F3C88"/>
<path d="M45.6236 103.551L45.5566 103.54L45.6055 103.581L45.6236 103.551Z" fill="#1F3C88"/>
<path d="M45.375 103.596C45.3967 103.585 45.4163 103.601 45.438 103.589C45.4234 103.516 45.3955 103.538 45.375 103.596Z" fill="#1F3C88"/>
<path d="M45.2456 102.698L45.1904 102.62L45.195 102.685C45.2171 102.673 45.2359 102.69 45.2456 102.698Z" fill="#1F3C88"/>
<path d="M44.7168 102.212C44.7789 102.327 44.8494 102.357 44.8556 102.514C44.9516 102.551 44.9677 102.429 45.0407 102.431C45.0263 102.357 44.9168 102.415 44.865 102.355C44.9111 102.304 44.8082 102.259 44.7928 102.187C44.7723 102.206 44.7454 102.217 44.7168 102.212Z" fill="#1F3C88"/>
<path d="M44.7605 101.706C44.7376 101.651 44.6689 101.616 44.6779 101.561C44.7169 101.551 44.7441 101.578 44.7489 101.615C44.8218 101.559 44.71 101.56 44.7394 101.478C44.7327 101.487 44.7277 101.514 44.7031 101.505C44.6591 101.351 44.6002 101.452 44.5651 101.241C44.5311 101.223 44.5195 101.196 44.4669 101.224C44.4896 101.086 44.5126 101.141 44.5172 100.985C44.4874 101.004 44.4324 101.078 44.3639 101.106C44.3812 100.881 44.27 100.924 44.292 100.776C44.3013 100.788 44.3251 100.796 44.3297 100.832C44.4188 100.776 44.2704 100.74 44.2614 100.667L44.3458 100.639C44.335 100.625 44.3218 100.609 44.3074 100.59C44.2906 100.567 44.2732 100.543 44.2582 100.518C44.2277 100.467 44.2069 100.414 44.2085 100.334C44.2223 100.329 44.2364 100.324 44.2507 100.32C44.2026 100.265 44.1617 100.198 44.1246 100.127C44.0431 100.168 43.9704 100.201 43.8936 100.236C43.8526 100.255 43.8127 100.274 43.7742 100.292C43.7384 100.31 43.7292 100.318 43.7013 100.336C43.6575 100.334 43.6074 100.336 43.551 100.339C43.4852 100.385 43.489 100.395 43.5028 100.398C43.5198 100.4 43.5561 100.391 43.6029 100.38C43.6478 100.37 43.6927 100.362 43.7161 100.369C43.7403 100.377 43.7402 100.401 43.7226 100.444C43.6702 100.378 43.6373 100.406 43.6185 100.442C43.599 100.478 43.6011 100.518 43.5096 100.521C43.3704 100.51 43.5907 100.451 43.4436 100.432C43.4739 100.464 43.4654 100.474 43.4416 100.483C43.4321 100.488 43.4093 100.489 43.4044 100.498C43.4091 100.512 43.4167 100.528 43.4315 100.547C43.3257 100.499 43.4815 100.693 43.3584 100.63C43.4562 100.736 43.5429 100.815 43.6154 100.861C43.5873 100.91 43.6178 100.963 43.6459 101C43.6023 100.895 43.7665 100.982 43.7503 100.852C43.7213 100.807 43.6986 100.776 43.6739 100.737C43.6489 100.696 43.6226 100.648 43.5982 100.598L43.5892 100.58C43.5859 100.573 43.5812 100.566 43.5906 100.565L43.6267 100.549C43.6513 100.538 43.6767 100.528 43.7022 100.519C43.7259 100.511 43.7472 100.504 43.7684 100.499C43.7866 100.494 43.8308 100.48 43.8461 100.48C43.8357 100.425 43.8706 100.411 43.9008 100.401C43.9339 100.39 43.9626 100.384 43.9957 100.322C43.9889 100.363 43.9913 100.394 43.9796 100.436C43.9912 100.429 44.0008 100.422 44.0071 100.416C44.0249 100.429 44.0286 100.401 44.0289 100.363C44.0201 100.349 44.0012 100.339 44.0238 100.31C44.0361 100.302 44.0473 100.297 44.0561 100.296C44.0717 100.357 44.0527 100.439 44.0305 100.469C44.0595 100.552 44.0525 100.445 44.1123 100.435C44.0938 100.493 44.0725 100.545 44.0486 100.59C44.0646 100.616 44.0814 100.642 44.0986 100.669C44.116 100.696 44.1433 100.744 44.1659 100.783C44.2135 100.865 44.2625 100.95 44.309 101.039C44.4024 101.216 44.4859 101.403 44.5298 101.59L44.587 101.534C44.6172 101.708 44.8531 101.732 44.7667 101.935L44.8462 101.958C44.8015 101.946 44.755 102.029 44.6907 102.008C44.7323 102.041 44.7263 102.098 44.7666 102.133L44.7651 102.04C44.847 102.07 44.8374 102.146 44.7946 102.187C44.9152 102.274 44.8826 102.066 44.9292 102.015C44.7308 101.904 44.981 101.795 44.8594 101.659C44.7762 101.578 44.7995 101.697 44.7605 101.706Z" fill="#1F3C88"/>
<path d="M44.6621 101.992C44.6714 101.999 44.6806 102.004 44.6894 102.007C44.6818 102.001 44.6731 101.996 44.6621 101.992Z" fill="#1F3C88"/>
<path d="M43.6455 100.999C43.6505 101.012 43.658 101.026 43.6695 101.045C43.6938 101.053 43.6707 101.033 43.6455 100.999Z" fill="#1F3C88"/>
<path d="M44.7927 102.187L44.7933 102.186L44.792 102.186L44.7927 102.187Z" fill="#1F3C88"/>
<path d="M44.9958 102.194L44.9786 102.148L44.9502 102.17L44.9958 102.194Z" fill="#1F3C88"/>
<path d="M43.7588 101.502L43.7944 101.487C43.7816 101.488 43.7693 101.491 43.7588 101.502Z" fill="#1F3C88"/>
<path d="M44.2815 102.769L44.2719 102.742C44.2699 102.753 44.275 102.762 44.2815 102.769Z" fill="#1F3C88"/>
<path d="M45.6938 105.745C45.7528 105.816 45.8239 105.915 45.9093 105.948L45.8709 105.959C45.9083 105.994 46.03 106.109 46.0521 105.989L46.0109 105.981C45.9106 105.902 46.0358 105.879 46.0218 105.788C45.9607 105.699 45.8005 105.705 45.7932 105.604C45.7717 105.568 45.8106 105.558 45.8426 105.556C45.8128 105.466 45.6942 105.479 45.6539 105.425C45.9131 105.279 45.4594 105.193 45.5742 104.987C45.5159 104.916 45.4906 104.797 45.3908 104.718C45.483 104.742 45.3525 104.618 45.4391 104.606C45.2679 104.648 45.3773 104.277 45.1699 104.348C45.1633 104.182 45.1541 104.348 45.1289 104.165C45.1513 104.155 45.1634 104.183 45.1723 104.192C45.185 104.109 45.0434 104.131 45.1105 104.037C45.0677 103.901 45.0472 104.039 44.9593 103.986C44.9228 103.84 44.9662 103.867 45.0158 103.755C44.9155 103.785 44.9256 103.685 44.8476 103.64C44.8503 103.658 44.872 103.759 44.8096 103.714C44.7555 103.55 44.6917 103.616 44.6013 103.48C44.6732 103.359 44.6688 103.625 44.6949 103.459C44.7846 103.531 44.8108 103.604 44.9091 103.62C44.8598 103.493 44.7762 103.348 44.6719 103.231C44.6528 103.149 44.7383 103.248 44.7221 103.184C44.7085 103.029 44.524 103.023 44.523 102.894L44.5869 102.893C44.4863 102.859 44.4984 102.647 44.4039 102.539C44.3835 102.567 44.3698 102.585 44.3446 102.576C44.4817 102.519 44.1975 102.432 44.2402 102.266C44.1582 102.313 44.0573 102.214 44.0154 102.141C44.0276 102.104 44.0657 102.094 44.0885 102.085C44.0918 102.232 44.2352 102.165 44.3179 102.247C44.2377 102.184 44.2255 102.028 44.1317 101.983L44.2116 101.982C44.1727 101.864 44.0149 101.948 44.0286 101.801L44.0831 101.792C43.9731 101.554 43.941 101.234 43.7473 101.089C43.6987 101.09 43.6437 101.228 43.6143 101.247C43.6986 101.347 43.7992 101.382 43.8728 101.455L43.7942 101.487C43.8562 101.484 43.9331 101.576 43.9501 101.5C44.0209 101.554 43.9047 101.583 43.9847 101.646C43.9001 101.674 43.8704 101.629 43.8019 101.658L43.873 101.712C43.8314 101.703 43.8637 101.767 43.8225 101.758C43.9781 101.849 43.864 101.959 43.9673 102.077L43.9488 101.995C43.9944 101.976 44.0087 102.022 44.036 102.049C43.9884 102.114 44.0068 102.132 44.0091 102.214C44.071 102.26 44.1669 102.258 44.2017 102.34C44.1082 102.36 44.2139 102.496 44.1479 102.543C44.2412 102.523 44.2473 102.688 44.3019 102.678C44.3386 102.714 44.3552 102.778 44.3096 102.797C44.3043 102.792 44.2901 102.783 44.2805 102.771L44.2962 102.816C44.2846 102.816 44.2779 102.821 44.274 102.816C44.2889 102.856 44.3515 102.829 44.3311 102.898C44.3081 102.907 44.2963 102.88 44.278 102.861C44.3086 102.972 44.4872 102.986 44.4467 103.107C44.4946 103.106 44.5503 103.224 44.6302 103.159C44.6126 103.205 44.5346 103.224 44.5858 103.306C44.6845 103.322 44.6004 103.415 44.6788 103.46C44.5598 103.407 44.6565 103.47 44.5457 103.426C44.5399 103.499 44.6821 103.542 44.7129 103.652C44.6996 103.671 44.6766 103.68 44.6632 103.699C44.7071 103.725 44.7894 103.742 44.742 103.807L44.7942 103.779C44.7972 103.861 44.8578 103.952 44.8319 104.053L44.9745 104.096C44.9176 104.262 45.0859 104.377 45.2216 104.429C45.2361 104.474 45.2464 104.547 45.2236 104.557C45.211 104.551 45.1875 104.541 45.1651 104.527C45.1893 104.592 45.1651 104.696 45.2676 104.694C45.3229 104.747 45.2298 104.768 45.2376 104.823C45.4179 104.9 45.3239 105.252 45.5263 105.209C45.5025 105.155 45.4935 105.036 45.4388 104.937C45.4735 104.954 45.5 104.916 45.5213 104.952C45.5761 105.052 45.5318 105.135 45.609 105.224L45.4863 105.265C45.4466 105.496 45.7985 105.53 45.6938 105.745Z" fill="#1F3C88"/>
<path d="M45.1003 104.423L45.0742 104.525L45.1217 104.495C45.1031 104.475 45.0921 104.451 45.1003 104.423Z" fill="#1F3C88"/>
<path d="M45.1221 104.494C45.134 104.507 45.1499 104.518 45.166 104.528C45.1596 104.511 45.1502 104.496 45.1339 104.486L45.1221 104.494Z" fill="#1F3C88"/>
<path d="M45.8496 106.033C45.8524 106.052 45.8579 106.089 45.8859 106.115C45.8903 106.087 45.8752 106.041 45.8496 106.033Z" fill="#1F3C88"/>
<path d="M45.925 106.104L45.9264 106.058L45.9102 106.059L45.925 106.104Z" fill="#1F3C88"/>
<path d="M47.0581 108.221L47.186 108.304C47.1602 108.343 47.2714 108.453 47.1881 108.441C47.3071 108.469 47.3037 108.661 47.3945 108.543C47.1775 108.223 47.014 107.712 46.7141 107.361L46.7935 107.402C46.5969 107.239 46.762 107.066 46.4906 106.988L46.5995 106.964C46.5812 106.855 46.3713 106.846 46.428 106.697L46.3922 106.726C46.3798 106.699 46.393 106.68 46.3809 106.653L46.3678 106.672C46.295 106.621 46.28 106.575 46.2749 106.493C46.3041 106.474 46.3032 106.519 46.3218 106.537C46.339 106.49 46.2466 106.467 46.2218 106.412C46.2297 106.357 46.2672 106.392 46.2835 106.392C46.1644 106.25 46.2332 106.129 46.0335 106.081C46.0017 106.082 46.003 106.146 45.9629 106.093C45.9661 106.222 46.065 106.281 46.1501 106.361L46.1375 106.334C46.3164 106.345 46.1327 106.407 46.2524 106.503C46.1792 106.497 46.1548 106.443 46.1133 106.436C46.0713 106.63 46.2922 106.602 46.1971 106.762L46.1878 106.754C46.1839 106.781 46.2282 106.807 46.2565 106.834C46.2697 106.814 46.2639 106.778 46.2673 106.75C46.2961 106.777 46.3664 106.764 46.398 106.763C46.3523 106.829 46.4514 106.797 46.4474 106.87C46.3988 106.918 46.3713 106.846 46.33 106.839L46.4024 106.891C46.4364 106.954 46.3689 106.984 46.3525 107.031C46.4228 107.064 46.3688 106.984 46.4521 106.999C46.4127 107.101 46.5736 107.387 46.6968 107.499C46.6654 107.455 46.6268 107.512 46.6082 107.449C46.6048 107.477 46.6713 107.537 46.7161 107.517C46.8013 107.595 46.8327 107.731 46.8368 107.84L46.8686 107.792C46.9808 107.831 46.9074 108.01 47.0164 108.122L47.0162 108.119C47.0469 108.157 47.1732 108.14 47.1894 108.229C47.1256 108.235 47.1093 108.19 47.0581 108.221Z" fill="#1F3C88"/>
<path d="M47.3972 108.635L47.3135 108.623C47.3243 108.678 47.4337 108.697 47.4685 108.666C47.4389 108.641 47.4446 108.585 47.4063 108.598C47.4002 108.607 47.3778 108.618 47.3972 108.635Z" fill="#1F3C88"/>
<path d="M47.8734 109.503C47.897 109.511 47.9168 109.494 47.9379 109.492C47.8291 109.315 47.6829 109.1 47.6904 109.002C47.6752 108.931 47.5764 108.968 47.5145 108.9L47.5581 108.832C47.497 108.81 47.497 108.645 47.4193 108.743C47.4129 108.753 47.4864 108.756 47.4872 108.801L47.4491 108.814L47.5046 108.892L47.4472 108.887C47.4443 109.035 47.6192 108.9 47.6541 109.06L47.5661 109.106C47.6118 109.202 47.6671 109.232 47.6588 109.344C47.6588 109.344 47.7029 109.32 47.6769 109.314C47.6731 109.296 47.6973 109.257 47.7288 109.253C47.8731 109.357 47.6651 109.26 47.6831 109.378C47.8057 109.468 47.9863 109.659 47.9564 109.764C47.9755 109.679 48.0778 109.727 48.1112 109.795C48.099 109.843 48.0487 109.805 48.0169 109.81C48.026 109.845 48.0194 109.883 48.0499 109.906C48.0731 109.838 48.1515 109.825 48.2213 109.877C48.1836 109.693 47.9561 109.665 47.8734 109.503Z" fill="#1F3C88"/>
<path d="M47.9712 109.507C47.9589 109.493 47.947 109.49 47.9355 109.492C47.9487 109.512 47.9618 109.533 47.9741 109.552L47.9712 109.507Z" fill="#1F3C88"/>
<path d="M128.128 78.2348L124.788 79.1201L124.902 79.5466L128.242 78.6613L128.128 78.2348Z" fill="#E28B6D"/>
<path d="M127.839 80.4906L125.088 81.2759L125.209 81.7001L127.961 80.9148L127.839 80.4906Z" fill="#E28B6D"/>
</g>
<defs>
<clipPath id="clip0_677_7019">
<rect width="285" height="210" fill="white"/>
</clipPath>
</defs>
</svg>
