<svg width="44" height="44" viewBox="0 0 44 44" fill="none" xmlns="http://www.w3.org/2000/svg">
<rect width="44" height="44" rx="22" fill="white"/>
<path fill-rule="evenodd" clip-rule="evenodd" d="M21.9997 8.96777C25.3022 8.9679 27.9799 11.6457 27.9801 14.9482V15.5059H28.7799C29.633 15.5059 30.3458 15.5044 30.9137 15.5781C31.5029 15.6547 32.037 15.8229 32.4821 16.2324C32.9272 16.642 33.1391 17.1604 33.2643 17.7412C33.385 18.301 33.4425 19.0113 33.5133 19.8613L34.3346 29.7178C34.375 30.2023 34.4137 30.6443 34.3942 31.002C34.3735 31.3811 34.284 31.7897 33.9694 32.1318C33.6546 32.4739 33.2547 32.5973 32.8786 32.6494C32.5238 32.6985 32.0806 32.6963 31.5944 32.6963H12.4059C11.9197 32.6963 11.4765 32.6985 11.1217 32.6494C10.7455 32.5973 10.3458 32.474 10.0309 32.1318C9.71611 31.7897 9.62681 31.3812 9.60611 31.002C9.58664 30.6443 9.62432 30.2024 9.66471 29.7178L10.487 19.8613C10.5578 19.0113 10.6154 18.301 10.736 17.7412C10.8612 17.1605 11.0731 16.642 11.5182 16.2324C11.9633 15.823 12.4975 15.6546 13.0866 15.5781C13.6545 15.5044 14.3673 15.5059 15.2204 15.5059H16.0192V14.9482C16.0194 11.6458 18.6972 8.96799 21.9997 8.96777ZM15.2204 17.0059C14.327 17.0059 13.7289 17.0072 13.2799 17.0654C12.8528 17.1209 12.6627 17.2176 12.5338 17.3359C12.405 17.4545 12.2927 17.6363 12.2018 18.0576C12.1065 18.5001 12.0553 19.0963 11.9811 19.9863L11.1598 29.8428C11.1158 30.371 11.0907 30.6902 11.1032 30.9199C11.1089 31.0254 11.1225 31.0795 11.1305 31.1035C11.1324 31.1091 11.1335 31.1132 11.1344 31.1152C11.1358 31.1161 11.1398 31.1179 11.1471 31.1211C11.1703 31.1311 11.2223 31.1486 11.3268 31.1631C11.5547 31.1946 11.8755 31.1963 12.4059 31.1963H31.5944C32.1246 31.1963 32.4446 31.1946 32.6725 31.1631C32.7773 31.1486 32.83 31.1311 32.8532 31.1211C32.8593 31.1184 32.8632 31.1162 32.8649 31.1152C32.8659 31.1132 32.8678 31.1093 32.8698 31.1035C32.8778 31.0794 32.8904 31.0252 32.8962 30.9199C32.9086 30.6902 32.8845 30.371 32.8405 29.8428L32.0192 19.9863C31.945 19.0962 31.8938 18.5001 31.7985 18.0576C31.7076 17.6362 31.5953 17.4545 31.4665 17.3359C31.3376 17.2174 31.1477 17.1209 30.7204 17.0654C30.2714 17.0072 29.6734 17.0059 28.7799 17.0059H27.9801V20.1787C27.9801 20.5928 27.6441 20.9285 27.2301 20.9287C26.8161 20.9285 26.4801 20.5928 26.4801 20.1787V17.0059H17.5192V20.1787C17.5192 20.5929 17.1834 20.9287 16.7692 20.9287C16.3552 20.9285 16.0192 20.5928 16.0192 20.1787V17.0059H15.2204ZM21.9997 10.4678C19.5256 10.468 17.5194 12.4742 17.5192 14.9482V15.5059H26.4801V14.9482C26.4799 12.4742 24.4738 10.4679 21.9997 10.4678Z" fill="#333333"/>
<path d="M17.8107 24.1916L23.8735 18.3028L22.5665 22.9911L25.4967 23.808L19.4339 29.6968L20.7409 25.0085L17.8107 24.1916Z" stroke="#333333" stroke-width="1.2" stroke-linejoin="round"/>
</svg>
