<svg width="54" height="54" viewBox="0 0 54 54" fill="none" xmlns="http://www.w3.org/2000/svg">
<g filter="url(#filter0_d_677_7459)">
<rect x="5" y="3" width="44" height="44" rx="22" fill="white" fill-opacity="0.2" shape-rendering="crispEdges"/>
<path d="M30.936 17.0327C31.2988 17.0713 31.5947 17.2378 31.8442 17.4282C32.1119 17.6325 32.403 17.9255 32.7211 18.2436L33.4838 19.0063C33.802 19.3245 34.0949 19.6155 34.2993 19.8833C34.5168 20.1684 34.7035 20.5138 34.7036 20.9507C34.7036 21.3877 34.5168 21.7329 34.2993 22.018C34.095 22.2858 33.8021 22.5768 33.4838 22.895L24.5161 31.8628C24.3496 32.0292 24.1721 32.2155 23.9448 32.3442C23.7175 32.4728 23.467 32.5293 23.2387 32.5864L19.7963 33.4467C19.6403 33.4857 19.4404 33.5374 19.269 33.5542C19.0883 33.5718 18.7319 33.5737 18.4428 33.2846C18.1538 32.9956 18.1546 32.6392 18.1723 32.4585C18.1891 32.2871 18.2417 32.0872 18.2807 31.9311L19.1411 28.4887C19.1982 28.2603 19.2545 28.0091 19.3833 27.7817C19.512 27.5545 19.6983 27.3778 19.8647 27.2114L28.8315 18.2436C29.1498 17.9253 29.4416 17.6326 29.7094 17.4282C29.9946 17.2106 30.3398 17.0239 30.7768 17.0239L30.936 17.0327Z" stroke="#333333" stroke-width="1.5"/>
<path d="M27.7839 19.1554L30.774 17.0788L35.1939 20.74L32.572 23.9436L27.7839 19.1554Z" fill="#333333"/>
</g>
<defs>
<filter id="filter0_d_677_7459" x="0" y="0" width="54" height="54" filterUnits="userSpaceOnUse" color-interpolation-filters="sRGB">
<feFlood flood-opacity="0" result="BackgroundImageFix"/>
<feColorMatrix in="SourceAlpha" type="matrix" values="0 0 0 0 0 0 0 0 0 0 0 0 0 0 0 0 0 0 127 0" result="hardAlpha"/>
<feOffset dy="2"/>
<feGaussianBlur stdDeviation="2.5"/>
<feComposite in2="hardAlpha" operator="out"/>
<feColorMatrix type="matrix" values="0 0 0 0 0 0 0 0 0 0 0 0 0 0 0 0 0 0 0.1 0"/>
<feBlend mode="normal" in2="BackgroundImageFix" result="effect1_dropShadow_677_7459"/>
<feBlend mode="normal" in="BackgroundImageFix" in2="effect1_dropShadow_677_7459" result="BackgroundImageFix"/>
<feBlend mode="normal" in="SourceGraphic" in2="BackgroundImageFix" result="shape"/>
</filter>
</defs>
</svg>
