<svg width="24" height="24" viewBox="0 0 24 24" fill="none" xmlns="http://www.w3.org/2000/svg">
<g clip-path="url(#clip0_815_5934)">
<circle cx="12" cy="12" r="10" fill="#EBF3FF"/>
<path d="M11.3146 13.6023L11.1993 7.06618H12.8141L12.6988 13.6023H11.3146ZM12.0229 16.9512C11.7471 16.9512 11.5211 16.863 11.3448 16.6867C11.1686 16.5104 11.0804 16.2844 11.0804 16.0087C11.0804 15.7284 11.1686 15.5002 11.3448 15.3239C11.5211 15.1476 11.7471 15.0595 12.0229 15.0595C12.2986 15.0595 12.5223 15.1476 12.6941 15.3239C12.8704 15.5002 12.9585 15.7284 12.9585 16.0087C12.9585 16.2844 12.8704 16.5104 12.6941 16.6867C12.5223 16.863 12.2986 16.9512 12.0229 16.9512Z" fill="#0076F9"/>
</g>
<defs>
<clipPath id="clip0_815_5934">
<rect width="24" height="24" fill="white"/>
</clipPath>
</defs>
</svg>
