<svg width="207" height="173" viewBox="0 0 207 173" fill="none" xmlns="http://www.w3.org/2000/svg">
<path d="M200.201 156.025C200.201 153.533 200.016 151.613 199.646 150.266C199.275 148.919 198.905 147.959 198.534 147.386C198.231 146.948 197.76 146.511 197.12 146.073C196.48 145.601 195.469 145.366 194.089 145.366C192.674 145.366 191.647 145.601 191.007 146.073C190.367 146.511 189.912 146.948 189.643 147.386C189.239 147.959 188.851 148.919 188.481 150.266C188.11 151.613 187.925 153.533 187.925 156.025C187.925 158.518 188.11 160.437 188.481 161.785C188.851 163.098 189.239 164.041 189.643 164.614C189.912 165.052 190.367 165.506 191.007 165.978C191.647 166.416 192.674 166.634 194.089 166.634C195.469 166.634 196.48 166.416 197.12 165.978C197.76 165.506 198.231 165.052 198.534 164.614C198.905 164.041 199.275 163.098 199.646 161.785C200.016 160.437 200.201 158.518 200.201 156.025ZM205.809 148.7C206.314 150.721 206.567 153.162 206.567 156.025C206.567 158.854 206.314 161.279 205.809 163.3C205.237 165.489 204.411 167.274 203.334 168.655C202.256 170.171 200.858 171.299 199.141 172.04C197.659 172.68 195.975 173 194.089 173C192.169 173 190.468 172.68 188.986 172.04C187.369 171.333 185.955 170.205 184.742 168.655C183.698 167.274 182.89 165.489 182.317 163.3C181.812 161.279 181.56 158.854 181.56 156.025C181.56 153.162 181.812 150.721 182.317 148.7C182.856 146.612 183.681 144.827 184.793 143.345C185.972 141.795 187.369 140.667 188.986 139.96C190.569 139.32 192.27 139 194.089 139C195.975 139 197.659 139.32 199.141 139.96C200.858 140.667 202.273 141.795 203.384 143.345C204.428 144.726 205.237 146.511 205.809 148.7Z" fill="white"/>
<path d="M176.9 166.382C177.708 166.382 178.399 166.668 178.971 167.241C179.544 167.813 179.83 168.504 179.83 169.312V169.817C179.83 170.626 179.544 171.316 178.971 171.889C178.399 172.461 177.708 172.747 176.9 172.747H163.866C163.057 172.747 162.367 172.461 161.794 171.889C161.222 171.316 160.936 170.626 160.936 169.817V142.183C160.936 141.374 161.222 140.684 161.794 140.111C162.367 139.539 163.057 139.253 163.866 139.253H176.395C177.203 139.253 177.893 139.539 178.466 140.111C179.039 140.684 179.325 141.374 179.325 142.183V142.688C179.325 143.496 179.039 144.187 178.466 144.759C177.893 145.332 177.203 145.618 176.395 145.618H167.301V152.337H174.071C174.879 152.337 175.553 152.624 176.092 153.196C176.664 153.769 176.95 154.459 176.95 155.267V155.773C176.95 156.581 176.664 157.271 176.092 157.844C175.553 158.417 174.879 158.703 174.071 158.703H167.301V166.382H176.9Z" fill="white"/>
<path d="M158.901 140.667C159.171 141.105 159.322 141.577 159.356 142.082C159.39 142.587 159.272 143.075 159.002 143.547L151.071 158.955V169.817C151.071 170.626 150.784 171.316 150.212 171.889C149.639 172.461 148.949 172.747 148.141 172.747H147.635C146.827 172.747 146.137 172.461 145.564 171.889C144.991 171.316 144.705 170.626 144.705 169.817V158.955L136.622 143.547C136.353 143.075 136.235 142.587 136.268 142.082C136.268 141.577 136.403 141.105 136.672 140.667C136.942 140.229 137.296 139.893 137.733 139.657C138.205 139.387 138.693 139.253 139.198 139.253H139.704C140.276 139.253 140.781 139.404 141.219 139.707C141.691 139.977 142.061 140.347 142.331 140.819L147.837 151.377L153.344 140.819C153.883 139.775 154.742 139.253 155.921 139.253H156.426C156.931 139.253 157.403 139.387 157.84 139.657C158.278 139.893 158.632 140.229 158.901 140.667Z" fill="white"/>
<path d="M131.176 155.874C131.984 155.874 132.675 156.16 133.247 156.732C133.82 157.305 134.106 157.995 134.106 158.804V159.309C134.106 160.117 133.82 160.808 133.247 161.38C132.675 161.953 131.984 162.239 131.176 162.239H117.738C116.929 162.239 116.239 161.953 115.666 161.38C115.094 160.808 114.808 160.117 114.808 159.309V158.804C114.808 157.995 115.094 157.305 115.666 156.732C116.239 156.16 116.929 155.874 117.738 155.874H131.176Z" fill="white"/>
<path d="M112.899 168.807V168.857C112.832 169.8 112.411 170.541 111.636 171.08C111.434 171.215 111.249 171.333 111.081 171.434C110.946 171.501 110.794 171.585 110.626 171.686C110.491 171.754 110.306 171.838 110.07 171.939C109.868 172.006 109.599 172.107 109.262 172.242C108.555 172.512 107.797 172.697 106.989 172.798C106.214 172.933 105.406 173 104.564 173C102.576 173 100.758 172.663 99.1074 171.99C97.2887 171.249 95.7899 170.12 94.6111 168.605C93.466 167.224 92.5903 165.422 91.9841 163.199C91.7147 162.189 91.5126 161.094 91.3779 159.915C91.2431 158.703 91.1758 157.406 91.1758 156.025C91.1758 154.611 91.2431 153.314 91.3779 152.135C91.5126 150.923 91.7147 149.811 91.9841 148.801C92.5903 146.578 93.466 144.776 94.6111 143.395C95.7899 141.88 97.2887 140.751 99.1074 140.01C100.758 139.337 102.576 139 104.564 139C105.406 139 106.214 139.067 106.989 139.202C107.797 139.303 108.555 139.488 109.262 139.758C109.599 139.893 109.868 140.01 110.07 140.111C110.306 140.179 110.491 140.263 110.626 140.364C110.794 140.431 110.946 140.516 111.081 140.617C111.249 140.684 111.434 140.785 111.636 140.92C112.31 141.324 112.714 141.913 112.849 142.688C112.984 143.463 112.849 144.187 112.445 144.86L112.192 145.264C111.754 145.972 111.165 146.426 110.424 146.629C109.582 146.797 108.841 146.679 108.201 146.275C107.527 145.904 106.871 145.669 106.231 145.568C105.591 145.433 105.035 145.366 104.564 145.366C103.991 145.366 103.452 145.416 102.947 145.517C102.442 145.584 101.97 145.702 101.532 145.871C100.791 146.174 100.152 146.645 99.6126 147.285C98.9727 148.06 98.4844 149.104 98.1476 150.418C97.7434 151.899 97.5413 153.769 97.5413 156.025C97.5413 158.282 97.7434 160.134 98.1476 161.582C98.4844 162.896 98.9727 163.94 99.6126 164.715C100.152 165.355 100.791 165.826 101.532 166.129C101.97 166.298 102.442 166.432 102.947 166.533C103.452 166.601 103.991 166.634 104.564 166.634C104.833 166.634 105.136 166.618 105.473 166.584C105.81 166.55 106.163 166.483 106.534 166.382V158.703H104.109C103.301 158.703 102.61 158.417 102.038 157.844C101.465 157.271 101.179 156.581 101.179 155.773V155.267C101.179 154.459 101.465 153.769 102.038 153.196C102.61 152.624 103.301 152.337 104.109 152.337H109.969C110.778 152.337 111.468 152.624 112.041 153.196C112.613 153.769 112.899 154.459 112.899 155.267V168.807Z" fill="white"/>
<path d="M85.8279 139.253C86.6362 139.253 87.3266 139.539 87.8992 140.111C88.4718 140.684 88.758 141.374 88.758 142.183V169.817C88.758 170.626 88.4718 171.316 87.8992 171.889C87.3266 172.461 86.6362 172.747 85.8279 172.747H84.969C83.8913 172.747 83.0493 172.259 82.443 171.282L71.9349 153.398V169.817C71.9349 170.626 71.6486 171.316 71.076 171.889C70.5035 172.461 69.813 172.747 69.0047 172.747H68.4995C67.6912 172.747 67.0007 172.461 66.4282 171.889C65.8556 171.316 65.5693 170.626 65.5693 169.817V142.183C65.5693 141.374 65.8556 140.684 66.4282 140.111C67.0007 139.539 67.6912 139.253 68.4995 139.253H69.3583C70.5035 139.253 71.3455 139.741 71.8843 140.718L82.3925 158.602V142.183C82.3925 141.374 82.6788 140.684 83.2514 140.111C83.8239 139.539 84.5144 139.253 85.3227 139.253H85.8279Z" fill="white"/>
<path d="M60.9614 166.382C61.7697 166.382 62.4602 166.668 63.0327 167.241C63.6053 167.813 63.8916 168.504 63.8916 169.312V169.817C63.8916 170.626 63.6053 171.316 63.0327 171.889C62.4602 172.461 61.7697 172.747 60.9614 172.747H47.9272C47.1189 172.747 46.4285 172.461 45.8559 171.889C45.2833 171.316 44.9971 170.626 44.9971 169.817V142.183C44.9971 141.374 45.2833 140.684 45.8559 140.111C46.4285 139.539 47.1189 139.253 47.9272 139.253H60.4562C61.2645 139.253 61.955 139.539 62.5275 140.111C63.1001 140.684 63.3864 141.374 63.3864 142.183V142.688C63.3864 143.496 63.1001 144.187 62.5275 144.759C61.955 145.332 61.2645 145.618 60.4562 145.618H51.3626V152.337H58.1323C58.9406 152.337 59.6142 152.624 60.1531 153.196C60.7256 153.769 61.0119 154.459 61.0119 155.267V155.773C61.0119 156.581 60.7256 157.271 60.1531 157.844C59.6142 158.417 58.9406 158.703 58.1323 158.703H51.3626V166.382H60.9614Z" fill="white"/>
<path d="M32.7122 159.107L30.5398 152.236L28.3169 159.107H32.7122ZM42.8162 168.908C43.1193 169.851 42.9846 170.726 42.412 171.535C41.8058 172.343 41.0143 172.747 40.0376 172.747H39.4819C38.842 172.747 38.2694 172.562 37.7642 172.192C37.259 171.821 36.9054 171.35 36.7033 170.777L34.834 165.472H26.2961L24.5785 170.726C24.3764 171.333 24.0227 171.821 23.5175 172.192C23.0123 172.562 22.4398 172.747 21.7999 172.747H21.2947C20.3516 172.747 19.577 172.343 18.9707 171.535C18.3982 170.76 18.2466 169.884 18.516 168.908L27.4076 141.223C27.576 140.617 27.9128 140.128 28.418 139.758C28.9569 139.387 29.5463 139.202 30.1862 139.202H30.8429C31.4829 139.202 32.0554 139.387 32.5606 139.758C33.0658 140.128 33.4195 140.617 33.6215 141.223L42.8162 168.908Z" fill="white"/>
<path d="M12.9363 139.253C13.7446 139.253 14.4351 139.539 15.0076 140.111C15.5802 140.684 15.8665 141.374 15.8665 142.183V162.441C15.8665 164.092 15.6812 165.574 15.3107 166.887C14.9066 168.335 14.2667 169.514 13.391 170.424C12.5153 171.4 11.3533 172.108 9.90509 172.545C8.79365 172.848 7.53065 173 6.11608 173C5.64456 173 5.20672 172.966 4.80256 172.899C4.3984 172.865 4.01108 172.815 3.6406 172.747C2.83228 172.545 2.125 172.293 1.51876 171.99C0.845158 171.619 0.390478 171.063 0.154718 170.322C-0.0810426 169.581 -0.0473626 168.874 0.255758 168.201L0.457838 167.695C0.828319 166.954 1.38404 166.449 2.125 166.18C2.967 165.91 3.7248 165.944 4.3984 166.281C4.46576 166.315 4.5668 166.348 4.70152 166.382C4.83624 166.416 5.00464 166.466 5.20672 166.533C5.37512 166.567 5.54352 166.601 5.71192 166.634C5.88032 166.634 6.04872 166.634 6.21712 166.634C6.78969 166.634 7.24437 166.601 7.58117 166.533C7.91797 166.466 8.17057 166.399 8.33897 166.331C8.70945 166.129 8.94521 165.86 9.04625 165.523C9.14729 165.186 9.23149 164.883 9.29885 164.614C9.36621 164.21 9.41673 163.772 9.45041 163.3C9.48409 162.795 9.50093 162.256 9.50093 161.684V142.183C9.50093 141.374 9.78721 140.684 10.3598 140.111C10.9323 139.539 11.6228 139.253 12.4311 139.253H12.9363Z" fill="white"/>
<ellipse cx="85.1789" cy="63.718" rx="20.6828" ry="25.4455" fill="white"/>
<ellipse cx="121.278" cy="63.718" rx="20.6828" ry="25.4455" fill="white"/>
<ellipse cx="91.3165" cy="63.7179" rx="9.27839" ry="14.328" fill="black"/>
<ellipse cx="127.136" cy="63.7179" rx="9.27839" ry="14.328" fill="black"/>
<path d="M134.45 119.435C128.963 123.347 123.15 116.322 120.929 112.321L132.134 104.332C135.192 107.737 139.937 115.523 134.45 119.435Z" fill="#FDC1C1"/>
<path d="M133.806 97.6183C134.108 96.9269 134.913 96.6118 135.605 96.9136C136.297 97.2156 136.612 98.021 136.31 98.7127C133.796 104.472 124.495 115.403 104.759 115.404C85.0702 115.404 75.3091 104.507 73.1735 98.6326C72.9156 97.9233 73.2811 97.1395 73.9903 96.8815C74.6995 96.6237 75.4833 96.9892 75.7413 97.6983C77.4523 102.405 86.1238 112.67 104.759 112.67C123.345 112.67 131.702 102.441 133.806 97.6183Z" fill="black"/>
<path d="M131.221 103.629C131.782 103.124 132.645 103.171 133.15 103.732C134.756 105.519 136.842 108.487 137.803 111.602C138.287 113.169 138.513 114.863 138.172 116.496C137.822 118.168 136.894 119.685 135.245 120.861C133.596 122.037 131.859 122.419 130.165 122.205C128.509 121.995 126.982 121.229 125.658 120.261C123.026 118.336 120.901 115.397 119.735 113.295C119.369 112.636 119.607 111.804 120.266 111.438C120.926 111.072 121.759 111.312 122.125 111.972C123.18 113.871 125.071 116.445 127.272 118.055C128.365 118.854 129.459 119.36 130.506 119.493C131.514 119.62 132.564 119.416 133.658 118.635C134.753 117.855 135.288 116.929 135.497 115.935C135.712 114.902 135.591 113.702 135.192 112.409C134.388 109.803 132.571 107.176 131.119 105.56C130.614 104.998 130.659 104.133 131.221 103.629Z" fill="black"/>
</svg>
