<svg width="24" height="24" viewBox="0 0 24 24" fill="none" xmlns="http://www.w3.org/2000/svg">
<path d="M2 6.89625C2 6.05617 2 5.63613 2.16349 5.31526C2.3073 5.03302 2.53677 4.80355 2.81901 4.65974C3.13988 4.49625 3.55992 4.49625 4.4 4.49625H7.03461C7.31007 4.49625 7.4478 4.49625 7.57832 4.52572C7.69408 4.55186 7.80531 4.59502 7.9084 4.6538C8.02463 4.72008 8.12632 4.81299 8.32968 4.99879L9.89628 6.43014C10.0996 6.61594 10.2013 6.70885 10.3176 6.77513C10.4207 6.83391 10.5319 6.87707 10.6476 6.90321C10.7782 6.93268 10.9159 6.93268 11.1914 6.93268H19.6C20.4401 6.93268 20.8601 6.93268 21.181 7.09617C21.4632 7.23998 21.6927 7.46945 21.8365 7.7517C22 8.07256 22 8.4926 22 9.33268V17.1038C22 17.9438 22 18.3639 21.8365 18.6847C21.6927 18.967 21.4632 19.1965 21.181 19.3403C20.8601 19.5038 20.4401 19.5038 19.6 19.5038H4.4C3.55992 19.5038 3.13988 19.5038 2.81901 19.3403C2.53677 19.1965 2.3073 18.967 2.16349 18.6847C2 18.3639 2 17.9438 2 17.1038V6.89625Z" stroke="#333333" stroke-width="1.5"/>
<path d="M5 9.8483H19" stroke="#333333" stroke-width="1.5" stroke-linecap="round"/>
</svg>
