<svg width="24" height="24" viewBox="0 0 24 24" fill="none" xmlns="http://www.w3.org/2000/svg">
<path fill-rule="evenodd" clip-rule="evenodd" d="M11.2202 3.36359C11.7291 3.21315 12.2718 3.21309 12.7808 3.36359C13.1095 3.46095 13.3896 3.62974 13.6646 3.83527C13.9321 4.03532 14.2376 4.30345 14.6021 4.62238L19.4019 8.8216C19.7753 9.14832 20.065 9.39575 20.2759 9.70636C20.4516 9.96542 20.5816 10.2525 20.6606 10.555C20.7555 10.9183 20.7505 11.2993 20.7505 11.7952V17.3431C20.7505 17.7985 20.7512 18.1784 20.73 18.4886C20.7083 18.8053 20.6616 19.1048 20.5415 19.3948C20.2627 20.068 19.7275 20.6047 19.0532 20.8841C18.763 21.0043 18.4629 21.0509 18.146 21.0726C17.8357 21.0937 17.4559 21.0931 17.0005 21.0931C16.5451 21.0931 16.1652 21.0937 15.855 21.0726C15.5381 21.051 15.238 21.0042 14.9478 20.8841C14.2736 20.6049 13.7385 20.068 13.4595 19.3948C13.3393 19.1047 13.2926 18.8045 13.271 18.4876C13.2499 18.1775 13.2505 17.7982 13.2505 17.3431V16.3431C13.2505 15.6529 12.6907 15.0933 12.0005 15.0931C11.3101 15.0931 10.7505 15.6527 10.7505 16.3431V17.3431C10.7505 17.7985 10.7512 18.1784 10.73 18.4886C10.7083 18.8053 10.6616 19.1048 10.5415 19.3948C10.2626 20.068 9.7274 20.6048 9.05322 20.8841C8.76296 21.0043 8.46294 21.0509 8.146 21.0726C7.83567 21.0937 7.45588 21.0931 7.00049 21.0931C6.54509 21.0931 6.16524 21.0937 5.85498 21.0726C5.53807 21.051 5.23798 21.0042 4.94776 20.8841C4.27357 20.6048 3.73843 20.068 3.45947 19.3948C3.33931 19.1046 3.29264 18.8045 3.271 18.4876C3.24986 18.1775 3.25049 17.7983 3.25049 17.3431V11.4437C3.25322 11.1105 3.26815 10.8277 3.33936 10.555C3.41884 10.2508 3.55095 9.96437 3.72608 9.70636C3.93699 9.39567 4.22543 9.14858 4.59912 8.8216L9.40088 4.62043C9.76473 4.30206 10.0693 4.03508 10.3364 3.83527C10.6112 3.62983 10.8913 3.46087 11.2202 3.36359Z" fill="#333333"/>
</svg>
