<svg width="24" height="24" viewBox="0 0 24 24" fill="none" xmlns="http://www.w3.org/2000/svg">
<path d="M4.90771 4.67834L4.56722 4.01009L4.56729 4.01005L4.90771 4.67834ZM3.59619 5.98889L2.92794 5.6484L2.92796 5.64835L3.59619 5.98889ZM3.26904 9.151H2.51904H3.26904ZM3.59619 15.5182L2.92794 15.8587L2.9279 15.8586L3.59619 15.5182ZM4.90771 16.8297L4.56737 17.498L4.56722 17.498L4.90771 16.8297ZM19.9624 19.8805L19.4321 20.4108L19.432 20.4107L19.9624 19.8805ZM20.731 9.151H21.481H20.731ZM20.4038 5.98889L21.072 5.64832L21.0721 5.6484L20.4038 5.98889ZM19.0933 4.67834L19.4338 4.01009L19.4338 4.01013L19.0933 4.67834ZM15.9312 4.3512V3.6012V4.3512ZM8.06982 4.3512V5.1012C7.21752 5.1012 6.62323 5.10185 6.16056 5.13969C5.70661 5.17683 5.44571 5.246 5.24814 5.34664L4.90771 4.67834L4.56729 4.01005C5.01144 3.78381 5.49159 3.68941 6.03827 3.64469C6.57623 3.60068 7.24214 3.6012 8.06982 3.6012V4.3512ZM4.90771 4.67834L5.24821 5.3466C4.82443 5.56253 4.4799 5.9066 4.26442 6.32944L3.59619 5.98889L2.92796 5.64835C3.28773 4.94239 3.86216 4.36934 4.56722 4.01009L4.90771 4.67834ZM3.59619 5.98889L4.26445 6.32938C4.1638 6.52691 4.09463 6.78777 4.05751 7.24171C4.01967 7.70437 4.01904 8.29866 4.01904 9.151H3.26904H2.51904C2.51904 8.32332 2.51851 7.6574 2.5625 7.11945C2.60721 6.57276 2.70161 6.09258 2.92794 5.6484L3.59619 5.98889ZM3.26904 9.151H4.01904V12.3561H3.26904H2.51904V9.151H3.26904ZM3.26904 12.3561H4.01904C4.01904 13.2084 4.01969 13.8027 4.05754 14.2653C4.09467 14.7193 4.16384 14.9802 4.26448 15.1778L3.59619 15.5182L2.9279 15.8586C2.70165 15.4145 2.60725 14.9343 2.56253 14.3876C2.51852 13.8497 2.51904 13.1838 2.51904 12.3561H3.26904ZM3.59619 15.5182L4.26445 15.1777C4.48016 15.6011 4.82484 15.9457 5.24821 16.1615L4.90771 16.8297L4.56722 17.498C3.86161 17.1384 3.28746 16.5643 2.92794 15.8587L3.59619 15.5182ZM4.90771 16.8297L5.24806 16.1614C5.44539 16.2619 5.70615 16.3309 6.16027 16.3678C6.62311 16.4055 7.21741 16.4059 8.06982 16.4059V17.1559V17.9059C7.24242 17.9059 6.57651 17.9066 6.03867 17.8629C5.49212 17.8184 5.01173 17.7243 4.56737 17.498L4.90771 16.8297ZM8.06982 17.1559V16.4059H16.8245V17.1559V17.9059H8.06982V17.1559ZM17.5317 17.4489L18.0621 16.9187L20.4928 19.3503L19.9624 19.8805L19.432 20.4107L17.0013 17.9791L17.5317 17.4489ZM19.9624 19.8805L20.4927 19.3502C20.3037 19.1611 19.981 19.2949 19.981 19.5621H20.731H21.481C21.481 20.6312 20.1881 21.1668 19.4321 20.4108L19.9624 19.8805ZM20.731 19.5621H19.981V9.151H20.731H21.481V19.5621H20.731ZM20.731 9.151H19.981C19.981 8.29866 19.9803 7.70437 19.9425 7.24171C19.9054 6.78777 19.8362 6.52691 19.7356 6.32938L20.4038 5.98889L21.0721 5.6484C21.2984 6.09258 21.3928 6.57276 21.4375 7.11945C21.4815 7.6574 21.481 8.32332 21.481 9.151H20.731ZM20.4038 5.98889L19.7356 6.32947C19.5199 5.9063 19.1759 5.56224 18.7527 5.34656L19.0933 4.67834L19.4338 4.01013C20.1391 4.3696 20.7126 4.94304 21.072 5.64832L20.4038 5.98889ZM19.0933 4.67834L18.7528 5.3466C18.5552 5.24595 18.2944 5.17679 17.8404 5.13966C17.3778 5.10182 16.7835 5.1012 15.9312 5.1012V4.3512V3.6012C16.7588 3.6012 17.4248 3.60066 17.9627 3.64465C18.5094 3.68936 18.9896 3.78377 19.4338 4.01009L19.0933 4.67834ZM15.9312 4.3512V5.1012H8.06982V4.3512V3.6012H15.9312V4.3512ZM16.8245 17.1559V16.4059C17.2887 16.4059 17.7339 16.5903 18.0621 16.9187L17.5317 17.4489L17.0013 17.9791C16.9544 17.9322 16.8908 17.9059 16.8245 17.9059V17.1559Z" fill="#333333"/>
<path d="M16.0742 9.00757L7.92547 9.00757" stroke="#333333" stroke-width="1.5" stroke-linecap="round" stroke-linejoin="round"/>
<path d="M16.0742 12.4999L10.2537 12.4999" stroke="#333333" stroke-width="1.5" stroke-linecap="round" stroke-linejoin="round"/>
</svg>
