<svg width="285" height="210" viewBox="0 0 285 210" fill="none" xmlns="http://www.w3.org/2000/svg">
<g clip-path="url(#clip0_588_5097)">
<path d="M0.107927 210H270.35C277.844 195.966 283.466 179.885 284.726 164.025C285.339 156.297 285.124 148.26 281.968 141.178C275.725 127.171 259.311 119.559 253.768 105.26C250.191 96.0337 251.815 85.6758 250.305 75.8959C248.029 61.1581 238.364 48.0477 225.67 40.2217C212.976 32.3957 197.535 29.6132 182.686 30.9856C176.832 31.5267 170.963 32.711 165.692 35.3154C157.102 39.5608 150.757 47.2064 144.907 54.7952C137.652 64.2056 130.441 74.1429 120.183 80.1391C108.899 86.7348 95.2251 87.7636 82.1674 87.19C69.1096 86.6166 56.043 84.6079 43.0244 85.7701C30.0058 86.9323 16.5732 91.826 8.73566 102.286C-2.46637 117.236 0.907281 138.322 6.64582 156.101C9.26963 164.229 12.3185 172.774 10.4489 181.109C8.13952 191.405 -1.09725 199.518 0.107927 210Z" fill="#F6F9FF"/>
<mask id="mask0_588_5097" style="mask-type:luminance" maskUnits="userSpaceOnUse" x="0" y="30" width="285" height="180">
<path d="M0.107927 210H270.35C277.844 195.966 283.466 179.885 284.726 164.025C285.339 156.297 285.124 148.26 281.968 141.178C275.725 127.171 259.311 119.559 253.768 105.26C250.191 96.0337 251.815 85.6758 250.305 75.8959C248.029 61.1581 238.364 48.0477 225.67 40.2217C212.976 32.3957 197.535 29.6132 182.686 30.9856C176.832 31.5267 170.963 32.711 165.692 35.3154C157.102 39.5608 150.757 47.2064 144.907 54.7952C137.652 64.2056 130.441 74.1429 120.183 80.1391C108.899 86.7348 95.2251 87.7636 82.1674 87.19C69.1096 86.6166 56.043 84.6079 43.0244 85.7701C30.0058 86.9323 16.5732 91.826 8.73566 102.286C-2.46637 117.236 0.907281 138.322 6.64582 156.101C9.26963 164.229 12.3185 172.774 10.4489 181.109C8.13952 191.405 -1.09725 199.518 0.107927 210Z" fill="white"/>
</mask>
<g mask="url(#mask0_588_5097)">
<path opacity="0.15" d="M-11.8545 132.269C-0.804962 116.96 19.5717 110.539 38.3965 111.976C57.2213 113.413 74.8499 121.555 91.4373 130.571C108.025 139.587 124.217 149.681 142.141 155.611C160.065 161.541 180.411 162.914 197.336 154.549C211.242 147.677 221.433 135.04 234.615 126.866C248.978 117.959 266.184 114.793 283.054 113.781C285.685 117.968 286.688 123.109 287.294 128.017C290.735 155.867 290.92 184.118 287.844 212.011H-6.79754C-8.18826 185.843 -11.6815 158.473 -11.8545 132.269Z" fill="#8C9EF4"/>
</g>
<path d="M75.0954 61.2671C64.7691 67.3776 52.3665 69.0872 40.3727 68.731C26.9033 68.3311 19.941 61.9384 16.3922 49.2147C15.2359 45.0689 14.2374 40.7173 15.0634 36.4932C16.0417 31.4899 19.5164 27.2558 23.6618 24.2883C38.5685 13.6177 59.9585 11.5655 77.4205 15.6813C82.8577 16.9628 89.6002 19.2895 92.5361 24.4155C93.8093 26.6386 94.2287 29.2672 94.168 31.8285C93.8915 43.4658 84.8341 55.5045 75.0954 61.2671Z" fill="#F6F9FF"/>
<path d="M171.697 210H74.5494C70.9371 210 68.0088 207.072 68.0088 203.459V43.5112C68.0088 39.8988 70.9371 36.9706 74.5494 36.9706H171.697C175.309 36.9706 178.237 39.899 178.237 43.5112V203.459C178.237 207.072 175.309 210 171.697 210Z" fill="#1B3D9E"/>
<path d="M167.803 193.953H78.5564C76.5367 193.953 74.8994 192.316 74.8994 190.296V48.9263C74.8994 46.9066 76.5367 45.2693 78.5564 45.2693H167.803C169.822 45.2693 171.46 46.9066 171.46 48.9263V190.296C171.46 192.316 169.822 193.953 167.803 193.953Z" fill="#D4DFFF"/>
<mask id="mask1_588_5097" style="mask-type:luminance" maskUnits="userSpaceOnUse" x="74" y="45" width="98" height="149">
<path d="M167.803 193.953H78.5564C76.5367 193.953 74.8994 192.316 74.8994 190.296V48.9263C74.8994 46.9066 76.5367 45.2693 78.5564 45.2693H167.803C169.822 45.2693 171.46 46.9066 171.46 48.9263V190.296C171.46 192.316 169.822 193.953 167.803 193.953Z" fill="white"/>
</mask>
<g mask="url(#mask1_588_5097)">
<path opacity="0.34" d="M105.53 42.2786L68.0088 92.0565V139.874L123.123 89.3103L70.1623 168.582V202.67H128.09L161.059 140.527L142.645 199.1H171.46L178.237 192.1L180.772 94.1052L142.554 135.986L175.685 70.1345L173.913 41.3248L105.53 42.2786Z" fill="#F6F9FF"/>
</g>
<path d="M131.222 205.007H115.136C113.527 205.007 112.223 203.703 112.223 202.094V200.184C112.223 198.575 113.527 197.271 115.136 197.271H131.222C132.831 197.271 134.135 198.575 134.135 200.184V202.094C134.135 203.702 132.831 205.007 131.222 205.007Z" fill="#1C056D"/>
<path d="M93.9579 125.887H90.9404V135.986H93.9579V125.887Z" fill="#8C9EF4"/>
<path d="M99.119 125.887H96.1016V135.986H99.119V125.887Z" fill="#8C9EF4"/>
<path d="M104.28 125.887H101.263V135.986H104.28V125.887Z" fill="#8C9EF4"/>
<path d="M107.179 125.887H105.67V135.986H107.179V125.887Z" fill="#8C9EF4"/>
<path d="M110.136 125.887H108.627V135.986H110.136V125.887Z" fill="#8C9EF4"/>
<path d="M114.604 125.887H111.586V135.986H114.604V125.887Z" fill="#8C9EF4"/>
<path d="M119.765 125.887H116.747V135.986H119.765V125.887Z" fill="#8C9EF4"/>
<path d="M124.927 125.887H121.909V135.986H124.927V125.887Z" fill="#8C9EF4"/>
<path d="M130.623 125.887H129.114V135.986H130.623V125.887Z" fill="#8C9EF4"/>
<path d="M127.774 125.887H126.266V135.986H127.774V125.887Z" fill="#8C9EF4"/>
<path d="M135.249 125.887H132.231V135.986H135.249V125.887Z" fill="#8C9EF4"/>
<path d="M140.411 125.887H137.394V135.986H140.411V125.887Z" fill="#8C9EF4"/>
<path d="M145.571 125.887H142.554V135.986H145.571V125.887Z" fill="#8C9EF4"/>
<path d="M148.724 125.887H147.715V135.986H148.724V125.887Z" fill="#8C9EF4"/>
<path d="M151.305 125.887H150.296V135.986H151.305V125.887Z" fill="#8C9EF4"/>
<path d="M155.894 125.887H152.876V135.986H155.894V125.887Z" fill="#8C9EF4"/>
<path d="M153.734 117.985H92.5103C91.3175 117.985 90.3506 117.018 90.3506 115.826V62.795C90.3506 61.6022 91.3175 60.6353 92.5103 60.6353H153.734C154.927 60.6353 155.894 61.6022 155.894 62.795V115.826C155.894 117.018 154.927 117.985 153.734 117.985Z" fill="#F6F9FF"/>
<path d="M107.052 64.5319H93.8301V77.7542H107.052V64.5319Z" fill="#8C9EF4"/>
<path d="M121.91 86.6007H93.8301V114.681H121.91V86.6007Z" fill="#8C9EF4"/>
<path d="M115.877 92.0566H99.8643V108.07H115.877V92.0566Z" fill="#D4DFFF"/>
<path d="M152.327 101.458H139.104V114.681H152.327V101.458Z" fill="#8C9EF4"/>
<path d="M152.327 64.5319H139.104V77.7541H152.327V64.5319Z" fill="#8C9EF4"/>
<path d="M130.186 64.5319H125.494V69.2233H130.186V64.5319Z" fill="#8C9EF4"/>
<path d="M98.5215 79.5746H93.8301V84.266H98.5215V79.5746Z" fill="#8C9EF4"/>
<path d="M105.531 79.5746H100.84V84.266H105.531V79.5746Z" fill="#8C9EF4"/>
<path d="M112.538 79.5746H107.847V84.266H112.538V79.5746Z" fill="#8C9EF4"/>
<path d="M119.547 79.5746H114.855V84.266H119.547V79.5746Z" fill="#8C9EF4"/>
<path d="M133.296 74.6424H130.185V77.754H133.296V74.6424Z" fill="#8C9EF4"/>
<path d="M126.235 72.134H123.123V75.2456H126.235V72.134Z" fill="#8C9EF4"/>
<path d="M141.269 86.3412H138.157V89.4528H141.269V86.3412Z" fill="#8C9EF4"/>
<path d="M129.646 81.1542H126.534V84.2658H129.646V81.1542Z" fill="#8C9EF4"/>
<path d="M134.2 86.3412H131.088V89.4528H134.2V86.3412Z" fill="#8C9EF4"/>
<path d="M142.644 96.5645H139.532V99.6761H142.644V96.5645Z" fill="#8C9EF4"/>
<path d="M147.486 96.5645H144.374V99.6761H147.486V96.5645Z" fill="#8C9EF4"/>
<path d="M152.326 96.5645H149.215V99.6761H152.326V96.5645Z" fill="#8C9EF4"/>
<path d="M120.415 70.1345H112.795V77.7541H120.415V70.1345Z" fill="#8C9EF4"/>
<path d="M135.133 92.0566H127.514V99.6762H135.133V92.0566Z" fill="#8C9EF4"/>
<path d="M127.194 111.19H123.704V114.681H127.194V111.19Z" fill="#8C9EF4"/>
<path d="M136.974 107.031H129.324V114.681H136.974V107.031Z" fill="#8C9EF4"/>
<path d="M152.327 86.6007H146.622V92.3052H152.327V86.6007Z" fill="#8C9EF4"/>
<path d="M141.938 79.985H138.157V83.7662H141.938V79.985Z" fill="#8C9EF4"/>
<path d="M147.133 79.985H143.352V83.7662H147.133V79.985Z" fill="#8C9EF4"/>
<path d="M152.326 79.985H148.545V83.7662H152.326V79.985Z" fill="#8C9EF4"/>
<path d="M149.346 104.44H142.086V111.7H149.346V104.44Z" fill="#D4DFFF"/>
<path d="M104.071 67.5129H96.8115V74.7729H104.071V67.5129Z" fill="#D4DFFF"/>
<path d="M149.346 67.5129H142.086V74.7729H149.346V67.5129Z" fill="#D4DFFF"/>
<path d="M148.623 171.021H97.6212C95.9486 171.021 94.5928 169.665 94.5928 167.993V153.315C94.5928 151.642 95.9486 150.286 97.6212 150.286H148.623C150.296 150.286 151.652 151.642 151.652 153.315V167.993C151.652 169.665 150.296 171.021 148.623 171.021Z" fill="#8C9EF4"/>
<mask id="mask2_588_5097" style="mask-type:luminance" maskUnits="userSpaceOnUse" x="94" y="150" width="58" height="22">
<path d="M148.623 171.021H97.6212C95.9486 171.021 94.5928 169.665 94.5928 167.993V153.315C94.5928 151.642 95.9486 150.286 97.6212 150.286H148.623C150.296 150.286 151.652 151.642 151.652 153.315V167.993C151.652 169.665 150.296 171.021 148.623 171.021Z" fill="white"/>
</mask>
<g mask="url(#mask2_588_5097)">
<path opacity="0.15" d="M151.021 173.57H99.2745C97.8894 173.57 96.7666 172.448 96.7666 171.062V154.276C96.7666 152.891 97.8895 151.768 99.2745 151.768H151.021C152.406 151.768 153.529 152.891 153.529 154.276V171.062C153.529 172.448 152.406 173.57 151.021 173.57Z" fill="#1B3D9E"/>
</g>
<path d="M111.845 158.01C111.899 158.192 111.881 158.342 111.79 158.46C111.699 158.578 111.574 158.657 111.415 158.698C111.257 158.738 111.083 158.737 110.894 158.693C110.705 158.649 110.543 158.56 110.409 158.425C110.395 158.216 110.344 158.001 110.257 157.782C110.169 157.563 110.051 157.365 109.903 157.19C109.754 157.015 109.579 156.87 109.376 156.755C109.174 156.64 108.958 156.586 108.729 156.593C108.412 156.607 108.128 156.689 107.879 156.841C107.629 156.993 107.434 157.192 107.292 157.438C107.15 157.684 107.069 157.963 107.049 158.273C107.029 158.583 107.093 158.9 107.241 159.224C107.295 159.352 107.442 159.45 107.681 159.517C107.921 159.585 108.206 159.658 108.536 159.735C108.867 159.813 109.221 159.909 109.599 160.023C109.977 160.138 110.336 160.307 110.677 160.529C111.017 160.752 111.314 161.044 111.567 161.405C111.82 161.766 111.99 162.229 112.078 162.796C112.145 163.275 112.1 163.697 111.941 164.061C111.783 164.425 111.548 164.734 111.238 164.987C110.928 165.24 110.564 165.436 110.145 165.574C109.727 165.712 109.292 165.79 108.84 165.807C108.388 165.823 107.943 165.78 107.504 165.675C107.066 165.571 106.673 165.404 106.325 165.174C105.978 164.945 105.696 164.65 105.48 164.289C105.264 163.928 105.153 163.501 105.146 163.009C105.146 162.874 105.153 162.744 105.167 162.619C105.18 162.494 105.21 162.381 105.258 162.28C105.305 162.179 105.372 162.093 105.46 162.022C105.548 161.951 105.666 161.906 105.814 161.886C105.949 161.879 106.064 161.903 106.158 161.956C106.253 162.011 106.329 162.083 106.386 162.174C106.443 162.265 106.481 162.373 106.497 162.498C106.514 162.623 106.516 162.756 106.502 162.897C106.469 163.194 106.511 163.449 106.629 163.661C106.747 163.874 106.907 164.049 107.11 164.188C107.312 164.326 107.541 164.427 107.798 164.491C108.054 164.556 108.304 164.581 108.547 164.567C108.789 164.554 109.036 164.518 109.285 164.461C109.535 164.404 109.761 164.313 109.963 164.188C110.166 164.063 110.328 163.899 110.449 163.697C110.571 163.495 110.618 163.242 110.591 162.938C110.577 162.776 110.532 162.608 110.454 162.432C110.377 162.257 110.274 162.093 110.146 161.941C110.017 161.789 109.872 161.653 109.71 161.531C109.549 161.41 109.377 161.322 109.194 161.268C108.924 161.187 108.644 161.11 108.354 161.036C108.064 160.961 107.783 160.877 107.51 160.783C107.236 160.688 106.978 160.577 106.735 160.449C106.492 160.32 106.278 160.162 106.093 159.973C105.907 159.784 105.76 159.556 105.653 159.29C105.545 159.024 105.487 158.705 105.481 158.334C105.474 157.882 105.557 157.473 105.729 157.109C105.901 156.745 106.128 156.435 106.412 156.178C106.695 155.922 107.012 155.725 107.363 155.586C107.713 155.448 108.061 155.379 108.405 155.379C108.877 155.379 109.309 155.44 109.7 155.561C110.091 155.682 110.436 155.858 110.732 156.087C111.029 156.317 111.272 156.595 111.461 156.922C111.65 157.249 111.778 157.612 111.845 158.01Z" fill="white"/>
<path d="M120.77 155.895C120.743 155.679 120.778 155.505 120.876 155.374C120.974 155.242 121.092 155.161 121.23 155.131C121.368 155.1 121.508 155.127 121.65 155.212C121.792 155.296 121.893 155.443 121.954 155.652C122.014 156.003 122.058 156.354 122.085 156.704C122.112 157.055 122.126 157.413 122.126 157.777C122.112 157.999 122.04 158.171 121.908 158.293C121.777 158.414 121.63 158.483 121.468 158.5C121.306 158.517 121.154 158.478 121.013 158.384C120.871 158.29 120.787 158.134 120.76 157.918V157.838C120.436 157.412 120.067 157.112 119.652 156.937C119.237 156.762 118.812 156.689 118.377 156.719C117.942 156.75 117.511 156.871 117.087 157.084C116.662 157.296 116.277 157.574 115.933 157.918C115.717 158.134 115.54 158.394 115.402 158.698C115.263 159.001 115.159 159.323 115.088 159.664C115.017 160.005 114.978 160.352 114.972 160.706C114.965 161.06 114.983 161.401 115.027 161.728C115.071 162.056 115.139 162.357 115.23 162.634C115.321 162.911 115.43 163.137 115.559 163.312C115.754 163.589 115.999 163.818 116.292 164C116.586 164.182 116.901 164.319 117.238 164.41C117.576 164.501 117.925 164.548 118.286 164.552C118.647 164.555 118.997 164.516 119.338 164.435C119.679 164.354 119.994 164.231 120.284 164.066C120.574 163.901 120.821 163.693 121.023 163.443C121.117 163.322 121.185 163.185 121.225 163.034C121.266 162.882 121.316 162.735 121.377 162.593C121.485 162.405 121.605 162.285 121.736 162.234C121.868 162.184 121.988 162.187 122.096 162.245C122.203 162.302 122.293 162.408 122.364 162.563C122.434 162.718 122.466 162.907 122.46 163.13C122.446 163.609 122.284 164.037 121.974 164.415C121.664 164.793 121.264 165.105 120.775 165.351C120.286 165.597 119.741 165.773 119.141 165.877C118.54 165.982 117.942 165.999 117.345 165.928C116.747 165.857 116.186 165.693 115.66 165.437C115.134 165.181 114.702 164.813 114.364 164.334C114.175 164.064 114.014 163.739 113.879 163.357C113.744 162.976 113.644 162.565 113.58 162.123C113.516 161.681 113.487 161.222 113.494 160.747C113.501 160.271 113.55 159.805 113.641 159.35C113.732 158.895 113.869 158.465 114.051 158.06C114.233 157.655 114.466 157.301 114.749 156.997C114.971 156.761 115.238 156.542 115.548 156.34C115.858 156.137 116.192 155.965 116.55 155.824C116.908 155.682 117.28 155.574 117.668 155.5C118.056 155.426 118.437 155.395 118.812 155.409C119.186 155.422 119.546 155.486 119.89 155.601C120.234 155.716 120.54 155.891 120.81 156.127C120.804 156.087 120.797 156.048 120.79 156.011C120.783 155.974 120.776 155.935 120.77 155.895Z" fill="white"/>
<path d="M123.503 165.123C123.624 164.84 123.739 164.484 123.847 164.056C123.955 163.627 124.063 163.157 124.171 162.644C124.278 162.132 124.393 161.595 124.515 161.035C124.636 160.475 124.766 159.924 124.904 159.381C125.042 158.838 125.196 158.322 125.365 157.832C125.533 157.343 125.722 156.913 125.931 156.542C126.14 156.171 126.373 155.876 126.629 155.657C126.886 155.438 127.172 155.328 127.49 155.328C127.672 155.328 127.852 155.438 128.031 155.657C128.21 155.876 128.385 156.17 128.557 156.537C128.729 156.905 128.901 157.332 129.073 157.817C129.245 158.303 129.415 158.812 129.584 159.345C129.753 159.878 129.921 160.421 130.09 160.975C130.259 161.528 130.426 162.054 130.591 162.553C130.756 163.052 130.921 163.511 131.087 163.929C131.252 164.348 131.419 164.688 131.588 164.951C131.642 165.133 131.635 165.294 131.567 165.432C131.5 165.57 131.404 165.673 131.279 165.741C131.154 165.808 131.011 165.83 130.849 165.806C130.687 165.783 130.539 165.703 130.404 165.569C130.242 165.319 130.093 165.052 129.959 164.769C129.823 164.486 129.707 164.213 129.609 163.95C129.512 163.687 129.432 163.449 129.372 163.236C129.311 163.024 129.27 162.86 129.25 162.745C128.913 162.745 128.589 162.744 128.279 162.74C127.968 162.737 127.662 162.735 127.358 162.735C127.054 162.735 126.749 162.734 126.442 162.73C126.135 162.727 125.81 162.722 125.466 162.715C125.385 163.025 125.322 163.297 125.278 163.53C125.234 163.762 125.192 163.987 125.152 164.203C125.112 164.418 125.061 164.641 125 164.87C124.94 165.1 124.852 165.363 124.737 165.66C124.616 165.808 124.475 165.899 124.317 165.933C124.159 165.967 124.014 165.955 123.882 165.897C123.75 165.84 123.644 165.744 123.563 165.609C123.482 165.474 123.462 165.312 123.503 165.123ZM127.368 156.897C127.274 156.87 127.179 156.93 127.085 157.079C126.99 157.227 126.898 157.429 126.807 157.686C126.716 157.942 126.626 158.236 126.538 158.566C126.451 158.897 126.365 159.231 126.28 159.568C126.196 159.905 126.117 160.228 126.043 160.534C125.968 160.841 125.897 161.103 125.83 161.319C126.12 161.325 126.388 161.332 126.635 161.339C126.881 161.346 127.124 161.354 127.363 161.364C127.603 161.374 127.845 161.384 128.092 161.395C128.338 161.405 128.603 161.413 128.886 161.42C128.724 161.022 128.588 160.636 128.476 160.261C128.365 159.887 128.257 159.514 128.152 159.143C128.048 158.772 127.935 158.401 127.814 158.03C127.692 157.659 127.544 157.281 127.368 156.897Z" fill="white"/>
<path d="M141.1 165.042C141.093 165.211 141.032 165.348 140.917 165.452C140.803 165.557 140.669 165.628 140.518 165.665C140.366 165.702 140.211 165.704 140.052 165.67C139.894 165.636 139.767 165.562 139.673 165.447C139.491 165.218 139.275 164.94 139.025 164.613C138.775 164.285 138.507 163.928 138.221 163.54C137.934 163.152 137.637 162.747 137.33 162.326C137.023 161.904 136.721 161.487 136.425 161.076C136.128 160.664 135.844 160.27 135.575 159.892C135.305 159.514 135.064 159.177 134.851 158.88C134.639 158.583 134.463 158.337 134.325 158.141C134.186 157.946 134.1 157.824 134.067 157.777C134.114 158.087 134.153 158.445 134.183 158.85C134.213 159.254 134.24 159.681 134.264 160.13C134.288 160.578 134.306 161.037 134.32 161.506C134.333 161.975 134.345 162.432 134.355 162.877C134.365 163.322 134.372 163.744 134.375 164.142C134.379 164.54 134.384 164.887 134.391 165.184C134.377 165.407 134.303 165.572 134.168 165.68C134.033 165.788 133.885 165.842 133.723 165.842C133.561 165.842 133.407 165.786 133.262 165.675C133.117 165.563 133.031 165.4 133.004 165.184C132.997 164.793 132.984 164.348 132.964 163.848C132.944 163.349 132.923 162.825 132.903 162.275C132.883 161.725 132.864 161.163 132.847 160.59C132.83 160.017 132.82 159.455 132.817 158.905C132.814 158.355 132.824 157.832 132.847 157.337C132.871 156.841 132.91 156.397 132.964 156.006C132.997 155.824 133.077 155.699 133.202 155.632C133.326 155.564 133.468 155.539 133.627 155.556C133.785 155.573 133.944 155.623 134.102 155.707C134.261 155.792 134.394 155.888 134.502 155.996C134.758 156.259 135.043 156.583 135.357 156.967C135.671 157.352 135.994 157.765 136.328 158.207C136.662 158.649 136.998 159.106 137.335 159.578C137.672 160.05 137.991 160.509 138.291 160.954C138.592 161.4 138.861 161.816 139.101 162.204C139.34 162.592 139.534 162.921 139.683 163.191C139.609 162.894 139.553 162.545 139.516 162.143C139.479 161.742 139.45 161.317 139.43 160.868C139.41 160.42 139.398 159.963 139.395 159.497C139.391 159.032 139.393 158.585 139.4 158.156C139.406 157.728 139.413 157.333 139.42 156.972C139.427 156.612 139.433 156.31 139.44 156.067C139.481 155.878 139.568 155.734 139.703 155.637C139.838 155.539 139.987 155.488 140.149 155.485C140.311 155.482 140.464 155.524 140.609 155.611C140.754 155.699 140.854 155.834 140.908 156.016C140.901 156.394 140.899 156.831 140.903 157.326C140.906 157.822 140.911 158.349 140.918 158.905C140.924 159.461 140.933 160.028 140.943 160.605C140.953 161.182 140.965 161.742 140.978 162.285C140.992 162.828 141.009 163.337 141.029 163.813C141.049 164.289 141.073 164.698 141.1 165.042Z" fill="white"/>
<path d="M173.912 159.696C173.912 159.696 237.703 159.136 238.349 159.696C238.996 160.257 238.349 210 238.349 210C238.349 210 174.774 210 173.912 210C173.05 210 173.912 159.696 173.912 159.696Z" fill="#D4DFFF"/>
<path d="M173.912 159.696C173.912 159.696 190.755 143.664 191.783 143.321C192.811 142.978 249.859 142.978 249.688 143.321C249.517 143.664 238.349 159.696 238.349 159.696H173.912Z" fill="#BAC5F8"/>
<path d="M238.35 159.696V210H252.551C252.551 210 252.782 159.59 252.551 159.696C252.321 159.802 238.35 159.696 238.35 159.696Z" fill="#BAC5F8"/>
<path d="M252.551 159.696L245.168 149.89L238.35 159.696H252.551Z" fill="#6880E4"/>
<path d="M208.249 159.447H201.983V182.995H208.249V159.447Z" fill="#BAC5F8"/>
<path d="M208.158 159.663L201.983 159.704L213.246 143.064L219.026 143.134L208.158 159.663Z" fill="#D4DFFF"/>
<path d="M207.321 101.38C206.317 103.149 203.787 103.195 202.717 101.466C196.785 91.877 182.577 66.1246 192.104 53.1113C203.952 36.9284 222.777 47.3066 223.355 60.6376C223.809 71.1195 212.273 92.654 207.321 101.38Z" fill="#D4DFFF"/>
<mask id="mask3_588_5097" style="mask-type:luminance" maskUnits="userSpaceOnUse" x="188" y="44" width="36" height="59">
<path d="M207.321 101.38C206.317 103.149 203.787 103.195 202.717 101.466C196.785 91.877 182.577 66.1246 192.104 53.1113C203.952 36.9284 222.777 47.3066 223.355 60.6376C223.809 71.1195 212.273 92.654 207.321 101.38Z" fill="white"/>
</mask>
<g mask="url(#mask3_588_5097)">
<path d="M190.487 55.9179C190.487 55.9179 188.911 91.2398 212.083 92.6055C212.083 92.6055 210.367 104.788 206.136 105.389C201.904 105.99 196.646 99.6799 194.243 93.6707C191.839 87.6615 183.276 65.5778 185.83 60.9207C188.384 56.2636 190.487 55.9179 190.487 55.9179Z" fill="#BAC5F8"/>
</g>
<path d="M211.492 52.7268C208.894 51.0813 205.273 51.097 202.697 52.7902C199.957 54.5915 199.435 58.035 200.003 61.0509C200.327 62.7647 200.964 64.4651 202.139 65.7541C204.587 68.4385 208.099 68.0573 210.722 65.8469C214.524 62.6438 216.422 55.8499 211.492 52.7268Z" fill="white"/>
</g>
<defs>
<clipPath id="clip0_588_5097">
<rect width="285" height="210" fill="white"/>
</clipPath>
</defs>
</svg>
