<svg width="343" height="40" viewBox="0 0 343 40" fill="none" xmlns="http://www.w3.org/2000/svg">
<rect width="343" height="40" rx="20" fill="#E6E6E6"/>
<path d="M4 20C4 11.1634 11.1634 4 20 4H152C160.837 4 168 11.1634 168 20C168 28.8366 160.837 36 152 36H20C11.1634 36 4 28.8366 4 20Z" fill="white"/>
<path d="M70.654 13.454H71.872V14.686C71.872 15.498 71.7274 16.2633 71.438 16.982C71.158 17.6913 70.7474 18.3167 70.206 18.858C69.6647 19.39 69.0114 19.7913 68.246 20.062L67.518 18.886C68.022 18.718 68.4654 18.4893 68.848 18.2C69.24 17.9107 69.5714 17.5793 69.842 17.206C70.1127 16.8233 70.3134 16.422 70.444 16.002C70.584 15.5727 70.654 15.134 70.654 14.686V13.454ZM70.948 13.454H72.138V14.686C72.138 15.1247 72.208 15.5493 72.348 15.96C72.488 16.3613 72.6887 16.7393 72.95 17.094C73.2114 17.4393 73.5334 17.752 73.916 18.032C74.308 18.3027 74.7514 18.5173 75.246 18.676L74.518 19.824C73.762 19.5627 73.118 19.18 72.586 18.676C72.054 18.172 71.648 17.5793 71.368 16.898C71.088 16.2073 70.948 15.47 70.948 14.686V13.454ZM69.408 21.14H78.018V25.662H76.548V22.316H69.408V21.14ZM76.548 12.866H78.018V20.524H76.548V12.866ZM89.7805 12.852H91.1805V25.648H89.7805V12.852ZM87.9885 17.906H90.2985V19.11H87.9885V17.906ZM87.0085 13.104H88.3945V25.046H87.0085V13.104ZM82.6825 14.84H83.8165V16.17C83.8165 16.9447 83.7605 17.6867 83.6485 18.396C83.5365 19.096 83.3639 19.7493 83.1305 20.356C82.8972 20.9533 82.5985 21.4853 82.2345 21.952C81.8705 22.4187 81.4319 22.806 80.9185 23.114L80.0225 21.98C80.6479 21.6253 81.1519 21.1587 81.5345 20.58C81.9265 19.992 82.2159 19.32 82.4025 18.564C82.5892 17.808 82.6825 17.01 82.6825 16.17V14.84ZM82.9765 14.84H84.0965V16.17C84.0965 16.9353 84.1899 17.668 84.3765 18.368C84.5632 19.0587 84.8525 19.6793 85.2445 20.23C85.6365 20.7713 86.1405 21.2053 86.7565 21.532L85.9165 22.652C85.2352 22.2787 84.6752 21.77 84.2365 21.126C83.7979 20.4727 83.4759 19.726 83.2705 18.886C83.0745 18.0367 82.9765 17.1313 82.9765 16.17V14.84ZM80.3725 14.266H86.2525V15.47H80.3725V14.266ZM96.0411 20.342H97.4831V23.422H96.0411V20.342ZM100.101 20.328H101.543V23.408H100.101V20.328ZM92.9331 22.946H104.525V24.15H92.9331V22.946ZM94.3051 13.748H103.153V17.78H95.7751V20.174H94.3331V16.632H101.697V14.938H94.3051V13.748ZM94.3331 19.558H103.447V20.734H94.3331V19.558Z" fill="#0076F9"/>
<path d="M234.618 13.65H235.78V15.26C235.78 15.932 235.668 16.5947 235.444 17.248C235.22 17.892 234.888 18.4753 234.45 18.998C234.02 19.5207 233.474 19.9267 232.812 20.216L232.028 19.082C232.606 18.8207 233.087 18.4847 233.47 18.074C233.852 17.654 234.137 17.2013 234.324 16.716C234.52 16.2213 234.618 15.736 234.618 15.26V13.65ZM234.884 13.65H236.032V15.26C236.032 15.7173 236.125 16.17 236.312 16.618C236.498 17.066 236.778 17.472 237.152 17.836C237.525 18.2 237.982 18.494 238.524 18.718L237.754 19.824C237.119 19.572 236.587 19.2127 236.158 18.746C235.728 18.2793 235.406 17.7473 235.192 17.15C234.986 16.5433 234.884 15.9133 234.884 15.26V13.65ZM241.548 12.866H242.948V20.734H241.548V12.866ZM239.728 16.156H241.968V17.346H239.728V16.156ZM238.818 13.104H240.204V20.328H238.818V13.104ZM238.678 20.958C239.564 20.958 240.33 21.0513 240.974 21.238C241.627 21.4247 242.126 21.6953 242.472 22.05C242.826 22.3953 243.004 22.8153 243.004 23.31C243.004 23.7953 242.826 24.2107 242.472 24.556C242.126 24.9107 241.627 25.1767 240.974 25.354C240.33 25.5407 239.564 25.634 238.678 25.634C237.8 25.634 237.035 25.5407 236.382 25.354C235.728 25.1767 235.224 24.9107 234.87 24.556C234.524 24.2107 234.352 23.7953 234.352 23.31C234.352 22.8153 234.524 22.3953 234.87 22.05C235.224 21.6953 235.728 21.4247 236.382 21.238C237.035 21.0513 237.8 20.958 238.678 20.958ZM238.678 22.078C237.782 22.078 237.077 22.1853 236.564 22.4C236.06 22.6053 235.808 22.9087 235.808 23.31C235.808 23.6927 236.06 23.9913 236.564 24.206C237.077 24.4207 237.782 24.528 238.678 24.528C239.275 24.528 239.788 24.4813 240.218 24.388C240.647 24.2853 240.974 24.1453 241.198 23.968C241.422 23.7907 241.534 23.5713 241.534 23.31C241.534 22.9087 241.282 22.6053 240.778 22.4C240.283 22.1853 239.583 22.078 238.678 22.078ZM253.394 12.852H254.85V20.398H253.394V12.852ZM254.29 16.016H256.614V17.234H254.29V16.016ZM246.436 20.916H254.85V23.646H247.906V24.85H246.45V22.708H253.408V21.924H246.436V20.916ZM246.45 24.528H255.326V25.536H246.45V24.528ZM247.99 18.046H249.446V19.768H247.99V18.046ZM244.896 20.188L244.728 19.152C245.484 19.152 246.315 19.1473 247.22 19.138C248.126 19.1193 249.05 19.0867 249.992 19.04C250.935 18.984 251.845 18.9 252.722 18.788L252.82 19.698C251.924 19.8473 251.005 19.9593 250.062 20.034C249.12 20.0993 248.205 20.1413 247.318 20.16C246.441 20.1787 245.634 20.188 244.896 20.188ZM245.05 13.762H252.358V14.756H245.05V13.762ZM248.704 15.092C249.628 15.092 250.366 15.2413 250.916 15.54C251.476 15.8293 251.756 16.24 251.756 16.772C251.756 17.2947 251.476 17.7053 250.916 18.004C250.366 18.3027 249.628 18.452 248.704 18.452C247.78 18.452 247.043 18.3027 246.492 18.004C245.942 17.7053 245.666 17.2947 245.666 16.772C245.666 16.24 245.942 15.8293 246.492 15.54C247.043 15.2413 247.78 15.092 248.704 15.092ZM248.704 16.016C248.191 16.016 247.785 16.0813 247.486 16.212C247.197 16.3427 247.052 16.5293 247.052 16.772C247.052 17.0053 247.197 17.192 247.486 17.332C247.785 17.4627 248.191 17.528 248.704 17.528C249.218 17.528 249.619 17.4627 249.908 17.332C250.207 17.192 250.356 17.0053 250.356 16.772C250.356 16.5293 250.207 16.3427 249.908 16.212C249.619 16.0813 249.218 16.016 248.704 16.016ZM247.99 12.74H249.446V14.294H247.99V12.74ZM260.313 17.164H261.769V19.558H260.313V17.164ZM264.919 17.164H266.375V19.558H264.919V17.164ZM257.569 19.068H269.133V20.23H257.569V19.068ZM263.323 21.07C264.704 21.07 265.782 21.266 266.557 21.658C267.341 22.05 267.733 22.6147 267.733 23.352C267.733 24.08 267.341 24.6447 266.557 25.046C265.782 25.4473 264.704 25.648 263.323 25.648C261.951 25.648 260.873 25.4473 260.089 25.046C259.314 24.6447 258.927 24.08 258.927 23.352C258.927 22.6147 259.314 22.05 260.089 21.658C260.873 21.266 261.951 21.07 263.323 21.07ZM263.323 22.176C262.707 22.176 262.179 22.2227 261.741 22.316C261.302 22.4 260.966 22.5307 260.733 22.708C260.509 22.876 260.397 23.0907 260.397 23.352C260.397 23.6133 260.509 23.8327 260.733 24.01C260.966 24.178 261.302 24.3087 261.741 24.402C262.179 24.486 262.707 24.528 263.323 24.528C263.957 24.528 264.489 24.486 264.919 24.402C265.357 24.3087 265.689 24.178 265.913 24.01C266.137 23.8327 266.249 23.6133 266.249 23.352C266.249 23.0907 266.137 22.876 265.913 22.708C265.689 22.5307 265.357 22.4 264.919 22.316C264.489 22.2227 263.957 22.176 263.323 22.176ZM263.351 13.076C264.284 13.076 265.091 13.174 265.773 13.37C266.454 13.5567 266.977 13.832 267.341 14.196C267.714 14.5507 267.901 14.98 267.901 15.484C267.901 15.988 267.714 16.422 267.341 16.786C266.977 17.1407 266.454 17.416 265.773 17.612C265.091 17.7987 264.284 17.892 263.351 17.892C262.417 17.892 261.605 17.7987 260.915 17.612C260.233 17.416 259.706 17.1407 259.333 16.786C258.969 16.422 258.787 15.988 258.787 15.484C258.787 14.98 258.969 14.5507 259.333 14.196C259.706 13.832 260.233 13.5567 260.915 13.37C261.605 13.174 262.417 13.076 263.351 13.076ZM263.351 14.196C262.716 14.196 262.17 14.2473 261.713 14.35C261.255 14.4527 260.905 14.5973 260.663 14.784C260.42 14.9707 260.299 15.204 260.299 15.484C260.299 15.7547 260.42 15.988 260.663 16.184C260.905 16.3707 261.255 16.5153 261.713 16.618C262.17 16.7207 262.716 16.772 263.351 16.772C263.985 16.772 264.527 16.7207 264.975 16.618C265.432 16.5153 265.782 16.3707 266.025 16.184C266.267 15.988 266.389 15.7547 266.389 15.484C266.389 15.204 266.267 14.9707 266.025 14.784C265.782 14.5973 265.432 14.4527 264.975 14.35C264.527 14.2473 263.985 14.196 263.351 14.196ZM275.351 19.768H276.807V21.854H275.351V19.768ZM270.297 18.956H281.861V20.132H270.297V18.956ZM271.333 13.244H280.797V14.42H271.333V13.244ZM271.403 16.758H280.713V17.934H271.403V16.758ZM273.139 13.706H274.595V17.528H273.139V13.706ZM277.535 13.706H278.991V17.528H277.535V13.706ZM271.683 21.42H280.461V25.494H271.683V21.42ZM279.019 22.582H273.111V24.332H279.019V22.582Z" fill="#333333"/>
</svg>
