<svg width="48" height="48" viewBox="0 0 48 48" fill="none" xmlns="http://www.w3.org/2000/svg">
<rect x="1" y="1" width="46" height="46" rx="11" stroke="#C7E1FF" stroke-width="2" stroke-dasharray="4 4"/>
<path d="M14.5 18.5C14.5 16.2909 16.2909 14.5 18.5 14.5H29.5C31.7091 14.5 33.5 16.2909 33.5 18.5V29.5C33.5 31.7091 31.7091 33.5 29.5 33.5H18.5C16.2909 33.5 14.5 31.7091 14.5 29.5V18.5Z" stroke="#61ACFF" stroke-width="1.5"/>
<path d="M14.5 26.4999L17.8055 23.1945C18.6878 22.3122 20.1538 22.4443 20.8641 23.4702L22.7664 26.218C23.4311 27.1781 24.7735 27.3669 25.6773 26.6275L28.0992 24.646C28.8944 23.9954 30.0533 24.0532 30.7798 24.7797L33.5 27.4999" stroke="#61ACFF" stroke-width="1.5"/>
<circle cx="28.5" cy="19.5" r="1.5" fill="#61ACFF"/>
</svg>
