<svg width="15" height="19" viewBox="0 0 15 19" fill="none" xmlns="http://www.w3.org/2000/svg">
<path d="M7.41699 0C9.38382 8.62428e-05 11.2703 0.781159 12.6611 2.17188C14.052 3.56277 14.833 5.44997 14.833 7.41699C14.8328 9.75005 13.5534 12.0395 12.1787 13.8457C10.7865 15.6748 9.20106 17.131 8.40723 17.8164C8.39458 17.8273 8.38152 17.8386 8.36816 17.8486C8.09398 18.0547 7.75996 18.1659 7.41699 18.166C7.07384 18.1659 6.73911 18.0549 6.46484 17.8486C6.45142 17.8385 6.43849 17.8274 6.42578 17.8164C5.63188 17.1309 4.04734 15.6746 2.65527 13.8457C1.28055 12.0395 0.000238168 9.75007 0 7.41699C0 5.45012 0.781184 3.56274 2.17188 2.17188C3.56269 0.781057 5.45009 8.61566e-05 7.41699 0ZM7.41699 4.91602C6.03639 4.91602 4.91717 6.03545 4.91699 7.41602C4.91699 8.79673 6.03628 9.91602 7.41699 9.91602C8.7977 9.91602 9.91699 8.79673 9.91699 7.41602C9.91682 6.03545 8.7976 4.91602 7.41699 4.91602Z" fill="#94C7FF"/>
</svg>
