<svg width="54" height="54" viewBox="0 0 54 54" fill="none" xmlns="http://www.w3.org/2000/svg">
<g filter="url(#filter0_d_371_4142)">
<rect x="5" y="3" width="44" height="44" rx="22" fill="white" fill-opacity="0.2" shape-rendering="crispEdges"/>
<path d="M29.25 30.75H24.75V31C24.75 32.2426 25.7573 33.25 27 33.25C28.2426 33.25 29.25 32.2426 29.25 31V30.75ZM20.75 26.7227C20.7499 27.0996 20.5999 27.4606 20.334 27.7266L19.9443 28.1162C19.882 28.1786 19.8469 28.2138 19.8213 28.2412C19.8051 28.2584 19.7986 28.2664 19.7969 28.2686C19.7747 28.2994 19.7592 28.3355 19.7529 28.374C19.7526 28.3769 19.7517 28.3873 19.751 28.4102C19.7498 28.4478 19.75 28.4974 19.75 28.5859C19.75 28.7872 19.7498 28.9074 19.7549 28.9971C19.7597 29.0812 19.767 29.0929 19.7627 29.0801C19.7875 29.1537 19.8459 29.2122 19.9199 29.2373C19.9075 29.2332 19.9194 29.2404 20.0019 29.2451C20.0907 29.2502 20.2096 29.25 20.4092 29.25H33.5908C33.7902 29.25 33.909 29.2502 33.998 29.2451C34.0819 29.2404 34.0932 29.2329 34.0801 29.2373C34.153 29.2127 34.211 29.155 34.2363 29.0801C34.238 29.0709 34.2413 29.0465 34.2441 28.9971C34.2492 28.9074 34.25 28.7872 34.25 28.5859C34.25 28.4975 34.2493 28.4476 34.248 28.4102C34.2473 28.3863 34.2464 28.3765 34.2461 28.374C34.2395 28.3339 34.2243 28.2981 34.2031 28.2686C34.2012 28.2661 34.1948 28.2584 34.1797 28.2422C34.1537 28.2145 34.1182 28.1787 34.0557 28.1162L33.666 27.7266C33.3998 27.4603 33.2501 27.0992 33.25 26.7227V23C33.25 19.5482 30.4518 16.75 27 16.75C23.5482 16.75 20.75 19.5482 20.75 23V26.7227ZM34.75 26.6895L35.1162 27.0557C35.2176 27.1571 35.3305 27.2663 35.4219 27.3936C35.5803 27.6142 35.6832 27.8671 35.7266 28.1309C35.7519 28.2853 35.75 28.4402 35.75 28.5859C35.75 28.9109 35.7599 29.258 35.6582 29.5596C35.4839 30.0763 35.0783 30.4832 34.5596 30.6582C34.3341 30.7342 34.0831 30.748 33.8359 30.75H30.75V31C30.75 33.0711 29.0711 34.75 27 34.75C24.9289 34.75 23.25 33.0711 23.25 31V30.75H20.165C19.9178 30.748 19.6671 30.7343 19.4414 30.6582C18.9239 30.4837 18.5165 30.0775 18.3418 29.5596C18.2401 29.258 18.25 28.9109 18.25 28.5859C18.25 28.4417 18.248 28.2856 18.2734 28.1309C18.317 27.8654 18.4206 27.6129 18.5781 27.3936C18.6694 27.2664 18.781 27.1585 18.8838 27.0557L19.25 26.6895V23C19.25 18.7198 22.7198 15.25 27 15.25C31.2802 15.25 34.75 18.7198 34.75 23V26.6895Z" fill="#333333"/>
</g>
<defs>
<filter id="filter0_d_371_4142" x="0" y="0" width="54" height="54" filterUnits="userSpaceOnUse" color-interpolation-filters="sRGB">
<feFlood flood-opacity="0" result="BackgroundImageFix"/>
<feColorMatrix in="SourceAlpha" type="matrix" values="0 0 0 0 0 0 0 0 0 0 0 0 0 0 0 0 0 0 127 0" result="hardAlpha"/>
<feOffset dy="2"/>
<feGaussianBlur stdDeviation="2.5"/>
<feComposite in2="hardAlpha" operator="out"/>
<feColorMatrix type="matrix" values="0 0 0 0 0 0 0 0 0 0 0 0 0 0 0 0 0 0 0.1 0"/>
<feBlend mode="normal" in2="BackgroundImageFix" result="effect1_dropShadow_371_4142"/>
<feBlend mode="normal" in="BackgroundImageFix" in2="effect1_dropShadow_371_4142" result="BackgroundImageFix"/>
<feBlend mode="normal" in="SourceGraphic" in2="BackgroundImageFix" result="shape"/>
</filter>
</defs>
</svg>
