<svg width="24" height="24" viewBox="0 0 24 24" fill="none" xmlns="http://www.w3.org/2000/svg">
<path d="M15.936 4.03268C16.2988 4.07128 16.5947 4.23781 16.8442 4.42819C17.112 4.63254 17.403 4.92546 17.7212 5.24362L18.4839 6.00632C18.8021 6.3245 19.095 6.61553 19.2993 6.88327C19.5168 7.16837 19.7035 7.51376 19.7036 7.95065C19.7036 8.38767 19.5169 8.73288 19.2993 9.01804C19.095 9.28579 18.8021 9.57678 18.4839 9.89499L9.51611 18.8628C9.34964 19.0292 9.17215 19.2155 8.94482 19.3442C8.71757 19.4728 8.46708 19.5293 8.23877 19.5864L4.79639 20.4467C4.64039 20.4857 4.44042 20.5374 4.26904 20.5542C4.08834 20.5718 3.73196 20.5737 3.44287 20.2846C3.1538 19.9956 3.15469 19.6392 3.17236 19.4585C3.18913 19.2871 3.24175 19.0872 3.28076 18.9311L4.14111 15.4887C4.19822 15.2603 4.25457 15.0091 4.3833 14.7817C4.512 14.5545 4.69835 14.3778 4.86475 14.2114L13.8315 5.24362C14.1499 4.92528 14.4416 4.63255 14.7095 4.42819C14.9946 4.21063 15.3398 4.0239 15.7769 4.0239L15.936 4.03268Z" stroke="#333333" stroke-width="1.5"/>
<path d="M12.7838 6.15542L15.774 4.07877L20.1939 7.74001L17.5719 10.9436L12.7838 6.15542Z" fill="#333333"/>
</svg>
