<svg width="24" height="24" viewBox="0 0 24 24" fill="none" xmlns="http://www.w3.org/2000/svg">
<path d="M4 2V22L6 21L8 22L10 21L12 22L14 21L16 22L18 21L20 22V2L18 3L16 2L14 3L12 2L10 3L8 2L6 3L4 2Z" stroke="#333333" stroke-width="1.5" stroke-linecap="round" stroke-linejoin="round"/>
<path d="M6.505 11.995L17.505 11.995" stroke="#333333" stroke-width="1.5" stroke-linecap="round" stroke-linejoin="round"/>
<path d="M18.1826 8.59607L15.0583 16.9274C14.9498 17.1878 14.6895 17.383 14.4074 17.383C14.3857 17.383 14.3857 17.383 14.364 17.383C14.082 17.3614 13.8216 17.1661 13.7348 16.8623L11.9991 10.8308L10.22 16.8623C10.1333 17.1661 9.8729 17.3614 9.59085 17.383C9.2871 17.383 9.00505 17.2095 8.91827 16.9274L5.79401 8.59607C5.64213 8.22723 5.8374 7.8367 6.18454 7.70652C6.55337 7.55465 6.94391 7.74991 7.07408 8.09705L9.48237 14.4541L11.3265 8.14045C11.4133 7.8584 11.6737 7.66313 11.9991 7.66313C12.3029 7.66313 12.5632 7.8584 12.65 8.16214L14.4942 14.4757L16.9025 8.11875C17.0327 7.77161 17.4232 7.57634 17.792 7.70652C18.1392 7.8367 18.3344 8.22723 18.1826 8.59607Z" fill="#333333"/>
</svg>
