<svg width="24" height="24" viewBox="0 0 24 24" fill="none" xmlns="http://www.w3.org/2000/svg">
<rect width="24" height="24" rx="12" fill="#B3B3B3"/>
<path d="M16.5581 6.5581C16.8022 6.31403 17.1978 6.31404 17.4419 6.5581C17.686 6.80218 17.686 7.19782 17.4419 7.44189L12.8838 12L17.4419 16.5581C17.686 16.8022 17.686 17.1978 17.4419 17.4419C17.1978 17.686 16.8022 17.6859 16.5581 17.4419L12 12.8838L7.44191 17.4419C7.19783 17.686 6.8022 17.686 6.55812 17.4419C6.31406 17.1978 6.31405 16.8022 6.55812 16.5581L11.1162 12L6.55812 7.44189C6.31404 7.19782 6.31404 6.80218 6.55812 6.5581C6.8022 6.31403 7.19783 6.31403 7.44191 6.5581L12 11.1162L16.5581 6.5581Z" fill="white"/>
</svg>
