<svg width="24" height="24" viewBox="0 0 24 24" fill="none" xmlns="http://www.w3.org/2000/svg">
<g clip-path="url(#clip0_677_6155)">
<path fill-rule="evenodd" clip-rule="evenodd" d="M12 0.723633C14.8899 0.723819 17.2323 3.06619 17.2325 5.95605V6.32715H17.2852C18.1383 6.32715 18.851 6.32569 19.419 6.39941C20.0083 6.47594 20.5431 6.64409 20.9883 7.05371C21.4331 7.46327 21.6444 7.98183 21.7696 8.5625C21.8902 9.12233 21.9487 9.83255 22.0196 10.6826L22.6534 18.2979C22.6937 18.7824 22.7324 19.2244 22.7129 19.582C22.6922 19.961 22.6026 20.369 22.2881 20.7109C21.9733 21.053 21.5735 21.1764 21.1973 21.2285C20.8425 21.2776 20.3995 21.2764 19.9131 21.2764H4.08695C3.60067 21.2764 3.15758 21.2776 2.80277 21.2285C2.42657 21.1764 2.0268 21.053 1.71195 20.7109C1.39749 20.369 1.30791 19.961 1.28715 19.582C1.26764 19.2244 1.30536 18.7824 1.34574 18.2979L1.98051 10.6826C2.05135 9.83254 2.1099 9.12233 2.23051 8.5625C2.35566 7.9818 2.56689 7.46328 3.01176 7.05371C3.45696 6.64407 3.99179 6.47594 4.58109 6.39941C5.14902 6.3257 5.86182 6.32715 6.71488 6.32715H6.76664V5.95605C6.76683 3.06616 9.11014 0.723772 12 0.723633ZM6.71488 7.82715C5.82117 7.82715 5.22249 7.82841 4.77348 7.88672C4.3461 7.94226 4.15623 8.03868 4.02738 8.15723C3.89864 8.27582 3.78711 8.45769 3.69633 8.87891C3.60105 9.32144 3.5498 9.91754 3.47563 10.8076L2.84086 18.4229C2.79683 18.9512 2.77169 19.2703 2.78422 19.5C2.78998 19.6051 2.80354 19.6586 2.81156 19.6826C2.81333 19.6879 2.81453 19.6923 2.81547 19.6943C2.81672 19.6952 2.82057 19.6979 2.82817 19.7012C2.85142 19.7112 2.9035 19.7287 3.00785 19.7432C3.23579 19.7747 3.5564 19.7764 4.08695 19.7764H19.9131C20.4434 19.7764 20.7633 19.7747 20.9913 19.7432C21.0961 19.7286 21.1487 19.7112 21.1719 19.7012C21.1785 19.6983 21.182 19.6954 21.1836 19.6943C21.1846 19.6923 21.1866 19.6882 21.1885 19.6826C21.1965 19.6586 21.2091 19.605 21.2149 19.5C21.2274 19.2703 21.2032 18.9512 21.1592 18.4229L20.5245 10.8076C20.4503 9.91756 20.399 9.32143 20.3038 8.87891C20.213 8.45779 20.1014 8.27583 19.9727 8.15723C19.8438 8.03864 19.6532 7.94226 19.2256 7.88672C18.7767 7.82847 18.1786 7.82715 17.2852 7.82715H17.2325V10.4395C17.2322 10.8535 16.8965 11.1895 16.4825 11.1895C16.0686 11.1892 15.7327 10.8533 15.7325 10.4395V7.82715H8.26664V10.4395C8.26643 10.8535 7.93072 11.1895 7.51664 11.1895C7.10268 11.1893 6.76686 10.8534 6.76664 10.4395V7.82715H6.71488ZM12 2.22363C9.93857 2.22377 8.26683 3.89459 8.26664 5.95605V6.32715H15.7325V5.95605C15.7323 3.89462 14.0615 2.22382 12 2.22363Z" fill="#333333"/>
<path d="M8.40925 13.8785L13.6059 8.83099L12.4856 12.8495L14.9972 13.5497L9.80054 18.5973L10.9208 14.5787L8.40925 13.8785Z" stroke="#333333" stroke-width="1.2" stroke-linejoin="round"/>
</g>
<defs>
<clipPath id="clip0_677_6155">
<rect width="24" height="24" fill="white"/>
</clipPath>
</defs>
</svg>
