<svg width="48" height="48" viewBox="0 0 48 48" fill="none" xmlns="http://www.w3.org/2000/svg">
<rect x="1" y="1" width="46" height="46" rx="11" stroke="#C7E1FF" stroke-width="2" stroke-dasharray="4 4"/>
<path d="M22.1376 27.284L22.1252 26.4025C22.1004 25.7982 22.1625 25.2643 22.3115 24.8008C22.4605 24.3373 22.7129 23.9193 23.0688 23.5468C23.4247 23.1661 23.8841 22.806 24.447 22.4666C24.9684 22.1521 25.3782 21.8583 25.6761 21.5851C25.9741 21.312 26.1852 21.0223 26.3094 20.716C26.4418 20.4098 26.508 20.0538 26.508 19.6483V19.6234C26.508 19.1847 26.4004 18.7957 26.1852 18.4563C25.97 18.117 25.6637 17.8521 25.2664 17.6617C24.8774 17.4631 24.4222 17.3638 23.9007 17.3638C23.3709 17.3638 22.9074 17.4672 22.5101 17.6742C22.1128 17.8811 21.7983 18.1708 21.5665 18.5433C21.343 18.9157 21.2147 19.3503 21.1816 19.8469L21.1692 19.8842H18.2639V19.8345C18.297 18.8826 18.5412 18.0301 18.9964 17.2768C19.4517 16.5153 20.1015 15.9194 20.9457 15.489C21.7983 15.0503 22.8371 14.8309 24.0621 14.8309C25.1961 14.8309 26.1852 15.0337 27.0295 15.4393C27.882 15.8366 28.5442 16.387 29.016 17.0906C29.4961 17.7942 29.7361 18.6012 29.7361 19.5117V19.5365C29.7361 20.1656 29.6326 20.7367 29.4257 21.2499C29.2271 21.7631 28.9291 22.2266 28.5318 22.6405C28.1428 23.0461 27.6668 23.4185 27.104 23.7579C26.5659 24.0724 26.1438 24.3663 25.8376 24.6394C25.5396 24.9126 25.3285 25.2023 25.2043 25.5085C25.0802 25.8148 25.0181 26.1748 25.0181 26.5887V27.284H22.1376ZM23.702 33.1691C23.1061 33.1691 22.6219 32.9952 22.2494 32.6476C21.8769 32.2917 21.6907 31.8323 21.6907 31.2695C21.6907 30.69 21.8769 30.2265 22.2494 29.8789C22.6219 29.5312 23.1061 29.3574 23.702 29.3574C24.298 29.3574 24.7781 29.5312 25.1423 29.8789C25.5065 30.2265 25.6886 30.69 25.6886 31.2695C25.6886 31.8323 25.5065 32.2917 25.1423 32.6476C24.7781 32.9952 24.298 33.1691 23.702 33.1691Z" fill="#61ACFF"/>
</svg>
