<svg width="24" height="24" viewBox="0 0 24 24" fill="none" xmlns="http://www.w3.org/2000/svg">
<path d="M15.936 4.03269C16.2987 4.07128 16.5946 4.23781 16.8442 4.42819C17.1119 4.63254 17.403 4.92546 17.7211 5.24362L18.4838 6.00632C18.802 6.3245 19.0949 6.61553 19.2993 6.88327C19.5168 7.16837 19.7035 7.51376 19.7036 7.95065C19.7036 8.38767 19.5168 8.73288 19.2993 9.01804C19.095 9.28579 18.802 9.57678 18.4838 9.89499L9.51605 18.8628C9.34958 19.0292 9.17209 19.2155 8.94476 19.3442C8.7175 19.4728 8.46702 19.5293 8.23871 19.5864L4.79633 20.4467C4.64032 20.4857 4.44035 20.5374 4.26898 20.5542C4.08828 20.5718 3.7319 20.5737 3.44281 20.2846C3.15374 19.9956 3.15463 19.6392 3.1723 19.4585C3.18907 19.2871 3.24169 19.0872 3.2807 18.9311L4.14105 15.4887C4.19816 15.2603 4.25451 15.0091 4.38324 14.7817C4.51194 14.5545 4.69829 14.3778 4.86469 14.2114L13.8315 5.24362C14.1498 4.92528 14.4416 4.63256 14.7094 4.42819C14.9946 4.21064 15.3398 4.0239 15.7768 4.0239L15.936 4.03269Z" stroke="#333333" stroke-width="1.5"/>
<path d="M12.7838 6.15542L15.774 4.07876L20.1939 7.74001L17.572 10.9436L12.7838 6.15542Z" fill="#333333"/>
</svg>
