<svg width="24" height="24" viewBox="0 0 24 24" fill="none" xmlns="http://www.w3.org/2000/svg">
<path d="M19.2501 11.4526C19.2501 10.8801 19.244 10.7252 19.2091 10.5913C19.173 10.4534 19.114 10.3231 19.0343 10.2055C18.9565 10.0911 18.8436 9.98456 18.4132 9.60789L13.6134 5.40867C13.2314 5.07449 12.9764 4.85136 12.7657 4.69383C12.5627 4.54207 12.4455 4.48635 12.3546 4.45945C12.1233 4.39108 11.8769 4.39111 11.6456 4.45945C11.5548 4.48632 11.4373 4.54213 11.2345 4.69383C11.0241 4.85111 10.7698 5.07327 10.3888 5.40672L5.58699 9.60789C5.15645 9.98462 5.04366 10.091 4.9659 10.2055C4.8853 10.3243 4.82677 10.4549 4.7911 10.5913C4.75618 10.7249 4.75008 10.879 4.75008 11.4526V17.0005C4.75008 17.4765 4.75078 17.7961 4.76766 18.0434C4.78405 18.2836 4.81291 18.4008 4.84481 18.478C4.97188 18.7848 5.21578 19.0291 5.52156 19.1557C5.59867 19.1876 5.71596 19.2165 5.95613 19.2329C6.2036 19.2498 6.52388 19.2505 7.00008 19.2505C7.47594 19.2505 7.79553 19.2498 8.04305 19.2329C8.28373 19.2165 8.40149 19.1876 8.4786 19.1557C8.78437 19.0291 9.0273 18.7848 9.15438 18.478C9.18632 18.4008 9.21607 18.2838 9.2325 18.0434C9.2494 17.7961 9.25008 17.4764 9.25008 17.0005V16.0005C9.25008 14.4817 10.4813 13.2505 12.0001 13.2505C13.5189 13.2505 14.7501 14.4817 14.7501 16.0005V17.0005C14.7501 17.4764 14.7508 17.796 14.7677 18.0434C14.784 18.2836 14.8129 18.4009 14.8448 18.478C14.9719 18.7847 15.2157 19.0291 15.5216 19.1557C15.5987 19.1876 15.716 19.2165 15.9561 19.2329C16.2036 19.2498 16.5239 19.2505 17.0001 19.2505C17.4759 19.2505 17.7955 19.2498 18.043 19.2329C18.2837 19.2165 18.4015 19.1876 18.4786 19.1557C18.7843 19.0291 19.0273 18.7849 19.1544 18.478C19.1863 18.4008 19.2161 18.2838 19.2325 18.0434C19.2494 17.7961 19.2501 17.4765 19.2501 17.0005V11.4526ZM20.7501 17.0005C20.7501 17.456 20.7508 17.8357 20.7296 18.146C20.7079 18.4628 20.6612 18.7621 20.5411 19.0522C20.2622 19.7255 19.7272 20.2621 19.0528 20.5415C18.7624 20.6618 18.4627 20.7083 18.1456 20.73C17.8352 20.7511 17.4557 20.7505 17.0001 20.7505C16.5445 20.7505 16.1649 20.7511 15.8546 20.73C15.5375 20.7083 15.2377 20.6618 14.9473 20.5415C14.2731 20.2622 13.738 19.7256 13.4591 19.0522C13.3389 18.7619 13.2922 18.462 13.2706 18.145C13.2494 17.8348 13.2501 17.4558 13.2501 17.0005V16.0005C13.2501 15.3101 12.6904 14.7505 12.0001 14.7505C11.3097 14.7505 10.7501 15.3101 10.7501 16.0005V17.0005C10.7501 17.456 10.7508 17.8357 10.7296 18.146C10.7079 18.4628 10.6612 18.7621 10.5411 19.0522C10.2622 19.7255 9.72715 20.2622 9.05281 20.5415C8.76243 20.6618 8.46267 20.7083 8.14559 20.73C7.83517 20.7511 7.45565 20.7505 7.00008 20.7505C6.54446 20.7505 6.16491 20.7511 5.85457 20.73C5.53749 20.7083 5.23772 20.6618 4.94735 20.5415C4.27302 20.2622 3.73797 19.7256 3.45906 19.0522C3.33886 18.7619 3.29222 18.462 3.27059 18.145C3.24945 17.8348 3.25008 17.4558 3.25008 17.0005V11.4526C3.25008 10.9576 3.24397 10.576 3.33895 10.2124C3.41843 9.9082 3.55053 9.62177 3.72567 9.36375C3.93658 9.05305 4.22502 8.80597 4.59871 8.47899L9.40047 4.27781C9.76435 3.95942 10.0688 3.69248 10.336 3.49266C10.6108 3.28718 10.8909 3.11827 11.2198 3.02098C11.7288 2.87045 12.2713 2.87045 12.7804 3.02098C13.1093 3.11832 13.3891 3.28703 13.6641 3.49266C13.9318 3.69274 14.237 3.96066 14.6016 4.27977L19.4014 8.47899C19.775 8.80588 20.0645 9.05303 20.2755 9.36375C20.4513 9.62291 20.5812 9.90976 20.6602 10.2124C20.7552 10.5758 20.7501 10.9565 20.7501 11.4526V17.0005Z" fill="#333333"/>
</svg>
