<svg width="24" height="24" viewBox="0 0 24 24" fill="none" xmlns="http://www.w3.org/2000/svg">
<path d="M8 11L8 7C8 4.79086 9.79086 3 12 3C14.2091 3 16 4.79086 16 7L16 11" stroke="#333333" stroke-width="1.5" stroke-linecap="round"/>
<path d="M3.69435 11.6678C3.83942 9.92692 3.91196 9.05647 4.48605 8.52824C5.06013 8 5.9336 8 7.68053 8H16.3195C18.0664 8 18.9399 8 19.514 8.52824C20.088 9.05647 20.1606 9.92692 20.3057 11.6678L20.8195 17.8339C20.904 18.8474 20.9462 19.3542 20.6491 19.6771C20.352 20 19.8435 20 18.8264 20H5.1736C4.15655 20 3.64802 20 3.35092 19.6771C3.05382 19.3542 3.09605 18.8474 3.18051 17.8339L3.69435 11.6678Z" stroke="#333333" stroke-width="1.5"/>
</svg>
